SplineFontDB: 3.2
FontName: NotoSans
FullName: Noto Sans
FamilyName: Noto Sans
Weight: Book
Copyright: Copyright 2012 Google Inc. All Rights Reserved.
Version: 1.04
ItalicAngle: 0
UnderlinePosition: -370
UnderlineWidth: 120
Ascent: 1638
Descent: 410
InvalidEm: 0
sfntRevision: 0x00010a3d
LayerCount: 2
Layer: 0 1 "Back" 1
Layer: 1 1 "Fore" 0
XUID: [1021 497 -1877248868 16570150]
StyleMap: 0x0040
FSType: 8
OS2Version: 3
OS2_WeightWidthSlopeOnly: 0
OS2_UseTypoMetrics: 0
CreationTime: 1392839385
ModificationTime: 1603228208
PfmFamily: 17
TTFWeight: 400
TTFWidth: 5
LineGap: 0
VLineGap: 0
Panose: 2 11 5 2 4 5 4 2 2 4
OS2TypoAscent: 1950
OS2TypoAOffset: 0
OS2TypoDescent: -494
OS2TypoDOffset: 0
OS2TypoLinegap: 0
OS2WinAscent: 1950
OS2WinAOffset: 0
OS2WinDescent: 494
OS2WinDOffset: 0
HheadAscent: 1950
HheadAOffset: 0
HheadDescent: -494
HheadDOffset: 0
OS2SubXSize: 1331
OS2SubYSize: 1228
OS2SubXOff: 0
OS2SubYOff: 153
OS2SupXSize: 1331
OS2SupYSize: 1228
OS2SupXOff: 0
OS2SupYOff: 716
OS2StrikeYSize: 120
OS2StrikeYPos: 624
OS2CapHeight: 1443
OS2XHeight: 1040
OS2FamilyClass: 2050
OS2Vendor: 'MONO'
OS2CodePages: 2000019f.dfd70000
OS2UnicodeRanges: e00082ff.400078ff.00000021.00000000
Lookup: 4 0 0 "'ccmp' Glyph Composition/Decomposition lookup 0" { "'ccmp' Glyph Composition/Decomposition lookup 0 subtable"  } ['ccmp' ('cyrl' <'dflt' > 'grek' <'dflt' > 'latn' <'dflt' > ) ]
Lookup: 6 0 0 "'ccmp' Glyph Composition/Decomposition lookup 1" { "'ccmp' Glyph Composition/Decomposition lookup 1 subtable"  } ['ccmp' ('cyrl' <'dflt' > 'grek' <'dflt' > 'latn' <'dflt' > ) ]
Lookup: 4 0 0 "'ccmp' Glyph Composition/Decomposition lookup 2" { "'ccmp' Glyph Composition/Decomposition lookup 2 subtable"  } ['ccmp' ('cyrl' <'dflt' > 'grek' <'dflt' > 'latn' <'dflt' > ) ]
Lookup: 1 0 0 "Single Substitution lookup 3" { "Single Substitution lookup 3 subtable"  } []
Lookup: 1 0 0 "'locl' Localized Forms lookup 4" { "'locl' Localized Forms lookup 4 subtable"  } ['locl' ('dev2' <'MAR ' > 'deva' <'MAR ' > ) ]

StartChar: .notdef
Encoding: 65536 -1 0
Width: 1229
GlyphClass: 2
Flags: W
LayerCount: 2
Fore
SplineSet
193 1462 m 1,0,-1
 1034 1462 l 1,1,-1
 1034 0 l 1,2,-1
 193 0 l 1,3,-1
 193 1462 l 1,0,-1
297 104 m 1,4,-1
 930 104 l 1,5,-1
 930 1358 l 1,6,-1
 297 1358 l 1,7,-1
 297 104 l 1,4,-1
EndSplineSet
EndChar

StartChar: glyph4
Encoding: 65540 -1 4
Width: 551
Flags: W
LayerCount: 2
Fore
SplineSet
334 412 m 1,0,-1
 217 412 l 1,1,-1
 166 1462 l 1,2,-1
 385 1462 l 1,3,-1
 334 412 l 1,0,-1
147 111 m 256,4,5
 147 177 147 177 179.5 212.5 c 128,-1,6
 212 248 212 248 274 248 c 256,7,8
 336 248 336 248 368.5 211.5 c 128,-1,9
 401 175 401 175 401 111 c 256,10,11
 401 47 401 47 367.5 9 c 128,-1,12
 334 -29 334 -29 274 -29 c 0,13,14
 213 -29 213 -29 180 8 c 128,-1,15
 147 45 147 45 147 111 c 256,4,5
EndSplineSet
EndChar

StartChar: glyph5
Encoding: 65541 -1 5
Width: 836
Flags: W
LayerCount: 2
Fore
SplineSet
328 1462 m 1,0,-1
 287 934 l 1,1,-1
 174 934 l 1,2,-1
 133 1462 l 1,3,-1
 328 1462 l 1,0,-1
702 1462 m 1,4,-1
 662 934 l 1,5,-1
 549 934 l 1,6,-1
 508 1462 l 1,7,-1
 702 1462 l 1,4,-1
EndSplineSet
EndChar

StartChar: dollar
Encoding: 36 36 6
Width: 1171
GlyphClass: 2
Flags: W
LayerCount: 2
Fore
SplineSet
1040 449 m 0,0,1
 1040 312 1040 312 938.5 222 c 128,-1,2
 837 132 837 132 649 109 c 1,3,-1
 649 -119 l 1,4,-1
 518 -119 l 1,5,-1
 518 100 l 1,6,7
 404 102 404 102 299.5 119.5 c 128,-1,8
 195 137 195 137 127 168 c 1,9,-1
 127 336 l 1,10,11
 202 301 202 301 310.5 275.5 c 128,-1,12
 419 250 419 250 518 248 c 1,13,-1
 518 676 l 1,14,15
 313 741 313 741 228 828.5 c 128,-1,16
 143 916 143 916 143 1053 c 0,17,18
 143 1185 143 1185 244 1270 c 128,-1,19
 345 1355 345 1355 518 1374 c 1,20,-1
 518 1554 l 1,21,-1
 649 1554 l 1,22,-1
 649 1376 l 1,23,24
 839 1371 839 1371 1010 1300 c 1,25,-1
 954 1159 l 1,26,27
 799 1220 799 1220 649 1231 c 1,28,-1
 649 809 l 1,29,30
 809 755 809 755 887.5 707 c 128,-1,31
 966 659 966 659 1003 597.5 c 128,-1,32
 1040 536 1040 536 1040 449 c 0,0,1
858 436 m 0,33,34
 858 508 858 508 811 550.5 c 128,-1,35
 764 593 764 593 649 633 c 1,36,-1
 649 258 l 1,37,38
 858 290 858 290 858 436 c 0,33,34
326 1055 m 0,39,40
 326 982 326 982 369 937 c 128,-1,41
 412 892 412 892 518 854 c 1,42,-1
 518 1227 l 1,43,44
 424 1211 424 1211 375 1166 c 128,-1,45
 326 1121 326 1121 326 1055 c 0,39,40
EndSplineSet
EndChar

StartChar: ampersand
Encoding: 38 38 7
Width: 1499
GlyphClass: 2
Flags: W
LayerCount: 2
Fore
SplineSet
422 1167 m 0,0,1
 422 1102 422 1102 457.5 1037 c 128,-1,2
 493 972 493 972 573 893 c 1,3,4
 697 962 697 962 748 1025 c 128,-1,5
 799 1088 799 1088 799 1169 c 0,6,7
 799 1245 799 1245 748 1291 c 128,-1,8
 697 1337 697 1337 616 1337 c 0,9,10
 527 1337 527 1337 474.5 1290 c 128,-1,11
 422 1243 422 1243 422 1167 c 0,0,1
575 139 m 0,12,13
 802 139 802 139 958 285 c 1,14,-1
 532 698 l 1,15,16
 394 615 394 615 345.5 547 c 128,-1,17
 297 479 297 479 297 387 c 0,18,19
 297 274 297 274 374 206.5 c 128,-1,20
 451 139 451 139 575 139 c 0,12,13
109 381 m 0,21,22
 109 511 109 511 176 609 c 128,-1,23
 243 707 243 707 424 811 c 1,24,25
 347 898 347 898 314.5 948.5 c 128,-1,26
 282 999 282 999 264 1052.5 c 128,-1,27
 246 1106 246 1106 246 1165 c 0,28,29
 246 1313 246 1313 345 1399 c 128,-1,30
 444 1485 444 1485 623 1485 c 0,31,32
 788 1485 788 1485 882.5 1401 c 128,-1,33
 977 1317 977 1317 977 1169 c 0,34,35
 977 1060 977 1060 908.5 969 c 128,-1,36
 840 878 840 878 684 786 c 1,37,-1
 1079 406 l 1,38,39
 1172 514 1172 514 1223 731 c 1,40,-1
 1405 731 l 1,41,42
 1336 446 1336 446 1196 291 c 1,43,-1
 1495 0 l 1,44,-1
 1251 0 l 1,45,-1
 1073 172 l 1,46,47
 959 70 959 70 837.5 25 c 128,-1,48
 716 -20 716 -20 569 -20 c 0,49,50
 354 -20 354 -20 231.5 85 c 128,-1,51
 109 190 109 190 109 381 c 0,21,22
EndSplineSet
EndChar

StartChar: glyph8
Encoding: 65542 -1 8
Width: 461
Flags: W
LayerCount: 2
Fore
SplineSet
328 1462 m 1,0,-1
 287 934 l 1,1,-1
 174 934 l 1,2,-1
 133 1462 l 1,3,-1
 328 1462 l 1,0,-1
EndSplineSet
EndChar

StartChar: glyph9
Encoding: 65543 -1 9
Width: 1128
Flags: W
LayerCount: 2
Fore
SplineSet
659 1556 m 1,0,-1
 618 1163 l 1,1,-1
 1012 1274 l 1,2,-1
 1040 1085 l 1,3,-1
 664 1055 l 1,4,-1
 907 731 l 1,5,-1
 731 635 l 1,6,-1
 557 993 l 1,7,-1
 399 635 l 1,8,-1
 217 731 l 1,9,-1
 457 1055 l 1,10,-1
 84 1085 l 1,11,-1
 113 1274 l 1,12,-1
 502 1163 l 1,13,-1
 459 1556 l 1,14,-1
 659 1556 l 1,0,-1
EndSplineSet
EndChar

StartChar: glyph10
Encoding: 65544 -1 10
Width: 659
Flags: W
LayerCount: 2
Fore
SplineSet
82 469 m 1,0,-1
 82 629 l 1,1,-1
 578 629 l 1,2,-1
 578 469 l 1,3,-1
 82 469 l 1,0,-1
EndSplineSet
EndChar

StartChar: glyph11
Encoding: 65545 -1 11
Width: 549
Flags: W
LayerCount: 2
Fore
SplineSet
147 111 m 256,0,1
 147 177 147 177 179.5 212.5 c 128,-1,2
 212 248 212 248 272 248 c 0,3,4
 333 248 333 248 367 212.5 c 128,-1,5
 401 177 401 177 401 111 c 0,6,7
 401 46 401 46 367 8.5 c 128,-1,8
 333 -29 333 -29 272 -29 c 0,9,10
 213 -29 213 -29 180 8 c 128,-1,11
 147 45 147 45 147 111 c 256,0,1
147 987 m 0,12,13
 147 1053 147 1053 178.5 1089.5 c 128,-1,14
 210 1126 210 1126 272 1126 c 0,15,16
 335 1126 335 1126 368 1090 c 128,-1,17
 401 1054 401 1054 401 987 c 0,18,19
 401 923 401 923 367 885.5 c 128,-1,20
 333 848 333 848 272 848 c 0,21,22
 213 848 213 848 180 885 c 128,-1,23
 147 922 147 922 147 987 c 0,12,13
EndSplineSet
EndChar

StartChar: glyph12
Encoding: 65546 -1 12
Width: 549
Flags: W
LayerCount: 2
Fore
SplineSet
360 238 m 1,0,-1
 375 215 l 1,1,2
 323 16 323 16 199 -264 c 1,3,-1
 63 -264 l 1,4,5
 90 -160 90 -160 122.5 -7 c 128,-1,6
 155 146 155 146 168 238 c 1,7,-1
 360 238 l 1,0,-1
143 987 m 0,8,9
 143 1053 143 1053 174.5 1089.5 c 128,-1,10
 206 1126 206 1126 268 1126 c 0,11,12
 397 1126 397 1126 397 987 c 0,13,14
 397 921 397 921 363 884.5 c 128,-1,15
 329 848 329 848 268 848 c 0,16,17
 209 848 209 848 176 885 c 128,-1,18
 143 922 143 922 143 987 c 0,8,9
EndSplineSet
EndChar

StartChar: glyph13
Encoding: 65547 -1 13
Width: 1171
Flags: W
LayerCount: 2
Fore
SplineSet
1067 238 m 1,0,-1
 102 662 l 1,1,-1
 102 764 l 1,2,-1
 1067 1245 l 1,3,-1
 1067 1085 l 1,4,-1
 295 721 l 1,5,-1
 1067 397 l 1,6,-1
 1067 238 l 1,0,-1
EndSplineSet
EndChar

StartChar: glyph14
Encoding: 65548 -1 14
Width: 1171
Flags: W
LayerCount: 2
Fore
SplineSet
102 397 m 1,0,-1
 874 719 l 1,1,-1
 102 1085 l 1,2,-1
 102 1245 l 1,3,-1
 1067 764 l 1,4,-1
 1067 662 l 1,5,-1
 102 238 l 1,6,-1
 102 397 l 1,0,-1
EndSplineSet
EndChar

StartChar: at
Encoding: 64 64 15
Width: 1841
GlyphClass: 2
Flags: W
LayerCount: 2
Fore
SplineSet
1722 731 m 0,0,1
 1722 591 1722 591 1677.5 473 c 128,-1,2
 1633 355 1633 355 1553 289 c 128,-1,3
 1473 223 1473 223 1368 223 c 0,4,5
 1283 223 1283 223 1225 272.5 c 128,-1,6
 1167 322 1167 322 1153 401 c 1,7,-1
 1143 401 l 1,8,9
 1104 318 1104 318 1029 270.5 c 128,-1,10
 954 223 954 223 854 223 c 0,11,12
 702 223 702 223 615 324.5 c 128,-1,13
 528 426 528 426 528 604 c 0,14,15
 528 737 528 737 581.5 842.5 c 128,-1,16
 635 948 635 948 735 1006.5 c 128,-1,17
 835 1065 835 1065 963 1065 c 0,18,19
 1032 1065 1032 1065 1120.5 1052.5 c 128,-1,20
 1209 1040 1209 1040 1276 1016 c 1,21,-1
 1253 548 l 1,22,-1
 1253 526 l 2,23,24
 1253 350 1253 350 1380 350 c 0,25,26
 1469 350 1469 350 1524 455 c 128,-1,27
 1579 560 1579 560 1579 733 c 0,28,29
 1579 912 1579 912 1505.5 1047 c 128,-1,30
 1432 1182 1432 1182 1296.5 1254.5 c 128,-1,31
 1161 1327 1161 1327 987 1327 c 0,32,33
 767 1327 767 1327 603.5 1235.5 c 128,-1,34
 440 1144 440 1144 353 974.5 c 128,-1,35
 266 805 266 805 266 580 c 0,36,37
 266 278 266 278 425 115.5 c 128,-1,38
 584 -47 584 -47 887 -47 c 0,39,40
 1099 -47 1099 -47 1327 41 c 1,41,-1
 1327 -98 l 1,42,43
 1127 -182 1127 -182 887 -182 c 0,44,45
 523 -182 523 -182 321 17.5 c 128,-1,46
 119 217 119 217 119 573 c 0,47,48
 119 832 119 832 226.5 1035.5 c 128,-1,49
 334 1239 334 1239 532 1350.5 c 128,-1,50
 730 1462 730 1462 987 1462 c 0,51,52
 1202 1462 1202 1462 1370.5 1371 c 128,-1,53
 1539 1280 1539 1280 1630.5 1113 c 128,-1,54
 1722 946 1722 946 1722 731 c 0,0,1
688 600 m 0,55,56
 688 350 688 350 881 350 c 0,57,58
 1086 350 1086 350 1104 659 c 2,59,-1
 1116 915 l 1,60,61
 1043 936 1043 936 965 936 c 0,62,63
 836 936 836 936 762 847 c 128,-1,64
 688 758 688 758 688 600 c 0,55,56
EndSplineSet
EndChar

StartChar: A
Encoding: 65 65 16
Width: 1309
GlyphClass: 2
Flags: W
AnchorPoint: "Anchor-11" 1307 0 basechar 0
AnchorPoint: "Anchor-10" 654 0 basechar 0
AnchorPoint: "Anchor-9" 0 1840 basechar 0
AnchorPoint: "Anchor-8" 1309 1840 basechar 0
AnchorPoint: "Anchor-7" 1309 -380 basechar 0
AnchorPoint: "Anchor-6" 1309 1540 basechar 0
AnchorPoint: "Anchor-5" 733 1468 basechar 0
AnchorPoint: "Anchor-4" 737 1468 basechar 0
AnchorPoint: "Anchor-2" 654 0 basechar 0
AnchorPoint: "Anchor-1" 1000 1540 basechar 0
AnchorPoint: "Anchor-0" 654 1540 basechar 0
LayerCount: 2
Fore
SplineSet
1116 0 m 1,0,-1
 940 453 l 1,1,-1
 360 453 l 1,2,-1
 186 0 l 1,3,-1
 0 0 l 1,4,-1
 571 1468 l 1,5,-1
 737 1468 l 1,6,-1
 1307 0 l 1,7,-1
 1116 0 l 1,0,-1
885 616 m 1,8,-1
 721 1059 l 1,9,-1
 651 1278 l 1,10,11
 621 1158 621 1158 588 1059 c 2,12,-1
 422 616 l 1,13,-1
 885 616 l 1,8,-1
EndSplineSet
EndChar

StartChar: B
Encoding: 66 66 17
Width: 1331
GlyphClass: 2
Flags: W
AnchorPoint: "Anchor-11" 760 0 basechar 0
AnchorPoint: "Anchor-9" 0 1840 basechar 0
AnchorPoint: "Anchor-8" 1331 1840 basechar 0
AnchorPoint: "Anchor-7" 1331 -380 basechar 0
AnchorPoint: "Anchor-6" 1331 1540 basechar 0
AnchorPoint: "Anchor-5" 1000 1400 basechar 0
AnchorPoint: "Anchor-4" 1120 1150 basechar 0
AnchorPoint: "Anchor-2" 640 0 basechar 0
AnchorPoint: "Anchor-1" 1100 1540 basechar 0
AnchorPoint: "Anchor-0" 640 1540 basechar 0
LayerCount: 2
Fore
SplineSet
199 1462 m 1,0,-1
 616 1462 l 2,1,2
 910 1462 910 1462 1040.5 1374.5 c 128,-1,3
 1171 1287 1171 1287 1171 1100 c 0,4,5
 1171 970 1171 970 1100 885.5 c 128,-1,6
 1029 801 1029 801 893 776 c 1,7,-1
 893 766 l 1,8,9
 1062 737 1062 737 1141.5 649 c 128,-1,10
 1221 561 1221 561 1221 416 c 0,11,12
 1221 220 1221 220 1087 110 c 128,-1,13
 953 0 953 0 713 0 c 2,14,-1
 199 0 l 1,15,-1
 199 1462 l 1,0,-1
383 840 m 1,16,-1
 653 840 l 2,17,18
 825 840 825 840 903 895 c 128,-1,19
 981 950 981 950 981 1079 c 0,20,21
 981 1199 981 1199 895.5 1252 c 128,-1,22
 810 1305 810 1305 625 1305 c 2,23,-1
 383 1305 l 1,24,-1
 383 840 l 1,16,-1
383 686 m 1,25,-1
 383 156 l 1,26,-1
 678 156 l 2,27,28
 854 156 854 156 939 224 c 128,-1,29
 1024 292 1024 292 1024 430 c 0,30,31
 1024 561 1024 561 934 623.5 c 128,-1,32
 844 686 844 686 664 686 c 2,33,-1
 383 686 l 1,25,-1
EndSplineSet
EndChar

StartChar: C
Encoding: 67 67 18
Width: 1294
GlyphClass: 2
Flags: W
AnchorPoint: "Anchor-11" 890 0 basechar 0
AnchorPoint: "Anchor-10" 706 0 basechar 0
AnchorPoint: "Anchor-9" 0 1840 basechar 0
AnchorPoint: "Anchor-8" 1294 1840 basechar 0
AnchorPoint: "Anchor-7" 1294 -380 basechar 0
AnchorPoint: "Anchor-6" 1294 1540 basechar 0
AnchorPoint: "Anchor-5" 1150 1410 basechar 0
AnchorPoint: "Anchor-4" 1124 1397 basechar 0
AnchorPoint: "Anchor-2" 780 0 basechar 0
AnchorPoint: "Anchor-1" 1200 1540 basechar 0
AnchorPoint: "Anchor-0" 780 1540 basechar 0
LayerCount: 2
Fore
SplineSet
825 1321 m 0,0,1
 589 1321 589 1321 454 1163 c 128,-1,2
 319 1005 319 1005 319 731 c 0,3,4
 319 448 319 448 450 294.5 c 128,-1,5
 581 141 581 141 823 141 c 0,6,7
 979 141 979 141 1174 199 c 1,8,-1
 1174 39 l 1,9,10
 1081 5 1081 5 995 -7.5 c 128,-1,11
 909 -20 909 -20 797 -20 c 0,12,13
 474 -20 474 -20 299.5 176.5 c 128,-1,14
 125 373 125 373 125 733 c 0,15,16
 125 959 125 959 208.5 1129 c 128,-1,17
 292 1299 292 1299 451.5 1391 c 128,-1,18
 611 1483 611 1483 827 1483 c 0,19,20
 1059 1483 1059 1483 1231 1397 c 1,21,-1
 1157 1241 l 1,22,23
 982 1321 982 1321 825 1321 c 0,0,1
EndSplineSet
EndChar

StartChar: D
Encoding: 68 68 19
Width: 1495
GlyphClass: 2
Flags: W
AnchorPoint: "Anchor-11" 670 0 basechar 0
AnchorPoint: "Anchor-9" 0 1840 basechar 0
AnchorPoint: "Anchor-8" 1495 1840 basechar 0
AnchorPoint: "Anchor-7" 1495 -380 basechar 0
AnchorPoint: "Anchor-6" 1495 1540 basechar 0
AnchorPoint: "Anchor-5" 968 1400 basechar 0
AnchorPoint: "Anchor-4" 1261 1150 basechar 0
AnchorPoint: "Anchor-2" 680 0 basechar 0
AnchorPoint: "Anchor-1" 1260 1540 basechar 0
AnchorPoint: "Anchor-0" 680 1540 basechar 0
LayerCount: 2
Fore
SplineSet
1370 745 m 0,0,1
 1370 383 1370 383 1172.5 191.5 c 128,-1,2
 975 0 975 0 606 0 c 2,3,-1
 199 0 l 1,4,-1
 199 1462 l 1,5,-1
 649 1462 l 2,6,7
 990 1462 990 1462 1180 1274.5 c 128,-1,8
 1370 1087 1370 1087 1370 745 c 0,0,1
1176 739 m 0,9,10
 1176 1018 1176 1018 1038.5 1161.5 c 128,-1,11
 901 1305 901 1305 623 1305 c 2,12,-1
 383 1305 l 1,13,-1
 383 158 l 1,14,-1
 582 158 l 2,15,16
 1176 158 1176 158 1176 739 c 0,9,10
EndSplineSet
EndChar

StartChar: E
Encoding: 69 69 20
Width: 1139
GlyphClass: 2
Flags: W
AnchorPoint: "Anchor-11" 940 0 basechar 0
AnchorPoint: "Anchor-10" 600 0 basechar 0
AnchorPoint: "Anchor-9" 0 1840 basechar 0
AnchorPoint: "Anchor-8" 1139 1840 basechar 0
AnchorPoint: "Anchor-7" 1139 -380 basechar 0
AnchorPoint: "Anchor-6" 1139 1540 basechar 0
AnchorPoint: "Anchor-5" 1012 1462 basechar 0
AnchorPoint: "Anchor-4" 979 1462 basechar 0
AnchorPoint: "Anchor-2" 600 0 basechar 0
AnchorPoint: "Anchor-1" 1000 1540 basechar 0
AnchorPoint: "Anchor-0" 600 1540 basechar 0
LayerCount: 2
Fore
SplineSet
1016 0 m 1,0,-1
 199 0 l 1,1,-1
 199 1462 l 1,2,-1
 1016 1462 l 1,3,-1
 1016 1300 l 1,4,-1
 383 1300 l 1,5,-1
 383 844 l 1,6,-1
 979 844 l 1,7,-1
 979 684 l 1,8,-1
 383 684 l 1,9,-1
 383 162 l 1,10,-1
 1016 162 l 1,11,-1
 1016 0 l 1,0,-1
EndSplineSet
EndChar

StartChar: F
Encoding: 70 70 21
Width: 1063
GlyphClass: 2
Flags: W
AnchorPoint: "Anchor-11" 383 0 basechar 0
AnchorPoint: "Anchor-9" 0 1840 basechar 0
AnchorPoint: "Anchor-8" 1063 1840 basechar 0
AnchorPoint: "Anchor-7" 1063 -380 basechar 0
AnchorPoint: "Anchor-6" 1063 1540 basechar 0
AnchorPoint: "Anchor-5" 1012 1462 basechar 0
AnchorPoint: "Anchor-4" 979 1462 basechar 0
AnchorPoint: "Anchor-2" 600 0 basechar 0
AnchorPoint: "Anchor-1" 1000 1540 basechar 0
AnchorPoint: "Anchor-0" 600 1540 basechar 0
LayerCount: 2
Fore
SplineSet
383 0 m 1,0,-1
 199 0 l 1,1,-1
 199 1462 l 1,2,-1
 1016 1462 l 1,3,-1
 1016 1300 l 1,4,-1
 383 1300 l 1,5,-1
 383 782 l 1,6,-1
 977 782 l 1,7,-1
 977 621 l 1,8,-1
 383 621 l 1,9,-1
 383 0 l 1,0,-1
EndSplineSet
EndChar

StartChar: G
Encoding: 71 71 22
Width: 1491
GlyphClass: 2
Flags: W
AnchorPoint: "Anchor-11" 960 0 basechar 0
AnchorPoint: "Anchor-10" 800 0 basechar 0
AnchorPoint: "Anchor-9" 0 1840 basechar 0
AnchorPoint: "Anchor-8" 1491 1840 basechar 0
AnchorPoint: "Anchor-7" 1491 -380 basechar 0
AnchorPoint: "Anchor-6" 1491 1540 basechar 0
AnchorPoint: "Anchor-5" 1240 1410 basechar 0
AnchorPoint: "Anchor-4" 1212 1397 basechar 0
AnchorPoint: "Anchor-2" 820 0 basechar 0
AnchorPoint: "Anchor-1" 1280 1540 basechar 0
AnchorPoint: "Anchor-0" 820 1540 basechar 0
LayerCount: 2
Fore
SplineSet
834 772 m 1,0,-1
 1339 772 l 1,1,-1
 1339 55 l 1,2,3
 1223 18 1223 18 1103 -1 c 128,-1,4
 983 -20 983 -20 825 -20 c 0,5,6
 491 -20 491 -20 308 178 c 128,-1,7
 125 376 125 376 125 731 c 0,8,9
 125 960 125 960 216 1131 c 128,-1,10
 307 1302 307 1302 478.5 1392.5 c 128,-1,11
 650 1483 650 1483 883 1483 c 0,12,13
 1117 1483 1117 1483 1319 1397 c 1,14,-1
 1249 1237 l 1,15,16
 1056 1321 1056 1321 872 1321 c 0,17,18
 611 1321 611 1321 464 1163 c 128,-1,19
 317 1005 317 1005 317 731 c 0,20,21
 317 441 317 441 458 290 c 128,-1,22
 599 139 599 139 868 139 c 0,23,24
 1015 139 1015 139 1155 174 c 1,25,-1
 1155 608 l 1,26,-1
 834 608 l 1,27,-1
 834 772 l 1,0,-1
EndSplineSet
EndChar

StartChar: H
Encoding: 72 72 23
Width: 1518
GlyphClass: 2
Flags: W
AnchorPoint: "Anchor-11" 1317 0 basechar 0
AnchorPoint: "Anchor-9" 0 1840 basechar 0
AnchorPoint: "Anchor-8" 1518 1840 basechar 0
AnchorPoint: "Anchor-7" 1518 -380 basechar 0
AnchorPoint: "Anchor-6" 1518 1540 basechar 0
AnchorPoint: "Anchor-5" 1313 1462 basechar 0
AnchorPoint: "Anchor-4" 1242 1462 basechar 0
AnchorPoint: "Anchor-2" 759 0 basechar 0
AnchorPoint: "Anchor-1" 1300 1540 basechar 0
AnchorPoint: "Anchor-0" 759 1540 basechar 0
LayerCount: 2
Fore
SplineSet
1317 0 m 1,0,-1
 1133 0 l 1,1,-1
 1133 682 l 1,2,-1
 383 682 l 1,3,-1
 383 0 l 1,4,-1
 199 0 l 1,5,-1
 199 1462 l 1,6,-1
 383 1462 l 1,7,-1
 383 844 l 1,8,-1
 1133 844 l 1,9,-1
 1133 1462 l 1,10,-1
 1317 1462 l 1,11,-1
 1317 0 l 1,0,-1
EndSplineSet
EndChar

StartChar: I
Encoding: 73 73 24
Width: 694
GlyphClass: 2
Flags: W
AnchorPoint: "Anchor-11" 438 0 basechar 0
AnchorPoint: "Anchor-10" 300 0 basechar 0
AnchorPoint: "Anchor-9" 0 1840 basechar 0
AnchorPoint: "Anchor-8" 694 1840 basechar 0
AnchorPoint: "Anchor-7" 694 -380 basechar 0
AnchorPoint: "Anchor-6" 694 1540 basechar 0
AnchorPoint: "Anchor-5" 480 1462 basechar 0
AnchorPoint: "Anchor-4" 480 1462 basechar 0
AnchorPoint: "Anchor-2" 347 0 basechar 0
AnchorPoint: "Anchor-1" 600 1540 basechar 0
AnchorPoint: "Anchor-0" 347 1540 basechar 0
LayerCount: 2
Fore
SplineSet
610 0 m 1,0,-1
 82 0 l 1,1,-1
 82 106 l 1,2,-1
 254 145 l 1,3,-1
 254 1315 l 1,4,-1
 82 1356 l 1,5,-1
 82 1462 l 1,6,-1
 610 1462 l 1,7,-1
 610 1356 l 1,8,-1
 438 1315 l 1,9,-1
 438 145 l 1,10,-1
 610 106 l 1,11,-1
 610 0 l 1,0,-1
EndSplineSet
EndChar

StartChar: J
Encoding: 74 74 25
Width: 559
GlyphClass: 2
Flags: W
AnchorPoint: "Anchor-11" 150 -340 basechar 0
AnchorPoint: "Anchor-9" 0 1840 basechar 0
AnchorPoint: "Anchor-8" 559 1840 basechar 0
AnchorPoint: "Anchor-7" 559 -380 basechar 0
AnchorPoint: "Anchor-6" 559 1540 basechar 0
AnchorPoint: "Anchor-5" 369 1462 basechar 0
AnchorPoint: "Anchor-4" 340 1462 basechar 0
AnchorPoint: "Anchor-2" 280 -442 basechar 0
AnchorPoint: "Anchor-1" 380 1540 basechar 0
AnchorPoint: "Anchor-0" 280 1540 basechar 0
LayerCount: 2
Fore
SplineSet
-8 -389 m 0,0,1
 -102 -389 -102 -389 -160 -362 c 1,2,-1
 -160 -207 l 1,3,4
 -89 -227 -89 -227 -12 -227 c 0,5,6
 88 -227 88 -227 138 -166.5 c 128,-1,7
 188 -106 188 -106 188 8 c 2,8,-1
 188 1462 l 1,9,-1
 373 1462 l 1,10,-1
 373 23 l 2,11,12
 373 -175 373 -175 274.5 -282 c 128,-1,13
 176 -389 176 -389 -8 -389 c 0,0,1
EndSplineSet
EndChar

StartChar: K
Encoding: 75 75 26
Width: 1268
GlyphClass: 2
Flags: W
AnchorPoint: "Anchor-11" 1268 0 basechar 0
AnchorPoint: "Anchor-10" 660 0 basechar 0
AnchorPoint: "Anchor-9" 0 1840 basechar 0
AnchorPoint: "Anchor-8" 1268 1840 basechar 0
AnchorPoint: "Anchor-7" 1268 -380 basechar 0
AnchorPoint: "Anchor-6" 1268 1540 basechar 0
AnchorPoint: "Anchor-5" 1100 1462 basechar 0
AnchorPoint: "Anchor-4" 1030 1462 basechar 0
AnchorPoint: "Anchor-2" 690 0 basechar 0
AnchorPoint: "Anchor-1" 1200 1540 basechar 0
AnchorPoint: "Anchor-0" 690 1540 basechar 0
LayerCount: 2
Fore
SplineSet
1268 0 m 1,0,-1
 1051 0 l 1,1,-1
 532 698 l 1,2,-1
 383 567 l 1,3,-1
 383 0 l 1,4,-1
 199 0 l 1,5,-1
 199 1462 l 1,6,-1
 383 1462 l 1,7,-1
 383 741 l 1,8,-1
 509 880 l 1,9,-1
 1030 1462 l 1,10,-1
 1245 1462 l 1,11,-1
 666 825 l 1,12,-1
 1268 0 l 1,0,-1
EndSplineSet
EndChar

StartChar: L
Encoding: 76 76 27
Width: 1073
GlyphClass: 2
Flags: W
AnchorPoint: "Anchor-11" 940 0 basechar 0
AnchorPoint: "Anchor-10" 580 0 basechar 0
AnchorPoint: "Anchor-9" 0 1840 basechar 0
AnchorPoint: "Anchor-8" 1073 1840 basechar 0
AnchorPoint: "Anchor-7" 1073 -380 basechar 0
AnchorPoint: "Anchor-6" 1073 1540 basechar 0
AnchorPoint: "Anchor-5" 379 1462 basechar 0
AnchorPoint: "Anchor-4" 343 1462 basechar 0
AnchorPoint: "Anchor-2" 580 0 basechar 0
AnchorPoint: "Anchor-1" 900 1540 basechar 0
AnchorPoint: "Anchor-0" 580 1540 basechar 0
LayerCount: 2
Fore
SplineSet
199 0 m 1,0,-1
 199 1462 l 1,1,-1
 383 1462 l 1,2,-1
 383 164 l 1,3,-1
 1022 164 l 1,4,-1
 1022 0 l 1,5,-1
 199 0 l 1,0,-1
EndSplineSet
EndChar

StartChar: M
Encoding: 77 77 28
Width: 1858
GlyphClass: 2
Flags: W
AnchorPoint: "Anchor-11" 1659 0 basechar 0
AnchorPoint: "Anchor-9" 0 1840 basechar 0
AnchorPoint: "Anchor-8" 1858 1840 basechar 0
AnchorPoint: "Anchor-7" 1858 -380 basechar 0
AnchorPoint: "Anchor-6" 1858 1540 basechar 0
AnchorPoint: "Anchor-5" 1655 1462 basechar 0
AnchorPoint: "Anchor-4" 1619 1462 basechar 0
AnchorPoint: "Anchor-2" 929 0 basechar 0
AnchorPoint: "Anchor-1" 1660 1540 basechar 0
AnchorPoint: "Anchor-0" 929 1540 basechar 0
LayerCount: 2
Fore
SplineSet
844 0 m 1,0,-1
 362 1282 l 1,1,-1
 354 1282 l 1,2,3
 369 1122 369 1122 369 887 c 2,4,-1
 369 0 l 1,5,-1
 199 0 l 1,6,-1
 199 1462 l 1,7,-1
 471 1462 l 1,8,-1
 922 264 l 1,9,-1
 930 264 l 1,10,-1
 1389 1462 l 1,11,-1
 1659 1462 l 1,12,-1
 1659 0 l 1,13,-1
 1477 0 l 1,14,-1
 1477 899 l 2,15,16
 1477 1049 1477 1049 1491 1280 c 1,17,-1
 1483 1280 l 1,18,-1
 995 0 l 1,19,-1
 844 0 l 1,0,-1
EndSplineSet
EndChar

StartChar: N
Encoding: 78 78 29
Width: 1556
GlyphClass: 2
Flags: W
AnchorPoint: "Anchor-11" 1358 0 basechar 0
AnchorPoint: "Anchor-10" 740 0 basechar 0
AnchorPoint: "Anchor-9" 0 1840 basechar 0
AnchorPoint: "Anchor-8" 1556 1840 basechar 0
AnchorPoint: "Anchor-7" 1556 -380 basechar 0
AnchorPoint: "Anchor-6" 1556 1540 basechar 0
AnchorPoint: "Anchor-5" 1354 1462 basechar 0
AnchorPoint: "Anchor-4" 1318 1462 basechar 0
AnchorPoint: "Anchor-2" 778 0 basechar 0
AnchorPoint: "Anchor-1" 1360 1540 basechar 0
AnchorPoint: "Anchor-0" 778 1540 basechar 0
LayerCount: 2
Fore
SplineSet
1358 0 m 1,0,-1
 1143 0 l 1,1,-1
 360 1214 l 1,2,-1
 352 1214 l 1,3,-1
 357 1133 l 2,4,5
 369 951 369 951 369 817 c 2,6,-1
 369 0 l 1,7,-1
 199 0 l 1,8,-1
 199 1462 l 1,9,-1
 412 1462 l 1,10,-1
 457 1391 l 1,11,-1
 937 649 l 1,12,-1
 1192 252 l 1,13,-1
 1200 252 l 1,14,15
 1198 276 1198 276 1192 423.5 c 128,-1,16
 1186 571 1186 571 1186 637 c 2,17,-1
 1186 1462 l 1,18,-1
 1358 1462 l 1,19,-1
 1358 0 l 1,0,-1
EndSplineSet
EndChar

StartChar: O
Encoding: 79 79 30
Width: 1599
GlyphClass: 2
Flags: W
AnchorPoint: "Anchor-11" 920 0 basechar 0
AnchorPoint: "Anchor-10" 780 0 basechar 0
AnchorPoint: "Anchor-9" 0 1840 basechar 0
AnchorPoint: "Anchor-8" 1599 1840 basechar 0
AnchorPoint: "Anchor-7" 1599 -380 basechar 0
AnchorPoint: "Anchor-6" 1599 1540 basechar 0
AnchorPoint: "Anchor-5" 1144 1380 basechar 0
AnchorPoint: "Anchor-4" 1390 1150 basechar 0
AnchorPoint: "Anchor-2" 800 0 basechar 0
AnchorPoint: "Anchor-1" 1340 1540 basechar 0
AnchorPoint: "Anchor-0" 800 1540 basechar 0
LayerCount: 2
Fore
SplineSet
1475 733 m 0,0,1
 1475 382 1475 382 1297.5 181 c 128,-1,2
 1120 -20 1120 -20 801 -20 c 0,3,4
 478 -20 478 -20 301.5 177.5 c 128,-1,5
 125 375 125 375 125 735 c 0,6,7
 125 1092 125 1092 300.5 1288.5 c 128,-1,8
 476 1485 476 1485 803 1485 c 0,9,10
 1121 1485 1121 1485 1298 1285.5 c 128,-1,11
 1475 1086 1475 1086 1475 733 c 0,0,1
319 733 m 0,12,13
 319 443 319 443 442 291 c 128,-1,14
 565 139 565 139 801 139 c 0,15,16
 1036 139 1036 139 1158 289 c 128,-1,17
 1280 439 1280 439 1280 733 c 0,18,19
 1280 1026 1280 1026 1159 1174.5 c 128,-1,20
 1038 1323 1038 1323 803 1323 c 0,21,22
 565 1323 565 1323 442 1172.5 c 128,-1,23
 319 1022 319 1022 319 733 c 0,12,13
EndSplineSet
EndChar

StartChar: P
Encoding: 80 80 31
Width: 1239
GlyphClass: 2
Flags: W
AnchorPoint: "Anchor-11" 383 0 basechar 0
AnchorPoint: "Anchor-9" 0 1840 basechar 0
AnchorPoint: "Anchor-8" 1239 1840 basechar 0
AnchorPoint: "Anchor-7" 1239 -380 basechar 0
AnchorPoint: "Anchor-6" 1239 1540 basechar 0
AnchorPoint: "Anchor-5" 920 1400 basechar 0
AnchorPoint: "Anchor-4" 1090 1150 basechar 0
AnchorPoint: "Anchor-2" 620 0 basechar 0
AnchorPoint: "Anchor-1" 1100 1540 basechar 0
AnchorPoint: "Anchor-0" 620 1540 basechar 0
LayerCount: 2
Fore
SplineSet
1135 1032 m 0,0,1
 1135 808 1135 808 982 688.5 c 128,-1,2
 829 569 829 569 551 569 c 2,3,-1
 383 569 l 1,4,-1
 383 0 l 1,5,-1
 199 0 l 1,6,-1
 199 1462 l 1,7,-1
 586 1462 l 2,8,9
 1135 1462 1135 1462 1135 1032 c 0,0,1
383 727 m 1,10,-1
 530 727 l 2,11,12
 748 727 748 727 846 797.5 c 128,-1,13
 944 868 944 868 944 1024 c 0,14,15
 944 1165 944 1165 853 1235 c 128,-1,16
 762 1305 762 1305 569 1305 c 2,17,-1
 383 1305 l 1,18,-1
 383 727 l 1,10,-1
EndSplineSet
EndChar

StartChar: Q
Encoding: 81 81 32
Width: 1599
GlyphClass: 2
Flags: W
AnchorPoint: "Anchor-11" 820 0 basechar 0
AnchorPoint: "Anchor-9" 0 1840 basechar 0
AnchorPoint: "Anchor-8" 1599 1840 basechar 0
AnchorPoint: "Anchor-7" 1599 -380 basechar 0
AnchorPoint: "Anchor-6" 1599 1540 basechar 0
AnchorPoint: "Anchor-5" 1144 1380 basechar 0
AnchorPoint: "Anchor-4" 1390 1150 basechar 0
AnchorPoint: "Anchor-2" 650 -120 basechar 0
AnchorPoint: "Anchor-1" 1340 1540 basechar 0
AnchorPoint: "Anchor-0" 800 1540 basechar 0
LayerCount: 2
Fore
SplineSet
1475 733 m 0,0,1
 1475 456 1475 456 1364 271 c 128,-1,2
 1253 86 1253 86 1049 16 c 1,3,-1
 1399 -348 l 1,4,-1
 1135 -348 l 1,5,-1
 852 -18 l 1,6,-1
 801 -20 l 1,7,8
 478 -20 478 -20 301.5 177.5 c 128,-1,9
 125 375 125 375 125 735 c 0,10,11
 125 1092 125 1092 300.5 1288.5 c 128,-1,12
 476 1485 476 1485 803 1485 c 0,13,14
 1121 1485 1121 1485 1298 1285.5 c 128,-1,15
 1475 1086 1475 1086 1475 733 c 0,0,1
319 733 m 0,16,17
 319 443 319 443 442 291 c 128,-1,18
 565 139 565 139 801 139 c 0,19,20
 1036 139 1036 139 1158 289 c 128,-1,21
 1280 439 1280 439 1280 733 c 0,22,23
 1280 1026 1280 1026 1159 1174.5 c 128,-1,24
 1038 1323 1038 1323 803 1323 c 0,25,26
 565 1323 565 1323 442 1172.5 c 128,-1,27
 319 1022 319 1022 319 733 c 0,16,17
EndSplineSet
EndChar

StartChar: R
Encoding: 82 82 33
Width: 1274
GlyphClass: 2
Flags: W
AnchorPoint: "Anchor-11" 1180 0 basechar 0
AnchorPoint: "Anchor-10" 660 0 basechar 0
AnchorPoint: "Anchor-9" 0 1840 basechar 0
AnchorPoint: "Anchor-8" 1274 1840 basechar 0
AnchorPoint: "Anchor-7" 1274 -380 basechar 0
AnchorPoint: "Anchor-6" 1274 1540 basechar 0
AnchorPoint: "Anchor-5" 920 1400 basechar 0
AnchorPoint: "Anchor-4" 1090 1150 basechar 0
AnchorPoint: "Anchor-2" 660 0 basechar 0
AnchorPoint: "Anchor-1" 1100 1540 basechar 0
AnchorPoint: "Anchor-0" 660 1540 basechar 0
LayerCount: 2
Fore
SplineSet
383 760 m 1,0,-1
 602 760 l 2,1,2
 780 760 780 760 862 830 c 128,-1,3
 944 900 944 900 944 1038 c 256,4,5
 944 1176 944 1176 861 1239.5 c 128,-1,6
 778 1303 778 1303 592 1303 c 2,7,-1
 383 1303 l 1,8,-1
 383 760 l 1,0,-1
383 604 m 1,9,-1
 383 0 l 1,10,-1
 199 0 l 1,11,-1
 199 1462 l 1,12,-1
 602 1462 l 2,13,14
 874 1462 874 1462 1004.5 1358.5 c 128,-1,15
 1135 1255 1135 1255 1135 1047 c 0,16,17
 1135 756 1135 756 842 655 c 1,18,-1
 1243 0 l 1,19,-1
 1028 0 l 1,20,-1
 674 604 l 1,21,-1
 383 604 l 1,9,-1
EndSplineSet
EndChar

StartChar: S
Encoding: 83 83 34
Width: 1124
GlyphClass: 2
Flags: W
AnchorPoint: "Anchor-11" 660 0 basechar 0
AnchorPoint: "Anchor-10" 520 0 basechar 0
AnchorPoint: "Anchor-9" 0 1840 basechar 0
AnchorPoint: "Anchor-8" 1124 1840 basechar 0
AnchorPoint: "Anchor-7" 1124 -380 basechar 0
AnchorPoint: "Anchor-6" 1124 1540 basechar 0
AnchorPoint: "Anchor-5" 936 1401 basechar 0
AnchorPoint: "Anchor-4" 900 1400 basechar 0
AnchorPoint: "Anchor-2" 580 0 basechar 0
AnchorPoint: "Anchor-1" 1000 1540 basechar 0
AnchorPoint: "Anchor-0" 580 1540 basechar 0
LayerCount: 2
Fore
SplineSet
1028 391 m 0,0,1
 1028 200 1028 200 890 90 c 128,-1,2
 752 -20 752 -20 506 -20 c 0,3,4
 246 -20 246 -20 104 49 c 1,5,-1
 104 225 l 1,6,7
 197 185 197 185 307.5 162 c 128,-1,8
 418 139 418 139 514 139 c 0,9,10
 678 139 678 139 761 202 c 128,-1,11
 844 265 844 265 844 375 c 0,12,13
 844 448 844 448 814 495 c 128,-1,14
 784 542 784 542 713.5 583 c 128,-1,15
 643 624 643 624 500 676 c 0,16,17
 297 750 297 750 210 850.5 c 128,-1,18
 123 951 123 951 123 1110 c 0,19,20
 123 1281 123 1281 251.5 1382 c 128,-1,21
 380 1483 380 1483 590 1483 c 0,22,23
 809 1483 809 1483 993 1401 c 1,24,-1
 936 1243 l 1,25,26
 748 1321 748 1321 586 1321 c 0,27,28
 456 1321 456 1321 382.5 1265 c 128,-1,29
 309 1209 309 1209 309 1108 c 0,30,31
 309 1036 309 1036 337.5 988.5 c 128,-1,32
 366 941 366 941 429.5 902 c 128,-1,33
 493 863 493 863 629 813 c 0,34,35
 792 753 792 753 872 696.5 c 128,-1,36
 952 640 952 640 990 566.5 c 128,-1,37
 1028 493 1028 493 1028 391 c 0,0,1
EndSplineSet
EndChar

StartChar: T
Encoding: 84 84 35
Width: 1139
GlyphClass: 2
Flags: W
AnchorPoint: "Anchor-11" 662 0 basechar 0
AnchorPoint: "Anchor-10" 500 0 basechar 0
AnchorPoint: "Anchor-9" 0 1840 basechar 0
AnchorPoint: "Anchor-8" 1139 1840 basechar 0
AnchorPoint: "Anchor-7" 1139 -380 basechar 0
AnchorPoint: "Anchor-6" 1139 1540 basechar 0
AnchorPoint: "Anchor-5" 1112 1462 basechar 0
AnchorPoint: "Anchor-4" 1086 1462 basechar 0
AnchorPoint: "Anchor-2" 570 0 basechar 0
AnchorPoint: "Anchor-1" 1100 1540 basechar 0
AnchorPoint: "Anchor-0" 570 1540 basechar 0
LayerCount: 2
Fore
SplineSet
662 0 m 1,0,-1
 477 0 l 1,1,-1
 477 1300 l 1,2,-1
 20 1300 l 1,3,-1
 20 1462 l 1,4,-1
 1116 1462 l 1,5,-1
 1116 1300 l 1,6,-1
 662 1300 l 1,7,-1
 662 0 l 1,0,-1
EndSplineSet
EndChar

StartChar: U
Encoding: 85 85 36
Width: 1497
GlyphClass: 2
Flags: W
AnchorPoint: "Anchor-11" 850 0 basechar 0
AnchorPoint: "Anchor-10" 730 0 basechar 0
AnchorPoint: "Anchor-9" 0 1840 basechar 0
AnchorPoint: "Anchor-8" 1497 1840 basechar 0
AnchorPoint: "Anchor-7" 1497 -380 basechar 0
AnchorPoint: "Anchor-6" 1497 1540 basechar 0
AnchorPoint: "Anchor-5" 1307 1462 basechar 0
AnchorPoint: "Anchor-4" 1270 1462 basechar 0
AnchorPoint: "Anchor-2" 749 0 basechar 0
AnchorPoint: "Anchor-1" 1300 1540 basechar 0
AnchorPoint: "Anchor-0" 749 1540 basechar 0
LayerCount: 2
Fore
SplineSet
1311 1462 m 1,0,-1
 1311 516 l 2,1,2
 1311 266 1311 266 1160 123 c 128,-1,3
 1009 -20 1009 -20 741 -20 c 0,4,5
 476 -20 476 -20 330 124.5 c 128,-1,6
 184 269 184 269 184 520 c 2,7,-1
 184 1462 l 1,8,-1
 369 1462 l 1,9,-1
 369 514 l 2,10,11
 369 335 369 335 464.5 237 c 128,-1,12
 560 139 560 139 752 139 c 0,13,14
 933 139 933 139 1030.5 236 c 128,-1,15
 1128 333 1128 333 1128 516 c 2,16,-1
 1128 1462 l 1,17,-1
 1311 1462 l 1,0,-1
EndSplineSet
EndChar

StartChar: V
Encoding: 86 86 37
Width: 1229
GlyphClass: 2
Flags: W
AnchorPoint: "Anchor-11" 700 0 basechar 0
AnchorPoint: "Anchor-9" 0 1840 basechar 0
AnchorPoint: "Anchor-8" 1229 1840 basechar 0
AnchorPoint: "Anchor-7" 1229 -380 basechar 0
AnchorPoint: "Anchor-6" 1229 1540 basechar 0
AnchorPoint: "Anchor-5" 1160 1462 basechar 0
AnchorPoint: "Anchor-4" 1150 1462 basechar 0
AnchorPoint: "Anchor-2" 615 0 basechar 0
AnchorPoint: "Anchor-1" 1200 1540 basechar 0
AnchorPoint: "Anchor-0" 615 1540 basechar 0
LayerCount: 2
Fore
SplineSet
0 1462 m 1,0,-1
 193 1462 l 1,1,-1
 522 524 l 2,2,3
 585 346 585 346 614 205 c 1,4,5
 639 331 639 331 707 528 c 2,6,-1
 1034 1462 l 1,7,-1
 1229 1462 l 1,8,-1
 707 0 l 1,9,-1
 522 0 l 1,10,-1
 0 1462 l 1,0,-1
EndSplineSet
EndChar

StartChar: W
Encoding: 87 87 38
Width: 1905
GlyphClass: 2
Flags: W
AnchorPoint: "Anchor-11" 1480 0 basechar 0
AnchorPoint: "Anchor-9" 0 1840 basechar 0
AnchorPoint: "Anchor-8" 1905 1840 basechar 0
AnchorPoint: "Anchor-7" 1905 -380 basechar 0
AnchorPoint: "Anchor-6" 1905 1540 basechar 0
AnchorPoint: "Anchor-5" 1810 1462 basechar 0
AnchorPoint: "Anchor-4" 1780 1462 basechar 0
AnchorPoint: "Anchor-2" 953 0 basechar 0
AnchorPoint: "Anchor-1" 1850 1540 basechar 0
AnchorPoint: "Anchor-0" 953 1540 basechar 0
LayerCount: 2
Fore
SplineSet
1489 0 m 1,0,-1
 1303 0 l 1,1,-1
 1018 958 l 2,2,3
 955 1172 955 1172 944 1247 c 1,4,5
 928 1132 928 1132 874 952 c 2,6,-1
 598 0 l 1,7,-1
 412 0 l 1,8,-1
 25 1462 l 1,9,-1
 217 1462 l 1,10,-1
 444 569 l 2,11,12
 490 394 490 394 514 221 c 1,13,14
 536 385 536 385 592 580 c 2,15,-1
 850 1462 l 1,16,-1
 1040 1462 l 1,17,-1
 1309 573 l 2,18,19
 1361 400 1361 400 1389 221 c 1,20,21
 1405 359 1405 359 1460 571 c 2,22,-1
 1686 1462 l 1,23,-1
 1878 1462 l 1,24,-1
 1489 0 l 1,0,-1
EndSplineSet
EndChar

StartChar: X
Encoding: 88 88 39
Width: 1200
GlyphClass: 2
Flags: W
AnchorPoint: "Anchor-11" 1130 0 basechar 0
AnchorPoint: "Anchor-9" 0 1840 basechar 0
AnchorPoint: "Anchor-8" 1200 1840 basechar 0
AnchorPoint: "Anchor-7" 1200 -380 basechar 0
AnchorPoint: "Anchor-6" 1200 1540 basechar 0
AnchorPoint: "Anchor-5" 1040 1462 basechar 0
AnchorPoint: "Anchor-4" 1000 1462 basechar 0
AnchorPoint: "Anchor-2" 600 0 basechar 0
AnchorPoint: "Anchor-1" 1130 1540 basechar 0
AnchorPoint: "Anchor-0" 600 1540 basechar 0
LayerCount: 2
Fore
SplineSet
1192 0 m 1,0,-1
 983 0 l 1,1,-1
 596 635 l 1,2,-1
 203 0 l 1,3,-1
 8 0 l 1,4,-1
 494 762 l 1,5,-1
 39 1462 l 1,6,-1
 244 1462 l 1,7,-1
 602 889 l 1,8,-1
 963 1462 l 1,9,-1
 1157 1462 l 1,10,-1
 705 766 l 1,11,-1
 1192 0 l 1,0,-1
EndSplineSet
EndChar

StartChar: Y
Encoding: 89 89 40
Width: 1159
GlyphClass: 2
Flags: W
AnchorPoint: "Anchor-11" 672 0 basechar 0
AnchorPoint: "Anchor-9" 0 1840 basechar 0
AnchorPoint: "Anchor-8" 1159 1840 basechar 0
AnchorPoint: "Anchor-7" 1159 -380 basechar 0
AnchorPoint: "Anchor-6" 1159 1540 basechar 0
AnchorPoint: "Anchor-5" 1040 1462 basechar 0
AnchorPoint: "Anchor-4" 1020 1462 basechar 0
AnchorPoint: "Anchor-2" 580 0 basechar 0
AnchorPoint: "Anchor-1" 1130 1540 basechar 0
AnchorPoint: "Anchor-0" 580 1540 basechar 0
LayerCount: 2
Fore
SplineSet
580 743 m 1,0,-1
 961 1462 l 1,1,-1
 1159 1462 l 1,2,-1
 672 567 l 1,3,-1
 672 0 l 1,4,-1
 487 0 l 1,5,-1
 487 559 l 1,6,-1
 0 1462 l 1,7,-1
 201 1462 l 1,8,-1
 580 743 l 1,0,-1
EndSplineSet
EndChar

StartChar: Z
Encoding: 90 90 41
Width: 1171
GlyphClass: 2
Flags: W
AnchorPoint: "Anchor-11" 1030 0 basechar 0
AnchorPoint: "Anchor-9" 0 1840 basechar 0
AnchorPoint: "Anchor-8" 1171 1840 basechar 0
AnchorPoint: "Anchor-7" 1171 -380 basechar 0
AnchorPoint: "Anchor-6" 1171 1540 basechar 0
AnchorPoint: "Anchor-5" 1066 1462 basechar 0
AnchorPoint: "Anchor-4" 1000 1462 basechar 0
AnchorPoint: "Anchor-2" 585 0 basechar 0
AnchorPoint: "Anchor-1" 1040 1540 basechar 0
AnchorPoint: "Anchor-0" 585 1540 basechar 0
LayerCount: 2
Fore
SplineSet
1092 0 m 1,0,-1
 78 0 l 1,1,-1
 78 139 l 1,2,-1
 848 1298 l 1,3,-1
 102 1298 l 1,4,-1
 102 1462 l 1,5,-1
 1071 1462 l 1,6,-1
 1071 1323 l 1,7,-1
 301 164 l 1,8,-1
 1092 164 l 1,9,-1
 1092 0 l 1,0,-1
EndSplineSet
EndChar

StartChar: glyph42
Encoding: 65549 -1 42
Width: 909
Flags: W
LayerCount: 2
Fore
SplineSet
913 -315 m 1,0,-1
 -4 -315 l 1,1,-1
 -4 -184 l 1,2,-1
 913 -184 l 1,3,-1
 913 -315 l 1,0,-1
EndSplineSet
EndChar

StartChar: grave
Encoding: 96 96 43
Width: 1188
GlyphClass: 4
Flags: W
LayerCount: 2
Fore
SplineSet
799 1241 m 1,0,-1
 678 1241 l 1,1,2
 603 1301 603 1301 513.5 1396.5 c 128,-1,3
 424 1492 424 1492 387 1548 c 1,4,-1
 387 1569 l 1,5,-1
 602 1569 l 1,6,7
 634 1503 634 1503 693 1411.5 c 128,-1,8
 752 1320 752 1320 799 1266 c 1,9,-1
 799 1241 l 1,0,-1
EndSplineSet
EndChar

StartChar: a
Encoding: 97 97 44
Width: 1149
GlyphClass: 2
Flags: W
AnchorPoint: "Anchor-11" 983 0 basechar 0
AnchorPoint: "Anchor-10" 490 0 basechar 0
AnchorPoint: "Anchor-9" 0 1840 basechar 0
AnchorPoint: "Anchor-8" 1149 1840 basechar 0
AnchorPoint: "Anchor-7" 1149 -380 basechar 0
AnchorPoint: "Anchor-6" 1149 1540 basechar 0
AnchorPoint: "Anchor-5" 860 1000 basechar 0
AnchorPoint: "Anchor-4" 920 900 basechar 0
AnchorPoint: "Anchor-2" 560 0 basechar 0
AnchorPoint: "Anchor-1" 900 1200 basechar 0
AnchorPoint: "Anchor-0" 560 1200 basechar 0
LayerCount: 2
Fore
SplineSet
852 0 m 1,0,-1
 817 156 l 1,1,-1
 809 156 l 1,2,3
 727 53 727 53 645.5 16.5 c 128,-1,4
 564 -20 564 -20 440 -20 c 0,5,6
 278 -20 278 -20 186 65 c 128,-1,7
 94 150 94 150 94 305 c 0,8,9
 94 639 94 639 621 655 c 2,10,-1
 807 662 l 1,11,-1
 807 727 l 2,12,13
 807 852 807 852 753 911.5 c 128,-1,14
 699 971 699 971 580 971 c 0,15,16
 493 971 493 971 415.5 945 c 128,-1,17
 338 919 338 919 270 887 c 1,18,-1
 215 1022 l 1,19,20
 298 1066 298 1066 396 1091 c 128,-1,21
 494 1116 494 1116 590 1116 c 0,22,23
 789 1116 789 1116 886 1028 c 128,-1,24
 983 940 983 940 983 748 c 2,25,-1
 983 0 l 1,26,-1
 852 0 l 1,0,-1
481 125 m 0,27,28
 632 125 632 125 718.5 206.5 c 128,-1,29
 805 288 805 288 805 438 c 2,30,-1
 805 537 l 1,31,-1
 643 530 l 2,32,33
 454 523 454 523 367.5 470 c 128,-1,34
 281 417 281 417 281 303 c 0,35,36
 281 217 281 217 333.5 171 c 128,-1,37
 386 125 386 125 481 125 c 0,27,28
EndSplineSet
EndChar

StartChar: b
Encoding: 98 98 45
Width: 1260
GlyphClass: 2
Flags: W
AnchorPoint: "Anchor-12" 980 86 basechar 0
AnchorPoint: "Anchor-11" 720 0 basechar 0
AnchorPoint: "Anchor-9" 0 1840 basechar 0
AnchorPoint: "Anchor-8" 1260 1840 basechar 0
AnchorPoint: "Anchor-7" 1260 -380 basechar 0
AnchorPoint: "Anchor-6" 1260 1540 basechar 0
AnchorPoint: "Anchor-5" 980 1000 basechar 0
AnchorPoint: "Anchor-4" 1040 900 basechar 0
AnchorPoint: "Anchor-2" 630 0 basechar 0
AnchorPoint: "Anchor-1" 900 1540 basechar 0
AnchorPoint: "Anchor-0" 630 1640 basechar 0
LayerCount: 2
Fore
SplineSet
694 1116 m 0,0,1
 911 1116 911 1116 1029 966.5 c 128,-1,2
 1147 817 1147 817 1147 549 c 0,3,4
 1147 277 1147 277 1027 128.5 c 128,-1,5
 907 -20 907 -20 694 -20 c 0,6,7
 583 -20 583 -20 496 20 c 128,-1,8
 409 60 409 60 354 139 c 1,9,-1
 340 139 l 1,10,11
 309 19 309 19 303 0 c 1,12,-1
 174 0 l 1,13,-1
 174 1556 l 1,14,-1
 354 1556 l 1,15,-1
 354 1178 l 2,16,17
 354 1065 354 1065 344 952 c 1,18,-1
 354 952 l 1,19,20
 465 1116 465 1116 694 1116 c 0,0,1
664 967 m 0,21,22
 498 967 498 967 426 873 c 128,-1,23
 354 779 354 779 354 555 c 2,24,-1
 354 547 l 2,25,26
 354 322 354 322 427.5 225.5 c 128,-1,27
 501 129 501 129 668 129 c 0,28,29
 816 129 816 129 888.5 237.5 c 128,-1,30
 961 346 961 346 961 551 c 0,31,32
 961 759 961 759 888 863 c 128,-1,33
 815 967 815 967 664 967 c 0,21,22
EndSplineSet
EndChar

StartChar: c
Encoding: 99 99 46
Width: 983
GlyphClass: 2
Flags: W
AnchorPoint: "Anchor-12" 800 86 basechar 0
AnchorPoint: "Anchor-11" 660 0 basechar 0
AnchorPoint: "Anchor-10" 522 0 basechar 0
AnchorPoint: "Anchor-9" 0 1840 basechar 0
AnchorPoint: "Anchor-8" 983 1840 basechar 0
AnchorPoint: "Anchor-7" 983 -380 basechar 0
AnchorPoint: "Anchor-6" 983 1540 basechar 0
AnchorPoint: "Anchor-5" 860 1059 basechar 0
AnchorPoint: "Anchor-4" 840 1069 basechar 0
AnchorPoint: "Anchor-2" 540 0 basechar 0
AnchorPoint: "Anchor-1" 860 1200 basechar 0
AnchorPoint: "Anchor-0" 540 1200 basechar 0
LayerCount: 2
Fore
SplineSet
614 -20 m 0,0,1
 377 -20 377 -20 245 125.5 c 128,-1,2
 113 271 113 271 113 543 c 0,3,4
 113 819 113 819 246.5 968.5 c 128,-1,5
 380 1118 380 1118 627 1118 c 0,6,7
 707 1118 707 1118 785.5 1101.5 c 128,-1,8
 864 1085 864 1085 915 1059 c 1,9,-1
 860 909 l 1,10,11
 721 961 721 961 623 961 c 0,12,13
 457 961 457 961 378 856.5 c 128,-1,14
 299 752 299 752 299 545 c 0,15,16
 299 346 299 346 378 240.5 c 128,-1,17
 457 135 457 135 612 135 c 0,18,19
 757 135 757 135 897 199 c 1,20,-1
 897 39 l 1,21,22
 783 -20 783 -20 614 -20 c 0,0,1
EndSplineSet
EndChar

StartChar: d
Encoding: 100 100 47
Width: 1260
GlyphClass: 2
Flags: W
AnchorPoint: "Anchor-12" 1085 86 basechar 0
AnchorPoint: "Anchor-11" 660 0 basechar 0
AnchorPoint: "Anchor-9" 0 1840 basechar 0
AnchorPoint: "Anchor-8" 1260 1840 basechar 0
AnchorPoint: "Anchor-7" 1260 -380 basechar 0
AnchorPoint: "Anchor-6" 1260 1540 basechar 0
AnchorPoint: "Anchor-5" 1081 1556 basechar 0
AnchorPoint: "Anchor-4" 1045 1556 basechar 0
AnchorPoint: "Anchor-2" 640 0 basechar 0
AnchorPoint: "Anchor-1" 1080 1540 basechar 0
AnchorPoint: "Anchor-0" 540 1640 basechar 0
LayerCount: 2
Fore
SplineSet
563 -20 m 0,0,1
 349 -20 349 -20 231 128 c 128,-1,2
 113 276 113 276 113 547 c 0,3,4
 113 816 113 816 231.5 967 c 128,-1,5
 350 1118 350 1118 565 1118 c 0,6,7
 786 1118 786 1118 905 956 c 1,8,-1
 918 956 l 1,9,10
 915 976 915 976 910 1036.5 c 128,-1,11
 905 1097 905 1097 905 1118 c 2,12,-1
 905 1556 l 1,13,-1
 1085 1556 l 1,14,-1
 1085 0 l 1,15,-1
 940 0 l 1,16,-1
 913 147 l 1,17,-1
 905 147 l 1,18,19
 790 -20 790 -20 563 -20 c 0,0,1
592 129 m 0,20,21
 756 129 756 129 831.5 218.5 c 128,-1,22
 907 308 907 308 907 512 c 2,23,-1
 907 545 l 2,24,25
 907 774 907 774 830.5 871.5 c 128,-1,26
 754 969 754 969 590 969 c 0,27,28
 451 969 451 969 375 858.5 c 128,-1,29
 299 748 299 748 299 543 c 0,30,31
 299 339 299 339 374.5 234 c 128,-1,32
 450 129 450 129 592 129 c 0,20,21
EndSplineSet
EndChar

StartChar: e
Encoding: 101 101 48
Width: 1155
GlyphClass: 2
Flags: W
AnchorPoint: "Anchor-11" 680 0 basechar 0
AnchorPoint: "Anchor-10" 565 0 basechar 0
AnchorPoint: "Anchor-9" 0 1840 basechar 0
AnchorPoint: "Anchor-8" 1155 1840 basechar 0
AnchorPoint: "Anchor-7" 1155 -380 basechar 0
AnchorPoint: "Anchor-6" 1155 1540 basechar 0
AnchorPoint: "Anchor-5" 880 1000 basechar 0
AnchorPoint: "Anchor-4" 980 900 basechar 0
AnchorPoint: "Anchor-2" 580 0 basechar 0
AnchorPoint: "Anchor-1" 900 1200 basechar 0
AnchorPoint: "Anchor-0" 580 1200 basechar 0
LayerCount: 2
Fore
SplineSet
641 -20 m 0,0,1
 394 -20 394 -20 253.5 129.5 c 128,-1,2
 113 279 113 279 113 541 c 0,3,4
 113 805 113 805 244 961.5 c 128,-1,5
 375 1118 375 1118 598 1118 c 0,6,7
 805 1118 805 1118 928 984.5 c 128,-1,8
 1051 851 1051 851 1051 623 c 2,9,-1
 1051 514 l 1,10,-1
 299 514 l 1,11,12
 304 327 304 327 394 230 c 128,-1,13
 484 133 484 133 649 133 c 0,14,15
 737 133 737 133 816 148.5 c 128,-1,16
 895 164 895 164 1001 209 c 1,17,-1
 1001 51 l 1,18,19
 910 12 910 12 830 -4 c 128,-1,20
 750 -20 750 -20 641 -20 c 0,0,1
596 971 m 0,21,22
 467 971 467 971 392 888 c 128,-1,23
 317 805 317 805 303 657 c 1,24,-1
 862 657 l 1,25,26
 860 811 860 811 791 891 c 128,-1,27
 722 971 722 971 596 971 c 0,21,22
EndSplineSet
EndChar

StartChar: f
Encoding: 102 102 49
Width: 705
GlyphClass: 2
Flags: W
AnchorPoint: "Anchor-12" 403 86 basechar 0
AnchorPoint: "Anchor-11" 403 0 basechar 0
AnchorPoint: "Anchor-9" 0 1840 basechar 0
AnchorPoint: "Anchor-8" 705 1840 basechar 0
AnchorPoint: "Anchor-7" 705 -380 basechar 0
AnchorPoint: "Anchor-6" 705 1540 basechar 0
AnchorPoint: "Anchor-5" 745 1530 basechar 0
AnchorPoint: "Anchor-4" 733 1550 basechar 0
AnchorPoint: "Anchor-2" 460 0 basechar 0
AnchorPoint: "Anchor-1" 770 1540 basechar 0
AnchorPoint: "Anchor-0" 460 1640 basechar 0
LayerCount: 2
Fore
SplineSet
680 958 m 1,0,-1
 403 958 l 1,1,-1
 403 0 l 1,2,-1
 223 0 l 1,3,-1
 223 958 l 1,4,-1
 31 958 l 1,5,-1
 31 1042 l 1,6,-1
 223 1104 l 1,7,-1
 223 1167 l 2,8,9
 223 1367 223 1367 310.5 1467 c 128,-1,10
 398 1567 398 1567 580 1567 c 0,11,12
 685 1567 685 1567 793 1530 c 1,13,-1
 745 1389 l 1,14,15
 652 1419 652 1419 582 1419 c 0,16,17
 491 1419 491 1419 447 1359 c 128,-1,18
 403 1299 403 1299 403 1169 c 2,19,-1
 403 1098 l 1,20,-1
 680 1098 l 1,21,-1
 680 958 l 1,0,-1
EndSplineSet
EndChar

StartChar: g
Encoding: 103 103 50
Width: 1260
GlyphClass: 2
Flags: W
AnchorPoint: "Anchor-12" 790 -400 basechar 0
AnchorPoint: "Anchor-11" 700 -440 basechar 0
AnchorPoint: "Anchor-10" 580 -420 basechar 0
AnchorPoint: "Anchor-9" 0 1840 basechar 0
AnchorPoint: "Anchor-8" 1260 1840 basechar 0
AnchorPoint: "Anchor-7" 1260 -380 basechar 0
AnchorPoint: "Anchor-6" 1260 1540 basechar 0
AnchorPoint: "Anchor-5" 1080 1098 basechar 0
AnchorPoint: "Anchor-4" 1045 1098 basechar 0
AnchorPoint: "Anchor-2" 640 -492 basechar 0
AnchorPoint: "Anchor-1" 1080 1200 basechar 0
AnchorPoint: "Anchor-0" 540 1200 basechar 0
LayerCount: 2
Fore
SplineSet
592 127 m 0,0,1
 758 127 758 127 833.5 216.5 c 128,-1,2
 909 306 909 306 909 504 c 2,3,-1
 909 547 l 2,4,5
 909 767 909 767 833 867 c 128,-1,6
 757 967 757 967 588 967 c 0,7,8
 450 967 450 967 374.5 857.5 c 128,-1,9
 299 748 299 748 299 545 c 0,10,11
 299 341 299 341 372.5 234 c 128,-1,12
 446 127 446 127 592 127 c 0,0,1
907 10 m 1,13,-1
 913 145 l 1,14,-1
 905 145 l 1,15,16
 794 -20 794 -20 565 -20 c 0,17,18
 352 -20 352 -20 232.5 128.5 c 128,-1,19
 113 277 113 277 113 547 c 0,20,21
 113 812 113 812 233.5 965 c 128,-1,22
 354 1118 354 1118 563 1118 c 0,23,24
 786 1118 786 1118 907 952 c 1,25,-1
 918 952 l 1,26,-1
 942 1098 l 1,27,-1
 1085 1098 l 1,28,-1
 1085 -18 l 2,29,30
 1085 -254 1085 -254 965.5 -373 c 128,-1,31
 846 -492 846 -492 594 -492 c 0,32,33
 354 -492 354 -492 199 -422 c 1,34,-1
 199 -256 l 1,35,36
 359 -342 359 -342 604 -342 c 0,37,38
 744 -342 744 -342 825.5 -260 c 128,-1,39
 907 -178 907 -178 907 -33 c 2,40,-1
 907 10 l 1,13,-1
EndSplineSet
EndChar

StartChar: h
Encoding: 104 104 51
Width: 1266
GlyphClass: 2
Flags: W
AnchorPoint: "Anchor-12" 1100 86 basechar 0
AnchorPoint: "Anchor-11" 1100 0 basechar 0
AnchorPoint: "Anchor-9" 0 1840 basechar 0
AnchorPoint: "Anchor-8" 1266 1840 basechar 0
AnchorPoint: "Anchor-7" 1266 -380 basechar 0
AnchorPoint: "Anchor-6" 1266 1540 basechar 0
AnchorPoint: "Anchor-5" 980 1000 basechar 0
AnchorPoint: "Anchor-4" 1040 900 basechar 0
AnchorPoint: "Anchor-2" 620 0 basechar 0
AnchorPoint: "Anchor-1" 940 1540 basechar 0
AnchorPoint: "Anchor-0" 620 1640 basechar 0
LayerCount: 2
Fore
SplineSet
922 0 m 1,0,-1
 922 702 l 2,1,2
 922 836 922 836 862.5 901.5 c 128,-1,3
 803 967 803 967 676 967 c 0,4,5
 509 967 509 967 431.5 874 c 128,-1,6
 354 781 354 781 354 567 c 2,7,-1
 354 0 l 1,8,-1
 174 0 l 1,9,-1
 174 1556 l 1,10,-1
 354 1556 l 1,11,-1
 354 1100 l 2,12,13
 354 1010 354 1010 344 946 c 1,14,-1
 356 946 l 1,15,16
 405 1026 405 1026 495 1071 c 128,-1,17
 585 1116 585 1116 698 1116 c 0,18,19
 898 1116 898 1116 999 1020.5 c 128,-1,20
 1100 925 1100 925 1100 715 c 2,21,-1
 1100 0 l 1,22,-1
 922 0 l 1,0,-1
EndSplineSet
EndChar

StartChar: i
Encoding: 105 105 52
Width: 528
GlyphClass: 2
Flags: W
AnchorPoint: "Anchor-11" 354 0 basechar 0
AnchorPoint: "Anchor-10" 210 0 basechar 0
AnchorPoint: "Anchor-9" 0 1840 basechar 0
AnchorPoint: "Anchor-8" 528 1840 basechar 0
AnchorPoint: "Anchor-7" 528 -380 basechar 0
AnchorPoint: "Anchor-6" 528 1540 basechar 0
AnchorPoint: "Anchor-5" 350 1098 basechar 0
AnchorPoint: "Anchor-4" 314 1098 basechar 0
AnchorPoint: "Anchor-2" 264 0 basechar 0
AnchorPoint: "Anchor-1" 380 1540 basechar 0
AnchorPoint: "Anchor-0" 264 1580 basechar 0
LayerCount: 2
Fore
SplineSet
354 0 m 1,0,-1
 174 0 l 1,1,-1
 174 1098 l 1,2,-1
 354 1098 l 1,3,-1
 354 0 l 1,0,-1
160 1395 m 0,4,5
 160 1455 160 1455 190.5 1482 c 128,-1,6
 221 1509 221 1509 266 1509 c 0,7,8
 308 1509 308 1509 339.5 1482 c 128,-1,9
 371 1455 371 1455 371 1395 c 0,10,11
 371 1336 371 1336 339.5 1308 c 128,-1,12
 308 1280 308 1280 266 1280 c 0,13,14
 221 1280 221 1280 190.5 1308 c 128,-1,15
 160 1336 160 1336 160 1395 c 0,4,5
EndSplineSet
Substitution2: "Single Substitution lookup 3 subtable" dotlessi
EndChar

StartChar: j
Encoding: 106 106 53
Width: 528
GlyphClass: 2
Flags: W
AnchorPoint: "Anchor-12" 300 -380 basechar 0
AnchorPoint: "Anchor-11" 200 -440 basechar 0
AnchorPoint: "Anchor-9" 0 1840 basechar 0
AnchorPoint: "Anchor-8" 528 1840 basechar 0
AnchorPoint: "Anchor-7" 528 -380 basechar 0
AnchorPoint: "Anchor-6" 528 1540 basechar 0
AnchorPoint: "Anchor-5" 350 1098 basechar 0
AnchorPoint: "Anchor-4" 320 1098 basechar 0
AnchorPoint: "Anchor-2" 264 -492 basechar 0
AnchorPoint: "Anchor-1" 380 1540 basechar 0
AnchorPoint: "Anchor-0" 264 1580 basechar 0
LayerCount: 2
Fore
SplineSet
45 -492 m 0,0,1
 -49 -492 -49 -492 -113 -467 c 1,2,-1
 -113 -322 l 1,3,4
 -44 -342 -44 -342 23 -342 c 0,5,6
 101 -342 101 -342 137.5 -299.5 c 128,-1,7
 174 -257 174 -257 174 -170 c 2,8,-1
 174 1098 l 1,9,-1
 354 1098 l 1,10,-1
 354 -164 l 2,11,12
 354 -328 354 -328 275.5 -410 c 128,-1,13
 197 -492 197 -492 45 -492 c 0,0,1
160 1395 m 0,14,15
 160 1455 160 1455 190.5 1482 c 128,-1,16
 221 1509 221 1509 266 1509 c 0,17,18
 308 1509 308 1509 339.5 1482 c 128,-1,19
 371 1455 371 1455 371 1395 c 0,20,21
 371 1336 371 1336 339.5 1308 c 128,-1,22
 308 1280 308 1280 266 1280 c 0,23,24
 221 1280 221 1280 190.5 1308 c 128,-1,25
 160 1336 160 1336 160 1395 c 0,14,15
EndSplineSet
Substitution2: "Single Substitution lookup 3 subtable" uni0237
EndChar

StartChar: k
Encoding: 107 107 54
Width: 1094
GlyphClass: 2
Flags: W
AnchorPoint: "Anchor-12" 1050 0 basechar 0
AnchorPoint: "Anchor-11" 1060 0 basechar 0
AnchorPoint: "Anchor-10" 520 0 basechar 0
AnchorPoint: "Anchor-9" 0 1840 basechar 0
AnchorPoint: "Anchor-8" 1094 1840 basechar 0
AnchorPoint: "Anchor-7" 1094 -380 basechar 0
AnchorPoint: "Anchor-6" 1094 1540 basechar 0
AnchorPoint: "Anchor-5" 860 1098 basechar 0
AnchorPoint: "Anchor-4" 860 1098 basechar 0
AnchorPoint: "Anchor-2" 560 0 basechar 0
AnchorPoint: "Anchor-1" 960 1540 basechar 0
AnchorPoint: "Anchor-0" 560 1640 basechar 0
LayerCount: 2
Fore
SplineSet
352 565 m 1,0,-1
 413 643 l 1,1,-1
 483 727 l 1,2,-1
 834 1098 l 1,3,-1
 1044 1098 l 1,4,-1
 600 629 l 1,5,-1
 1075 0 l 1,6,-1
 858 0 l 1,7,-1
 477 512 l 1,8,-1
 352 403 l 1,9,-1
 352 0 l 1,10,-1
 174 0 l 1,11,-1
 174 1556 l 1,12,-1
 352 1556 l 1,13,-1
 352 743 l 1,14,-1
 344 565 l 1,15,-1
 352 565 l 1,0,-1
EndSplineSet
EndChar

StartChar: l
Encoding: 108 108 55
Width: 528
GlyphClass: 2
Flags: W
AnchorPoint: "Anchor-12" 354 86 basechar 0
AnchorPoint: "Anchor-11" 354 0 basechar 0
AnchorPoint: "Anchor-10" 210 0 basechar 0
AnchorPoint: "Anchor-9" 0 1840 basechar 0
AnchorPoint: "Anchor-8" 528 1840 basechar 0
AnchorPoint: "Anchor-7" 528 -380 basechar 0
AnchorPoint: "Anchor-6" 528 1540 basechar 0
AnchorPoint: "Anchor-5" 350 1556 basechar 0
AnchorPoint: "Anchor-4" 314 1556 basechar 0
AnchorPoint: "Anchor-2" 264 0 basechar 0
AnchorPoint: "Anchor-1" 380 1540 basechar 0
AnchorPoint: "Anchor-0" 264 1680 basechar 0
LayerCount: 2
Fore
SplineSet
354 0 m 1,0,-1
 174 0 l 1,1,-1
 174 1556 l 1,2,-1
 354 1556 l 1,3,-1
 354 0 l 1,0,-1
EndSplineSet
EndChar

StartChar: m
Encoding: 109 109 56
Width: 1915
GlyphClass: 2
Flags: W
AnchorPoint: "Anchor-12" 1749 86 basechar 0
AnchorPoint: "Anchor-11" 1749 0 basechar 0
AnchorPoint: "Anchor-9" 0 1840 basechar 0
AnchorPoint: "Anchor-8" 1915 1840 basechar 0
AnchorPoint: "Anchor-7" 1915 -380 basechar 0
AnchorPoint: "Anchor-6" 1915 1540 basechar 0
AnchorPoint: "Anchor-5" 1600 1000 basechar 0
AnchorPoint: "Anchor-4" 1690 900 basechar 0
AnchorPoint: "Anchor-2" 957 0 basechar 0
AnchorPoint: "Anchor-1" 1700 1200 basechar 0
AnchorPoint: "Anchor-0" 957 1200 basechar 0
LayerCount: 2
Fore
SplineSet
1571 0 m 1,0,-1
 1571 707 l 2,1,2
 1571 967 1571 967 1348 967 c 0,3,4
 1195 967 1195 967 1123 878 c 128,-1,5
 1051 789 1051 789 1051 606 c 2,6,-1
 1051 0 l 1,7,-1
 872 0 l 1,8,-1
 872 707 l 2,9,10
 872 837 872 837 817.5 902 c 128,-1,11
 763 967 763 967 647 967 c 0,12,13
 495 967 495 967 424.5 874 c 128,-1,14
 354 781 354 781 354 569 c 2,15,-1
 354 0 l 1,16,-1
 174 0 l 1,17,-1
 174 1098 l 1,18,-1
 319 1098 l 1,19,-1
 346 948 l 1,20,-1
 356 948 l 1,21,22
 403 1028 403 1028 488.5 1073 c 128,-1,23
 574 1118 574 1118 680 1118 c 0,24,25
 938 1118 938 1118 1016 934 c 1,26,-1
 1026 934 l 1,27,28
 1079 1022 1079 1022 1170.5 1070 c 128,-1,29
 1262 1118 1262 1118 1378 1118 c 0,30,31
 1564 1118 1564 1118 1656.5 1022 c 128,-1,32
 1749 926 1749 926 1749 715 c 2,33,-1
 1749 0 l 1,34,-1
 1571 0 l 1,0,-1
EndSplineSet
EndChar

StartChar: n
Encoding: 110 110 57
Width: 1266
GlyphClass: 2
Flags: W
AnchorPoint: "Anchor-12" 1100 86 basechar 0
AnchorPoint: "Anchor-11" 1100 0 basechar 0
AnchorPoint: "Anchor-10" 590 0 basechar 0
AnchorPoint: "Anchor-9" 0 1840 basechar 0
AnchorPoint: "Anchor-8" 1266 1840 basechar 0
AnchorPoint: "Anchor-7" 1266 -380 basechar 0
AnchorPoint: "Anchor-6" 1266 1540 basechar 0
AnchorPoint: "Anchor-5" 980 1000 basechar 0
AnchorPoint: "Anchor-4" 1040 900 basechar 0
AnchorPoint: "Anchor-2" 620 0 basechar 0
AnchorPoint: "Anchor-1" 1100 1200 basechar 0
AnchorPoint: "Anchor-0" 620 1200 basechar 0
LayerCount: 2
Fore
SplineSet
922 0 m 1,0,-1
 922 702 l 2,1,2
 922 836 922 836 862.5 901.5 c 128,-1,3
 803 967 803 967 676 967 c 0,4,5
 507 967 507 967 430.5 873.5 c 128,-1,6
 354 780 354 780 354 569 c 2,7,-1
 354 0 l 1,8,-1
 174 0 l 1,9,-1
 174 1098 l 1,10,-1
 319 1098 l 1,11,-1
 346 948 l 1,12,-1
 356 948 l 1,13,14
 407 1029 407 1029 499 1073.5 c 128,-1,15
 591 1118 591 1118 702 1118 c 0,16,17
 904 1118 904 1118 1002 1020 c 128,-1,18
 1100 922 1100 922 1100 715 c 2,19,-1
 1100 0 l 1,20,-1
 922 0 l 1,0,-1
EndSplineSet
EndChar

StartChar: o
Encoding: 111 111 58
Width: 1239
GlyphClass: 2
Flags: W
AnchorPoint: "Anchor-11" 680 0 basechar 0
AnchorPoint: "Anchor-10" 580 0 basechar 0
AnchorPoint: "Anchor-9" 0 1840 basechar 0
AnchorPoint: "Anchor-8" 1239 1840 basechar 0
AnchorPoint: "Anchor-7" 1239 -380 basechar 0
AnchorPoint: "Anchor-6" 1239 1540 basechar 0
AnchorPoint: "Anchor-5" 910 1000 basechar 0
AnchorPoint: "Anchor-4" 1000 900 basechar 0
AnchorPoint: "Anchor-2" 620 0 basechar 0
AnchorPoint: "Anchor-1" 1050 1200 basechar 0
AnchorPoint: "Anchor-0" 620 1200 basechar 0
LayerCount: 2
Fore
SplineSet
1128 551 m 0,0,1
 1128 282 1128 282 992 131 c 128,-1,2
 856 -20 856 -20 616 -20 c 0,3,4
 467 -20 467 -20 352 49.5 c 128,-1,5
 237 119 237 119 175 249 c 128,-1,6
 113 379 113 379 113 551 c 0,7,8
 113 819 113 819 247 968.5 c 128,-1,9
 381 1118 381 1118 623 1118 c 0,10,11
 855 1118 855 1118 991.5 965.5 c 128,-1,12
 1128 813 1128 813 1128 551 c 0,0,1
299 551 m 0,13,14
 299 344 299 344 380.5 236.5 c 128,-1,15
 462 129 462 129 621 129 c 0,16,17
 778 129 778 129 860 236.5 c 128,-1,18
 942 344 942 344 942 551 c 256,19,20
 942 758 942 758 859.5 862.5 c 128,-1,21
 777 967 777 967 618 967 c 0,22,23
 299 967 299 967 299 551 c 0,13,14
EndSplineSet
EndChar

StartChar: p
Encoding: 112 112 59
Width: 1260
GlyphClass: 2
Flags: W
AnchorPoint: "Anchor-12" 980 86 basechar 0
AnchorPoint: "Anchor-11" 354 -492 basechar 0
AnchorPoint: "Anchor-9" 0 1840 basechar 0
AnchorPoint: "Anchor-8" 1260 1840 basechar 0
AnchorPoint: "Anchor-7" 1260 -380 basechar 0
AnchorPoint: "Anchor-6" 1260 1540 basechar 0
AnchorPoint: "Anchor-5" 980 1000 basechar 0
AnchorPoint: "Anchor-4" 1040 900 basechar 0
AnchorPoint: "Anchor-2" 630 -492 basechar 0
AnchorPoint: "Anchor-1" 1100 1200 basechar 0
AnchorPoint: "Anchor-0" 630 1200 basechar 0
LayerCount: 2
Fore
SplineSet
694 -20 m 0,0,1
 473 -20 473 -20 354 139 c 1,2,-1
 342 139 l 1,3,-1
 346 98 l 2,4,5
 354 20 354 20 354 -41 c 2,6,-1
 354 -492 l 1,7,-1
 174 -492 l 1,8,-1
 174 1098 l 1,9,-1
 322 1098 l 1,10,-1
 346 948 l 1,11,-1
 354 948 l 1,12,13
 418 1038 418 1038 502 1078 c 128,-1,14
 586 1118 586 1118 696 1118 c 0,15,16
 910 1118 910 1118 1028.5 969.5 c 128,-1,17
 1147 821 1147 821 1147 551 c 0,18,19
 1147 282 1147 282 1028 131 c 128,-1,20
 909 -20 909 -20 694 -20 c 0,0,1
664 967 m 0,21,22
 501 967 501 967 428.5 875 c 128,-1,23
 356 783 356 783 354 586 c 2,24,-1
 354 551 l 2,25,26
 354 328 354 328 428 228.5 c 128,-1,27
 502 129 502 129 668 129 c 0,28,29
 806 129 806 129 883.5 241 c 128,-1,30
 961 353 961 353 961 553 c 0,31,32
 961 754 961 754 883.5 860.5 c 128,-1,33
 806 967 806 967 664 967 c 0,21,22
EndSplineSet
EndChar

StartChar: q
Encoding: 113 113 60
Width: 1260
GlyphClass: 2
Flags: W
AnchorPoint: "Anchor-12" 1085 -300 basechar 0
AnchorPoint: "Anchor-11" 1085 -492 basechar 0
AnchorPoint: "Anchor-9" 0 1840 basechar 0
AnchorPoint: "Anchor-8" 1260 1840 basechar 0
AnchorPoint: "Anchor-7" 1260 -380 basechar 0
AnchorPoint: "Anchor-6" 1260 1540 basechar 0
AnchorPoint: "Anchor-5" 1080 1098 basechar 0
AnchorPoint: "Anchor-4" 1045 1098 basechar 0
AnchorPoint: "Anchor-2" 640 -492 basechar 0
AnchorPoint: "Anchor-1" 1080 1200 basechar 0
AnchorPoint: "Anchor-0" 570 1200 basechar 0
LayerCount: 2
Fore
SplineSet
594 129 m 0,0,1
 755 129 755 129 829 217 c 128,-1,2
 903 305 903 305 907 508 c 1,3,-1
 907 545 l 2,4,5
 907 772 907 772 831 870.5 c 128,-1,6
 755 969 755 969 590 969 c 0,7,8
 449 969 449 969 374 858 c 128,-1,9
 299 747 299 747 299 543 c 0,10,11
 299 342 299 342 373.5 235.5 c 128,-1,12
 448 129 448 129 594 129 c 0,0,1
559 -20 m 0,13,14
 347 -20 347 -20 230 130 c 128,-1,15
 113 280 113 280 113 547 c 0,16,17
 113 815 113 815 232.5 966.5 c 128,-1,18
 352 1118 352 1118 565 1118 c 0,19,20
 790 1118 790 1118 907 948 c 1,21,-1
 915 948 l 1,22,-1
 942 1098 l 1,23,-1
 1085 1098 l 1,24,-1
 1085 -492 l 1,25,-1
 905 -492 l 1,26,-1
 905 -23 l 2,27,28
 905 87 905 87 915 147 c 1,29,-1
 903 147 l 1,30,31
 788 -20 788 -20 559 -20 c 0,13,14
EndSplineSet
EndChar

StartChar: r
Encoding: 114 114 61
Width: 846
GlyphClass: 2
Flags: W
AnchorPoint: "Anchor-12" 354 86 basechar 0
AnchorPoint: "Anchor-11" 354 0 basechar 0
AnchorPoint: "Anchor-10" 210 0 basechar 0
AnchorPoint: "Anchor-9" 0 1840 basechar 0
AnchorPoint: "Anchor-8" 846 1840 basechar 0
AnchorPoint: "Anchor-7" 846 -380 basechar 0
AnchorPoint: "Anchor-6" 846 1540 basechar 0
AnchorPoint: "Anchor-5" 790 1106 basechar 0
AnchorPoint: "Anchor-4" 750 1098 basechar 0
AnchorPoint: "Anchor-2" 480 0 basechar 0
AnchorPoint: "Anchor-1" 800 1200 basechar 0
AnchorPoint: "Anchor-0" 480 1200 basechar 0
LayerCount: 2
Fore
SplineSet
686 1118 m 0,0,1
 759 1118 759 1118 815 1106 c 1,2,-1
 793 940 l 1,3,4
 732 954 732 954 674 954 c 0,5,6
 587 954 587 954 512.5 906 c 128,-1,7
 438 858 438 858 396 773.5 c 128,-1,8
 354 689 354 689 354 586 c 2,9,-1
 354 0 l 1,10,-1
 174 0 l 1,11,-1
 174 1098 l 1,12,-1
 322 1098 l 1,13,-1
 342 897 l 1,14,-1
 350 897 l 1,15,16
 413 1006 413 1006 499 1062 c 128,-1,17
 585 1118 585 1118 686 1118 c 0,0,1
EndSplineSet
EndChar

StartChar: s
Encoding: 115 115 62
Width: 981
GlyphClass: 2
Flags: W
AnchorPoint: "Anchor-12" 780 86 basechar 0
AnchorPoint: "Anchor-11" 550 0 basechar 0
AnchorPoint: "Anchor-10" 460 0 basechar 0
AnchorPoint: "Anchor-9" 0 1840 basechar 0
AnchorPoint: "Anchor-8" 981 1840 basechar 0
AnchorPoint: "Anchor-7" 981 -380 basechar 0
AnchorPoint: "Anchor-6" 981 1540 basechar 0
AnchorPoint: "Anchor-5" 805 1044 basechar 0
AnchorPoint: "Anchor-4" 766 1044 basechar 0
AnchorPoint: "Anchor-2" 470 0 basechar 0
AnchorPoint: "Anchor-1" 840 1200 basechar 0
AnchorPoint: "Anchor-0" 470 1200 basechar 0
LayerCount: 2
Fore
SplineSet
889 303 m 0,0,1
 889 149 889 149 774 64.5 c 128,-1,2
 659 -20 659 -20 451 -20 c 0,3,4
 234 -20 234 -20 106 49 c 1,5,-1
 106 213 l 1,6,7
 287 125 287 125 455 125 c 0,8,9
 591 125 591 125 653 169 c 128,-1,10
 715 213 715 213 715 287 c 0,11,12
 715 352 715 352 655.5 397 c 128,-1,13
 596 442 596 442 444 500 c 0,14,15
 289 560 289 560 226 602.5 c 128,-1,16
 163 645 163 645 133.5 698 c 128,-1,17
 104 751 104 751 104 827 c 0,18,19
 104 962 104 962 214 1040 c 128,-1,20
 324 1118 324 1118 516 1118 c 0,21,22
 703 1118 703 1118 866 1044 c 1,23,-1
 805 901 l 1,24,25
 638 971 638 971 504 971 c 0,26,27
 392 971 392 971 334 935.5 c 128,-1,28
 276 900 276 900 276 838 c 0,29,30
 276 778 276 778 326 738.5 c 128,-1,31
 376 699 376 699 559 629 c 0,32,33
 696 578 696 578 761.5 534 c 128,-1,34
 827 490 827 490 858 435 c 128,-1,35
 889 380 889 380 889 303 c 0,0,1
EndSplineSet
EndChar

StartChar: t
Encoding: 116 116 63
Width: 739
GlyphClass: 2
Flags: W
AnchorPoint: "Anchor-12" 520 86 basechar 0
AnchorPoint: "Anchor-11" 520 0 basechar 0
AnchorPoint: "Anchor-10" 420 0 basechar 0
AnchorPoint: "Anchor-9" 0 1840 basechar 0
AnchorPoint: "Anchor-8" 739 1840 basechar 0
AnchorPoint: "Anchor-7" 739 -380 basechar 0
AnchorPoint: "Anchor-6" 739 1540 basechar 0
AnchorPoint: "Anchor-5" 365 1350 basechar 0
AnchorPoint: "Anchor-4" 646 1098 basechar 0
AnchorPoint: "Anchor-2" 480 0 basechar 0
AnchorPoint: "Anchor-1" 700 1200 basechar 0
AnchorPoint: "Anchor-0" 280 1480 basechar 0
LayerCount: 2
Fore
SplineSet
541 127 m 0,0,1
 576 127 576 127 623 134 c 128,-1,2
 670 141 670 141 694 150 c 1,3,-1
 694 12 l 1,4,5
 669 1 669 1 616.5 -9.5 c 128,-1,6
 564 -20 564 -20 510 -20 c 0,7,8
 188 -20 188 -20 188 319 c 2,9,-1
 188 958 l 1,10,-1
 33 958 l 1,11,-1
 33 1044 l 1,12,-1
 190 1116 l 1,13,-1
 262 1350 l 1,14,-1
 369 1350 l 1,15,-1
 369 1098 l 1,16,-1
 686 1098 l 1,17,-1
 686 958 l 1,18,-1
 369 958 l 1,19,-1
 369 324 l 2,20,21
 369 229 369 229 414.5 178 c 128,-1,22
 460 127 460 127 541 127 c 0,0,1
EndSplineSet
EndChar

StartChar: u
Encoding: 117 117 64
Width: 1266
GlyphClass: 2
Flags: W
AnchorPoint: "Anchor-12" 1092 86 basechar 0
AnchorPoint: "Anchor-11" 1092 0 basechar 0
AnchorPoint: "Anchor-10" 580 0 basechar 0
AnchorPoint: "Anchor-9" 0 1840 basechar 0
AnchorPoint: "Anchor-8" 1266 1840 basechar 0
AnchorPoint: "Anchor-7" 1266 -380 basechar 0
AnchorPoint: "Anchor-6" 1266 1540 basechar 0
AnchorPoint: "Anchor-5" 1088 1098 basechar 0
AnchorPoint: "Anchor-4" 1052 1098 basechar 0
AnchorPoint: "Anchor-2" 630 0 basechar 0
AnchorPoint: "Anchor-1" 1100 1200 basechar 0
AnchorPoint: "Anchor-0" 630 1200 basechar 0
LayerCount: 2
Fore
SplineSet
344 1098 m 1,0,-1
 344 391 l 2,1,2
 344 258 344 258 403.5 193.5 c 128,-1,3
 463 129 463 129 588 129 c 0,4,5
 757 129 757 129 834 223 c 128,-1,6
 911 317 911 317 911 526 c 2,7,-1
 911 1098 l 1,8,-1
 1092 1098 l 1,9,-1
 1092 0 l 1,10,-1
 944 0 l 1,11,-1
 918 145 l 1,12,-1
 909 145 l 1,13,14
 860 66 860 66 770 23 c 128,-1,15
 680 -20 680 -20 561 -20 c 0,16,17
 363 -20 363 -20 262.5 75 c 128,-1,18
 162 170 162 170 162 379 c 2,19,-1
 162 1098 l 1,20,-1
 344 1098 l 1,0,-1
EndSplineSet
EndChar

StartChar: v
Encoding: 118 118 65
Width: 1040
GlyphClass: 2
Flags: W
AnchorPoint: "Anchor-12" 610 86 basechar 0
AnchorPoint: "Anchor-11" 610 0 basechar 0
AnchorPoint: "Anchor-9" 0 1840 basechar 0
AnchorPoint: "Anchor-8" 1040 1840 basechar 0
AnchorPoint: "Anchor-7" 1040 -380 basechar 0
AnchorPoint: "Anchor-6" 1040 1540 basechar 0
AnchorPoint: "Anchor-5" 960 1098 basechar 0
AnchorPoint: "Anchor-4" 940 1098 basechar 0
AnchorPoint: "Anchor-2" 520 0 basechar 0
AnchorPoint: "Anchor-1" 1000 1200 basechar 0
AnchorPoint: "Anchor-0" 520 1200 basechar 0
LayerCount: 2
Fore
SplineSet
416 0 m 1,0,-1
 0 1098 l 1,1,-1
 193 1098 l 1,2,-1
 426 451 l 2,3,4
 495 256 495 256 514 160 c 1,5,-1
 522 160 l 1,6,7
 525 173 525 173 529.5 189.5 c 128,-1,8
 534 206 534 206 540 225.5 c 128,-1,9
 546 245 546 245 614 451 c 1,10,-1
 848 1098 l 1,11,-1
 1040 1098 l 1,12,-1
 623 0 l 1,13,-1
 416 0 l 1,0,-1
EndSplineSet
EndChar

StartChar: w
Encoding: 119 119 66
Width: 1610
GlyphClass: 2
Flags: W
AnchorPoint: "Anchor-12" 1260 86 basechar 0
AnchorPoint: "Anchor-11" 1270 0 basechar 0
AnchorPoint: "Anchor-9" 0 1840 basechar 0
AnchorPoint: "Anchor-8" 1610 1840 basechar 0
AnchorPoint: "Anchor-7" 1610 -380 basechar 0
AnchorPoint: "Anchor-6" 1610 1540 basechar 0
AnchorPoint: "Anchor-5" 1520 1098 basechar 0
AnchorPoint: "Anchor-4" 1480 1098 basechar 0
AnchorPoint: "Anchor-2" 805 0 basechar 0
AnchorPoint: "Anchor-1" 1550 1200 basechar 0
AnchorPoint: "Anchor-0" 805 1200 basechar 0
LayerCount: 2
Fore
SplineSet
1071 0 m 1,0,-1
 883 618 l 2,1,2
 857 695 857 695 807 909 c 1,3,-1
 799 909 l 1,4,5
 757 714 757 714 725 616 c 2,6,-1
 528 0 l 1,7,-1
 324 0 l 1,8,-1
 23 1098 l 1,9,-1
 209 1098 l 1,10,11
 313 693 313 693 367.5 482 c 128,-1,12
 422 271 422 271 432 184 c 1,13,-1
 440 184 l 1,14,-1
 454 246 l 2,15,16
 485 389 485 389 514 479 c 2,17,-1
 709 1098 l 1,18,-1
 905 1098 l 1,19,-1
 1094 479 l 2,20,21
 1104 444 1104 444 1115.5 404.5 c 128,-1,22
 1127 365 1127 365 1137 326.5 c 128,-1,23
 1147 288 1147 288 1155 251.5 c 128,-1,24
 1163 215 1163 215 1167 186 c 1,25,-1
 1176 186 l 1,26,27
 1185 262 1185 262 1249 512 c 2,28,-1
 1403 1098 l 1,29,-1
 1587 1098 l 1,30,-1
 1282 0 l 1,31,-1
 1071 0 l 1,0,-1
EndSplineSet
EndChar

StartChar: x
Encoding: 120 120 67
Width: 1083
GlyphClass: 2
Flags: W
AnchorPoint: "Anchor-11" 1050 0 basechar 0
AnchorPoint: "Anchor-9" 0 1840 basechar 0
AnchorPoint: "Anchor-8" 1083 1840 basechar 0
AnchorPoint: "Anchor-7" 1083 -380 basechar 0
AnchorPoint: "Anchor-6" 1083 1540 basechar 0
AnchorPoint: "Anchor-5" 900 1098 basechar 0
AnchorPoint: "Anchor-4" 870 1098 basechar 0
AnchorPoint: "Anchor-2" 520 0 basechar 0
AnchorPoint: "Anchor-1" 1000 1200 basechar 0
AnchorPoint: "Anchor-0" 520 1200 basechar 0
LayerCount: 2
Fore
SplineSet
434 561 m 1,0,-1
 55 1098 l 1,1,-1
 260 1098 l 1,2,-1
 543 684 l 1,3,-1
 823 1098 l 1,4,-1
 1026 1098 l 1,5,-1
 647 561 l 1,6,-1
 1047 0 l 1,7,-1
 842 0 l 1,8,-1
 543 438 l 1,9,-1
 240 0 l 1,10,-1
 37 0 l 1,11,-1
 434 561 l 1,0,-1
EndSplineSet
EndChar

StartChar: y
Encoding: 121 121 68
Width: 1044
GlyphClass: 2
Flags: W
AnchorPoint: "Anchor-11" 320 -440 basechar 0
AnchorPoint: "Anchor-9" 0 1840 basechar 0
AnchorPoint: "Anchor-8" 1044 1840 basechar 0
AnchorPoint: "Anchor-7" 1044 -380 basechar 0
AnchorPoint: "Anchor-6" 1044 1540 basechar 0
AnchorPoint: "Anchor-5" 960 1098 basechar 0
AnchorPoint: "Anchor-4" 940 1098 basechar 0
AnchorPoint: "Anchor-2" 520 -492 basechar 0
AnchorPoint: "Anchor-1" 1000 1200 basechar 0
AnchorPoint: "Anchor-0" 520 1200 basechar 0
LayerCount: 2
Fore
SplineSet
2 1098 m 1,0,-1
 195 1098 l 1,1,-1
 432 473 l 2,2,3
 507 269 507 269 524 174 c 1,4,-1
 532 174 l 1,5,6
 541 211 541 211 573 312.5 c 128,-1,7
 605 414 605 414 627 475 c 2,8,-1
 850 1098 l 1,9,-1
 1044 1098 l 1,10,-1
 571 -152 l 2,11,12
 502 -334 502 -334 407 -413 c 128,-1,13
 312 -492 312 -492 172 -492 c 0,14,15
 97 -492 97 -492 23 -475 c 1,16,-1
 23 -332 l 1,17,18
 73 -344 73 -344 143 -344 c 0,19,20
 229 -344 229 -344 289 -296.5 c 128,-1,21
 349 -249 349 -249 387 -150 c 2,22,-1
 444 -4 l 1,23,-1
 2 1098 l 1,0,-1
EndSplineSet
EndChar

StartChar: z
Encoding: 122 122 69
Width: 963
GlyphClass: 2
Flags: W
AnchorPoint: "Anchor-12" 883 86 basechar 0
AnchorPoint: "Anchor-11" 740 0 basechar 0
AnchorPoint: "Anchor-9" 0 1840 basechar 0
AnchorPoint: "Anchor-8" 963 1840 basechar 0
AnchorPoint: "Anchor-7" 963 -380 basechar 0
AnchorPoint: "Anchor-6" 963 1540 basechar 0
AnchorPoint: "Anchor-5" 864 1098 basechar 0
AnchorPoint: "Anchor-4" 828 1098 basechar 0
AnchorPoint: "Anchor-2" 482 0 basechar 0
AnchorPoint: "Anchor-1" 860 1200 basechar 0
AnchorPoint: "Anchor-0" 482 1200 basechar 0
LayerCount: 2
Fore
SplineSet
883 0 m 1,0,-1
 80 0 l 1,1,-1
 80 119 l 1,2,-1
 670 958 l 1,3,-1
 115 958 l 1,4,-1
 115 1098 l 1,5,-1
 868 1098 l 1,6,-1
 868 963 l 1,7,-1
 287 139 l 1,8,-1
 883 139 l 1,9,-1
 883 0 l 1,0,-1
EndSplineSet
EndChar

StartChar: glyph70
Encoding: 65550 -1 70
Width: 1128
Flags: W
LayerCount: 2
Fore
SplineSet
489 1556 m 1,0,-1
 639 1556 l 1,1,-1
 639 -494 l 1,2,-1
 489 -494 l 1,3,-1
 489 1556 l 1,0,-1
EndSplineSet
EndChar

StartChar: exclamdown
Encoding: 161 161 71
Width: 551
GlyphClass: 2
Flags: W
LayerCount: 2
Fore
SplineSet
213 676 m 1,0,-1
 332 676 l 1,1,-1
 383 -373 l 1,2,-1
 162 -373 l 1,3,-1
 213 676 l 1,0,-1
401 979 m 256,4,5
 401 912 401 912 368.5 877 c 128,-1,6
 336 842 336 842 274 842 c 256,7,8
 212 842 212 842 179.5 876.5 c 128,-1,9
 147 911 147 911 147 979 c 0,10,11
 147 1045 147 1045 181 1081.5 c 128,-1,12
 215 1118 215 1118 274 1118 c 256,13,14
 333 1118 333 1118 367 1082 c 128,-1,15
 401 1046 401 1046 401 979 c 256,4,5
EndSplineSet
EndChar

StartChar: cent
Encoding: 162 162 72
Width: 1171
GlyphClass: 2
Flags: W
LayerCount: 2
Fore
SplineSet
975 240 m 1,0,1
 862 183 862 183 721 178 c 1,2,-1
 721 -20 l 1,3,-1
 584 -20 l 1,4,-1
 584 184 l 1,5,6
 380 215 380 215 283 353.5 c 128,-1,7
 186 492 186 492 186 741 c 0,8,9
 186 1249 186 1249 584 1311 c 1,10,-1
 584 1483 l 1,11,-1
 723 1483 l 1,12,-1
 723 1319 l 1,13,14
 875 1313 875 1313 993 1260 c 1,15,-1
 940 1110 l 1,16,17
 797 1163 797 1163 696 1163 c 0,18,19
 529 1163 529 1163 450 1059 c 128,-1,20
 371 955 371 955 371 743 c 0,21,22
 371 530 371 530 451 433 c 128,-1,23
 531 336 531 336 688 336 c 0,24,25
 777 336 777 336 844.5 353.5 c 128,-1,26
 912 371 912 371 975 397 c 1,27,-1
 975 240 l 1,0,1
EndSplineSet
EndChar

StartChar: sterling
Encoding: 163 163 73
Width: 1171
GlyphClass: 2
Flags: W
LayerCount: 2
Fore
SplineSet
684 1481 m 0,0,1
 874 1481 874 1481 1047 1397 c 1,2,-1
 983 1253 l 1,3,4
 816 1331 816 1331 688 1331 c 0,5,6
 571 1331 571 1331 510 1270.5 c 128,-1,7
 449 1210 449 1210 449 1075 c 2,8,-1
 449 791 l 1,9,-1
 866 791 l 1,10,-1
 866 655 l 1,11,-1
 449 655 l 1,12,-1
 449 442 l 2,13,14
 449 346 449 346 416.5 277.5 c 128,-1,15
 384 209 384 209 309 164 c 1,16,-1
 1096 164 l 1,17,-1
 1096 0 l 1,18,-1
 66 0 l 1,19,-1
 66 152 l 1,20,21
 268 199 268 199 268 440 c 2,22,-1
 268 655 l 1,23,-1
 72 655 l 1,24,-1
 72 791 l 1,25,-1
 268 791 l 1,26,-1
 268 1094 l 2,27,28
 268 1275 268 1275 380.5 1378 c 128,-1,29
 493 1481 493 1481 684 1481 c 0,0,1
EndSplineSet
EndChar

StartChar: currency
Encoding: 164 164 74
Width: 1171
GlyphClass: 2
Flags: W
LayerCount: 2
Fore
SplineSet
184 723 m 0,0,1
 184 840 184 840 256 948 c 1,2,-1
 121 1087 l 1,3,-1
 221 1184 l 1,4,-1
 356 1053 l 1,5,6
 456 1124 456 1124 586 1124 c 0,7,8
 707 1124 707 1124 811 1053 c 1,9,-1
 948 1184 l 1,10,-1
 1047 1087 l 1,11,-1
 915 950 l 1,12,13
 987 839 987 839 987 723 c 0,14,15
 987 593 987 593 915 494 c 1,16,-1
 1044 358 l 1,17,-1
 948 262 l 1,18,-1
 811 393 l 1,19,20
 708 324 708 324 586 324 c 0,21,22
 454 324 454 324 356 395 c 1,23,-1
 221 264 l 1,24,-1
 123 360 l 1,25,-1
 256 496 l 1,26,27
 184 604 184 604 184 723 c 0,0,1
322 723 m 0,28,29
 322 612 322 612 398.5 535.5 c 128,-1,30
 475 459 475 459 586 459 c 256,31,32
 697 459 697 459 774.5 535 c 128,-1,33
 852 611 852 611 852 723 c 0,34,35
 852 837 852 837 774.5 914 c 128,-1,36
 697 991 697 991 586 991 c 0,37,38
 476 991 476 991 399 913.5 c 128,-1,39
 322 836 322 836 322 723 c 0,28,29
EndSplineSet
EndChar

StartChar: yen
Encoding: 165 165 75
Width: 1171
GlyphClass: 2
Flags: W
LayerCount: 2
Fore
SplineSet
584 748 m 1,0,-1
 950 1462 l 1,1,-1
 1139 1462 l 1,2,-1
 727 694 l 1,3,-1
 981 694 l 1,4,-1
 981 563 l 1,5,-1
 672 563 l 1,6,-1
 672 395 l 1,7,-1
 981 395 l 1,8,-1
 981 264 l 1,9,-1
 672 264 l 1,10,-1
 672 0 l 1,11,-1
 496 0 l 1,12,-1
 496 264 l 1,13,-1
 186 264 l 1,14,-1
 186 395 l 1,15,-1
 496 395 l 1,16,-1
 496 563 l 1,17,-1
 186 563 l 1,18,-1
 186 694 l 1,19,-1
 436 694 l 1,20,-1
 29 1462 l 1,21,-1
 219 1462 l 1,22,-1
 584 748 l 1,0,-1
EndSplineSet
EndChar

StartChar: brokenbar
Encoding: 166 166 76
Width: 1128
GlyphClass: 2
Flags: W
LayerCount: 2
Fore
SplineSet
489 1556 m 1,0,-1
 639 1556 l 1,1,-1
 639 776 l 1,2,-1
 489 776 l 1,3,-1
 489 1556 l 1,0,-1
489 287 m 1,4,-1
 639 287 l 1,5,-1
 639 -494 l 1,6,-1
 489 -494 l 1,7,-1
 489 287 l 1,4,-1
EndSplineSet
EndChar

StartChar: section
Encoding: 167 167 77
Width: 1051
GlyphClass: 2
Flags: W
LayerCount: 2
Fore
SplineSet
137 809 m 0,0,1
 137 896 137 896 180 963.5 c 128,-1,2
 223 1031 223 1031 299 1067 c 1,3,4
 225 1107 225 1107 184 1163 c 128,-1,5
 143 1219 143 1219 143 1303 c 0,6,7
 143 1426 143 1426 247 1496.5 c 128,-1,8
 351 1567 351 1567 547 1567 c 0,9,10
 639 1567 639 1567 714.5 1553 c 128,-1,11
 790 1539 790 1539 897 1497 c 1,12,-1
 842 1360 l 1,13,14
 745 1399 745 1399 677 1413 c 128,-1,15
 609 1427 609 1427 535 1427 c 0,16,17
 420 1427 420 1427 365.5 1397.5 c 128,-1,18
 311 1368 311 1368 311 1307 c 0,19,20
 311 1251 311 1251 369 1209 c 128,-1,21
 427 1167 427 1167 582 1112 c 0,22,23
 764 1045 764 1045 839.5 968.5 c 128,-1,24
 915 892 915 892 915 784 c 0,25,26
 915 604 915 604 762 512 c 1,27,28
 913 432 913 432 913 287 c 0,29,30
 913 145 913 145 795 67.5 c 128,-1,31
 677 -10 677 -10 467 -10 c 256,32,33
 257 -10 257 -10 121 57 c 1,34,-1
 121 211 l 1,35,36
 208 172 208 172 303 149.5 c 128,-1,37
 398 127 398 127 475 127 c 0,38,39
 603 127 603 127 672 164 c 128,-1,40
 741 201 741 201 741 272 c 0,41,42
 741 333 741 333 688 372.5 c 128,-1,43
 635 412 635 412 477 473 c 0,44,45
 280 546 280 546 208.5 621 c 128,-1,46
 137 696 137 696 137 809 c 0,0,1
291 829 m 0,47,48
 291 778 291 778 318 740.5 c 128,-1,49
 345 703 345 703 405.5 668 c 128,-1,50
 466 633 466 633 629 571 c 1,51,52
 760 647 760 647 760 758 c 0,53,54
 760 839 760 839 690 893.5 c 128,-1,55
 620 948 620 948 438 1006 c 1,56,57
 373 988 373 988 332 938.5 c 128,-1,58
 291 889 291 889 291 829 c 0,47,48
EndSplineSet
EndChar

StartChar: dieresis
Encoding: 168 168 78
Width: 1188
GlyphClass: 4
Flags: W
LayerCount: 2
Fore
SplineSet
305 1395 m 256,0,1
 305 1448 305 1448 333 1471.5 c 128,-1,2
 361 1495 361 1495 401 1495 c 0,3,4
 440 1495 440 1495 469 1471.5 c 128,-1,5
 498 1448 498 1448 498 1395 c 256,6,7
 498 1342 498 1342 469 1317 c 128,-1,8
 440 1292 440 1292 401 1292 c 0,9,10
 361 1292 361 1292 333 1317 c 128,-1,11
 305 1342 305 1342 305 1395 c 256,0,1
690 1395 m 256,12,13
 690 1448 690 1448 718 1471.5 c 128,-1,14
 746 1495 746 1495 784 1495 c 0,15,16
 823 1495 823 1495 852 1471.5 c 128,-1,17
 881 1448 881 1448 881 1395 c 256,18,19
 881 1342 881 1342 852 1317 c 128,-1,20
 823 1292 823 1292 784 1292 c 0,21,22
 746 1292 746 1292 718 1317 c 128,-1,23
 690 1342 690 1342 690 1395 c 256,12,13
EndSplineSet
EndChar

StartChar: copyright
Encoding: 169 169 79
Width: 1704
GlyphClass: 2
Flags: W
LayerCount: 2
Fore
SplineSet
893 1055 m 0,0,1
 774 1055 774 1055 706.5 969.5 c 128,-1,2
 639 884 639 884 639 731 c 0,3,4
 639 574 639 574 697.5 490 c 128,-1,5
 756 406 756 406 891 406 c 0,6,7
 986 406 986 406 1106 453 c 1,8,-1
 1106 322 l 1,9,10
 1046 295 1046 295 997 283.5 c 128,-1,11
 948 272 948 272 883 272 c 0,12,13
 690 272 690 272 584.5 392 c 128,-1,14
 479 512 479 512 479 731 c 0,15,16
 479 940 479 940 590 1064 c 128,-1,17
 701 1188 701 1188 891 1188 c 0,18,19
 1021 1188 1021 1188 1143 1126 c 1,20,-1
 1083 1001 l 1,21,22
 977 1055 977 1055 893 1055 c 0,0,1
100 731 m 0,23,24
 100 931 100 931 200 1106 c 128,-1,25
 300 1281 300 1281 475 1382 c 128,-1,26
 650 1483 650 1483 852 1483 c 0,27,28
 1052 1483 1052 1483 1227 1383 c 128,-1,29
 1402 1283 1402 1283 1503 1108 c 128,-1,30
 1604 933 1604 933 1604 731 c 0,31,32
 1604 534 1604 534 1507 361 c 128,-1,33
 1410 188 1410 188 1235 84 c 128,-1,34
 1060 -20 1060 -20 852 -20 c 0,35,36
 645 -20 645 -20 470 83.5 c 128,-1,37
 295 187 295 187 197.5 360 c 128,-1,38
 100 533 100 533 100 731 c 0,23,24
209 731 m 256,39,40
 209 559 209 559 295 410 c 128,-1,41
 381 261 381 261 530.5 174.5 c 128,-1,42
 680 88 680 88 852 88 c 256,43,44
 1024 88 1024 88 1173 174 c 128,-1,45
 1322 260 1322 260 1408.5 409.5 c 128,-1,46
 1495 559 1495 559 1495 731 c 256,47,48
 1495 903 1495 903 1409 1052 c 128,-1,49
 1323 1201 1323 1201 1173.5 1287.5 c 128,-1,50
 1024 1374 1024 1374 852 1374 c 256,51,52
 680 1374 680 1374 531 1288 c 128,-1,53
 382 1202 382 1202 295.5 1052.5 c 128,-1,54
 209 903 209 903 209 731 c 256,39,40
EndSplineSet
EndChar

StartChar: ordfeminine
Encoding: 170 170 80
Width: 731
GlyphClass: 2
Flags: W
LayerCount: 2
Fore
SplineSet
535 797 m 1,0,-1
 510 883 l 1,1,2
 416 784 416 784 276 784 c 0,3,4
 179 784 179 784 122.5 834 c 128,-1,5
 66 884 66 884 66 987 c 256,6,7
 66 1090 66 1090 145 1143 c 128,-1,8
 224 1196 224 1196 389 1202 c 2,9,-1
 504 1206 l 1,10,-1
 504 1251 l 2,11,12
 504 1312 504 1312 465 1342 c 128,-1,13
 426 1372 426 1372 358 1372 c 0,14,15
 258 1372 258 1372 152 1319 c 1,16,17
 126 1381 126 1381 106 1419 c 1,18,19
 228 1479 228 1479 362 1479 c 256,20,21
 496 1479 496 1479 563.5 1424 c 128,-1,22
 631 1369 631 1369 631 1247 c 2,23,-1
 631 797 l 1,24,-1
 535 797 l 1,0,-1
197 987 m 0,25,26
 197 889 197 889 307 889 c 0,27,28
 504 889 504 889 504 1067 c 2,29,-1
 504 1114 l 1,30,-1
 406 1110 l 2,31,32
 295 1106 295 1106 246 1077.5 c 128,-1,33
 197 1049 197 1049 197 987 c 0,25,26
EndSplineSet
EndChar

StartChar: guillemotleft
Encoding: 171 171 81
Width: 1042
GlyphClass: 2
Flags: W
LayerCount: 2
Fore
SplineSet
82 553 m 1,0,-1
 426 965 l 1,1,-1
 555 891 l 1,2,-1
 268 541 l 1,3,-1
 555 190 l 1,4,-1
 426 115 l 1,5,-1
 82 526 l 1,6,-1
 82 553 l 1,0,-1
487 553 m 1,7,-1
 836 965 l 1,8,-1
 963 891 l 1,9,-1
 676 541 l 1,10,-1
 963 190 l 1,11,-1
 836 115 l 1,12,-1
 487 526 l 1,13,-1
 487 553 l 1,7,-1
EndSplineSet
EndChar

StartChar: logicalnot
Encoding: 172 172 82
Width: 1171
GlyphClass: 2
Flags: W
LayerCount: 2
Fore
SplineSet
1065 795 m 1,0,-1
 1065 262 l 1,1,-1
 920 262 l 1,2,-1
 920 649 l 1,3,-1
 102 649 l 1,4,-1
 102 795 l 1,5,-1
 1065 795 l 1,0,-1
EndSplineSet
EndChar

StartChar: registered
Encoding: 174 174 84
Width: 1704
GlyphClass: 2
Flags: W
LayerCount: 2
Fore
SplineSet
727 764 m 1,0,-1
 829 764 l 2,1,2
 910 764 910 764 954.5 804 c 128,-1,3
 999 844 999 844 999 909 c 0,4,5
 999 982 999 982 958 1014.5 c 128,-1,6
 917 1047 917 1047 827 1047 c 2,7,-1
 727 1047 l 1,8,-1
 727 764 l 1,0,-1
1157 913 m 0,9,10
 1157 830 1157 830 1114 769.5 c 128,-1,11
 1071 709 1071 709 997 680 c 1,12,-1
 1235 283 l 1,13,-1
 1059 283 l 1,14,-1
 854 637 l 1,15,-1
 727 637 l 1,16,-1
 727 283 l 1,17,-1
 571 283 l 1,18,-1
 571 1178 l 1,19,-1
 834 1178 l 2,20,21
 1002 1178 1002 1178 1079.5 1112.5 c 128,-1,22
 1157 1047 1157 1047 1157 913 c 0,9,10
100 731 m 0,23,24
 100 931 100 931 200 1106 c 128,-1,25
 300 1281 300 1281 475 1382 c 128,-1,26
 650 1483 650 1483 852 1483 c 0,27,28
 1052 1483 1052 1483 1227 1383 c 128,-1,29
 1402 1283 1402 1283 1503 1108 c 128,-1,30
 1604 933 1604 933 1604 731 c 0,31,32
 1604 534 1604 534 1507 361 c 128,-1,33
 1410 188 1410 188 1235 84 c 128,-1,34
 1060 -20 1060 -20 852 -20 c 0,35,36
 645 -20 645 -20 470 83.5 c 128,-1,37
 295 187 295 187 197.5 360 c 128,-1,38
 100 533 100 533 100 731 c 0,23,24
209 731 m 256,39,40
 209 559 209 559 295 410 c 128,-1,41
 381 261 381 261 530.5 174.5 c 128,-1,42
 680 88 680 88 852 88 c 256,43,44
 1024 88 1024 88 1173 174 c 128,-1,45
 1322 260 1322 260 1408.5 409.5 c 128,-1,46
 1495 559 1495 559 1495 731 c 256,47,48
 1495 903 1495 903 1409 1052 c 128,-1,49
 1323 1201 1323 1201 1173.5 1287.5 c 128,-1,50
 1024 1374 1024 1374 852 1374 c 256,51,52
 680 1374 680 1374 531 1288 c 128,-1,53
 382 1202 382 1202 295.5 1052.5 c 128,-1,54
 209 903 209 903 209 731 c 256,39,40
EndSplineSet
EndChar

StartChar: glyph85
Encoding: 65551 -1 85
Width: 1024
Flags: W
LayerCount: 2
Fore
SplineSet
1030 1556 m 1,0,-1
 -6 1556 l 1,1,-1
 -6 1692 l 1,2,-1
 1030 1692 l 1,3,-1
 1030 1556 l 1,0,-1
EndSplineSet
EndChar

StartChar: degree
Encoding: 176 176 86
Width: 877
GlyphClass: 2
Flags: W
LayerCount: 2
Fore
SplineSet
123 1167 m 0,0,1
 123 1302 123 1302 215 1392.5 c 128,-1,2
 307 1483 307 1483 438 1483 c 0,3,4
 571 1483 571 1483 662.5 1391 c 128,-1,5
 754 1299 754 1299 754 1167 c 0,6,7
 754 1036 754 1036 662 945 c 128,-1,8
 570 854 570 854 438 854 c 0,9,10
 308 854 308 854 215.5 943.5 c 128,-1,11
 123 1033 123 1033 123 1167 c 0,0,1
246 1167 m 0,12,13
 246 1088 246 1088 303.5 1031.5 c 128,-1,14
 361 975 361 975 440 975 c 0,15,16
 521 975 521 975 576 1032 c 128,-1,17
 631 1089 631 1089 631 1167 c 0,18,19
 631 1247 631 1247 576 1303.5 c 128,-1,20
 521 1360 521 1360 440 1360 c 0,21,22
 360 1360 360 1360 303 1304 c 128,-1,23
 246 1248 246 1248 246 1167 c 0,12,13
EndSplineSet
EndChar

StartChar: plusminus
Encoding: 177 177 87
Width: 1171
GlyphClass: 2
Flags: W
LayerCount: 2
Fore
SplineSet
657 801 m 1,0,-1
 1065 801 l 1,1,-1
 1065 655 l 1,2,-1
 657 655 l 1,3,-1
 657 233 l 1,4,-1
 510 233 l 1,5,-1
 510 655 l 1,6,-1
 102 655 l 1,7,-1
 102 801 l 1,8,-1
 510 801 l 1,9,-1
 510 1225 l 1,10,-1
 657 1225 l 1,11,-1
 657 801 l 1,0,-1
102 0 m 1,12,-1
 102 145 l 1,13,-1
 1065 145 l 1,14,-1
 1065 0 l 1,15,-1
 102 0 l 1,12,-1
EndSplineSet
EndChar

StartChar: uni00B2
Encoding: 178 178 88
Width: 717
GlyphClass: 2
Flags: W
LayerCount: 2
Fore
SplineSet
627 586 m 1,0,-1
 49 586 l 1,1,-1
 49 696 l 1,2,-1
 285 926 l 2,3,4
 412 1049 412 1049 447.5 1105.5 c 128,-1,5
 483 1162 483 1162 483 1231 c 0,6,7
 483 1296 483 1296 445.5 1329 c 128,-1,8
 408 1362 408 1362 346 1362 c 256,9,10
 284 1362 284 1362 234 1338 c 128,-1,11
 184 1314 184 1314 131 1274 c 1,12,-1
 59 1368 l 1,13,14
 192 1481 192 1481 348 1481 c 0,15,16
 480 1481 480 1481 554.5 1415.5 c 128,-1,17
 629 1350 629 1350 629 1239 c 0,18,19
 629 1193 629 1193 616.5 1153.5 c 128,-1,20
 604 1114 604 1114 578 1073.5 c 128,-1,21
 552 1033 552 1033 510.5 987 c 128,-1,22
 469 941 469 941 227 713 c 1,23,-1
 627 713 l 1,24,-1
 627 586 l 1,0,-1
EndSplineSet
EndChar

StartChar: uni00B3
Encoding: 179 179 89
Width: 717
GlyphClass: 2
Flags: W
LayerCount: 2
Fore
SplineSet
631 1255 m 0,0,1
 631 1104 631 1104 479 1047 c 1,2,3
 657 1003 657 1003 657 838 c 0,4,5
 657 711 657 711 565 640 c 128,-1,6
 473 569 473 569 303 569 c 0,7,8
 151 569 151 569 35 627 c 1,9,-1
 35 756 l 1,10,11
 177 686 177 686 305 686 c 0,12,13
 510 686 510 686 510 842 c 0,14,15
 510 983 510 983 285 983 c 2,16,-1
 168 983 l 1,17,-1
 168 1096 l 1,18,-1
 285 1096 l 2,19,20
 388 1096 388 1096 435.5 1135 c 128,-1,21
 483 1174 483 1174 483 1239 c 0,22,23
 483 1298 483 1298 444.5 1331 c 128,-1,24
 406 1364 406 1364 340 1364 c 0,25,26
 236 1364 236 1364 113 1286 c 1,27,-1
 39 1380 l 1,28,29
 113 1435 113 1435 185 1458 c 128,-1,30
 257 1481 257 1481 338 1481 c 0,31,32
 474 1481 474 1481 552.5 1420.5 c 128,-1,33
 631 1360 631 1360 631 1255 c 0,0,1
EndSplineSet
EndChar

StartChar: acute
Encoding: 180 180 90
Width: 1188
GlyphClass: 4
Flags: W
LayerCount: 2
Fore
SplineSet
387 1266 m 1,0,1
 425 1314 425 1314 483.5 1402.5 c 128,-1,2
 542 1491 542 1491 582 1569 c 1,3,-1
 799 1569 l 1,4,-1
 799 1548 l 1,5,6
 755 1484 755 1484 662 1387 c 128,-1,7
 569 1290 569 1290 506 1241 c 1,8,-1
 387 1241 l 1,9,-1
 387 1266 l 1,0,1
EndSplineSet
EndChar

StartChar: mu
Encoding: 181 181 91
Width: 1276
GlyphClass: 2
Flags: W
LayerCount: 2
Fore
SplineSet
354 389 m 2,0,1
 354 129 354 129 600 129 c 0,2,3
 769 129 769 129 845.5 222.5 c 128,-1,4
 922 316 922 316 922 526 c 2,5,-1
 922 1098 l 1,6,-1
 1102 1098 l 1,7,-1
 1102 0 l 1,8,-1
 956 0 l 1,9,-1
 928 147 l 1,10,-1
 918 147 l 1,11,12
 809 -20 809 -20 588 -20 c 0,13,14
 442 -20 442 -20 352 72 c 1,15,-1
 344 72 l 1,16,17
 354 -2 354 -2 354 -172 c 2,18,-1
 354 -492 l 1,19,-1
 174 -492 l 1,20,-1
 174 1098 l 1,21,-1
 354 1098 l 1,22,-1
 354 389 l 2,0,1
EndSplineSet
EndChar

StartChar: paragraph
Encoding: 182 182 92
Width: 1341
GlyphClass: 2
Flags: W
LayerCount: 2
Fore
SplineSet
1124 -260 m 1,0,-1
 1006 -260 l 1,1,-1
 1006 1442 l 1,2,-1
 797 1442 l 1,3,-1
 797 -260 l 1,4,-1
 678 -260 l 1,5,-1
 678 559 l 1,6,7
 616 541 616 541 532 541 c 0,8,9
 316 541 316 541 214.5 666 c 128,-1,10
 113 791 113 791 113 1042 c 0,11,12
 113 1302 113 1302 222 1429 c 128,-1,13
 331 1556 331 1556 563 1556 c 2,14,-1
 1124 1556 l 1,15,-1
 1124 -260 l 1,0,-1
EndSplineSet
EndChar

StartChar: periodcentered
Encoding: 183 183 93
Width: 549
GlyphClass: 2
Flags: W
LayerCount: 2
Fore
SplineSet
147 723 m 256,0,1
 147 788 147 788 179.5 825 c 128,-1,2
 212 862 212 862 272 862 c 0,3,4
 334 862 334 862 367.5 824.5 c 128,-1,5
 401 787 401 787 401 723 c 256,6,7
 401 659 401 659 367 621.5 c 128,-1,8
 333 584 333 584 272 584 c 0,9,10
 213 584 213 584 180 621 c 128,-1,11
 147 658 147 658 147 723 c 256,0,1
EndSplineSet
EndChar

StartChar: cedilla
Encoding: 184 184 94
Width: 461
GlyphClass: 4
Flags: W
LayerCount: 2
Fore
SplineSet
434 -285 m 0,0,1
 434 -384 434 -384 358.5 -438 c 128,-1,2
 283 -492 283 -492 131 -492 c 0,3,4
 66 -492 66 -492 29 -481 c 1,5,-1
 29 -369 l 1,6,7
 65 -379 65 -379 137 -379 c 0,8,9
 212 -379 212 -379 250.5 -359.5 c 128,-1,10
 289 -340 289 -340 289 -289 c 0,11,12
 289 -200 289 -200 102 -176 c 1,13,-1
 190 0 l 1,14,-1
 309 0 l 1,15,-1
 256 -109 l 1,16,17
 434 -147 434 -147 434 -285 c 0,0,1
EndSplineSet
EndChar

StartChar: uni00B9
Encoding: 185 185 95
Width: 717
GlyphClass: 2
Flags: W
LayerCount: 2
Fore
SplineSet
342 1462 m 1,0,-1
 492 1462 l 1,1,-1
 492 586 l 1,2,-1
 346 586 l 1,3,-1
 346 1151 l 2,4,5
 346 1218 346 1218 354 1333 c 1,6,7
 323 1305 323 1305 300 1286 c 128,-1,8
 277 1267 277 1267 147 1174 c 1,9,-1
 76 1274 l 1,10,-1
 342 1462 l 1,0,-1
EndSplineSet
EndChar

StartChar: ordmasculine
Encoding: 186 186 96
Width: 770
GlyphClass: 2
Flags: W
LayerCount: 2
Fore
SplineSet
707 1133 m 0,0,1
 707 970 707 970 620.5 877 c 128,-1,2
 534 784 534 784 383 784 c 0,3,4
 238 784 238 784 152 876.5 c 128,-1,5
 66 969 66 969 66 1133 c 0,6,7
 66 1298 66 1298 150 1388.5 c 128,-1,8
 234 1479 234 1479 387 1479 c 0,9,10
 536 1479 536 1479 621.5 1388 c 128,-1,11
 707 1297 707 1297 707 1133 c 0,0,1
195 1133 m 256,12,13
 195 1012 195 1012 239 952.5 c 128,-1,14
 283 893 283 893 385 893 c 0,15,16
 485 893 485 893 530 952.5 c 128,-1,17
 575 1012 575 1012 575 1133 c 256,18,19
 575 1254 575 1254 530 1312 c 128,-1,20
 485 1370 485 1370 385 1370 c 256,21,22
 285 1370 285 1370 240 1312 c 128,-1,23
 195 1254 195 1254 195 1133 c 256,12,13
EndSplineSet
EndChar

StartChar: guillemotright
Encoding: 187 187 97
Width: 1042
GlyphClass: 2
Flags: W
LayerCount: 2
Fore
SplineSet
961 526 m 1,0,-1
 612 115 l 1,1,-1
 485 190 l 1,2,-1
 772 541 l 1,3,-1
 485 891 l 1,4,-1
 612 965 l 1,5,-1
 961 553 l 1,6,-1
 961 526 l 1,0,-1
553 526 m 1,7,-1
 207 115 l 1,8,-1
 80 190 l 1,9,-1
 367 541 l 1,10,-1
 80 891 l 1,11,-1
 207 965 l 1,12,-1
 553 553 l 1,13,-1
 553 526 l 1,7,-1
EndSplineSet
EndChar

StartChar: questiondown
Encoding: 191 191 101
Width: 889
GlyphClass: 2
Flags: W
LayerCount: 2
Fore
SplineSet
602 676 m 1,0,-1
 602 623 l 2,1,2
 602 506 602 506 565 431 c 128,-1,3
 528 356 528 356 428 272 c 0,4,5
 295 161 295 161 260 106 c 128,-1,6
 225 51 225 51 225 -33 c 0,7,8
 225 -129 225 -129 288.5 -183.5 c 128,-1,9
 352 -238 352 -238 471 -238 c 0,10,11
 630 -238 630 -238 801 -150 c 1,12,-1
 864 -295 l 1,13,14
 666 -393 666 -393 465 -393 c 0,15,16
 271 -393 271 -393 161 -299.5 c 128,-1,17
 51 -206 51 -206 51 -37 c 0,18,19
 51 36 51 36 71 92.5 c 128,-1,20
 91 149 91 149 132 200 c 128,-1,21
 173 251 173 251 293 354 c 0,22,23
 396 444 396 444 426.5 499.5 c 128,-1,24
 457 555 457 555 457 643 c 2,25,-1
 457 676 l 1,26,-1
 602 676 l 1,0,-1
649 979 m 0,27,28
 649 842 649 842 522 842 c 0,29,30
 460 842 460 842 428.5 877.5 c 128,-1,31
 397 913 397 913 397 979 c 0,32,33
 397 1052 397 1052 433.5 1085 c 128,-1,34
 470 1118 470 1118 522 1118 c 0,35,36
 576 1118 576 1118 612.5 1085 c 128,-1,37
 649 1052 649 1052 649 979 c 0,27,28
EndSplineSet
EndChar

StartChar: Aring
Encoding: 197 197 107
Width: 1309
GlyphClass: 2
Flags: W
AnchorPoint: "Anchor-11" 1307 0 basechar 0
AnchorPoint: "Anchor-9" 0 1840 basechar 0
AnchorPoint: "Anchor-8" 1309 1840 basechar 0
AnchorPoint: "Anchor-7" 1309 -380 basechar 0
AnchorPoint: "Anchor-6" 1309 1840 basechar 0
AnchorPoint: "Anchor-2" 654 0 basechar 0
AnchorPoint: "Anchor-1" 1100 1540 basechar 0
AnchorPoint: "Anchor-0" 654 1840 basechar 0
LayerCount: 2
Fore
SplineSet
877 1585 m 0,0,1
 877 1516 877 1516 847 1466.5 c 128,-1,2
 817 1417 817 1417 766 1393 c 1,3,-1
 1307 0 l 1,4,-1
 1116 0 l 1,5,-1
 940 453 l 1,6,-1
 360 453 l 1,7,-1
 186 0 l 1,8,-1
 0 0 l 1,9,-1
 539 1386 l 1,10,11
 486 1411 486 1411 456 1461 c 128,-1,12
 426 1511 426 1511 426 1583 c 0,13,14
 426 1681 426 1681 486 1739.5 c 128,-1,15
 546 1798 546 1798 649 1798 c 0,16,17
 751 1798 751 1798 814 1739 c 128,-1,18
 877 1680 877 1680 877 1585 c 0,0,1
885 616 m 1,19,-1
 721 1059 l 1,20,-1
 651 1278 l 1,21,22
 621 1158 621 1158 588 1059 c 2,23,-1
 422 616 l 1,24,-1
 885 616 l 1,19,-1
764 1583 m 256,25,26
 764 1637 764 1637 731.5 1667.5 c 128,-1,27
 699 1698 699 1698 649 1698 c 0,28,29
 600 1698 600 1698 567.5 1667.5 c 128,-1,30
 535 1637 535 1637 535 1583 c 256,31,32
 535 1529 535 1529 564 1498.5 c 128,-1,33
 593 1468 593 1468 649 1468 c 0,34,35
 700 1468 700 1468 732 1498.5 c 128,-1,36
 764 1529 764 1529 764 1583 c 256,25,26
EndSplineSet
EndChar

StartChar: AE
Encoding: 198 198 108
Width: 1804
GlyphClass: 2
Flags: W
AnchorPoint: "Anchor-11" 1605 0 basechar 0
AnchorPoint: "Anchor-9" 0 1840 basechar 0
AnchorPoint: "Anchor-8" 1804 1840 basechar 0
AnchorPoint: "Anchor-7" 1804 -380 basechar 0
AnchorPoint: "Anchor-6" 1804 1840 basechar 0
AnchorPoint: "Anchor-2" 850 0 basechar 0
AnchorPoint: "Anchor-1" 1680 1540 basechar 0
AnchorPoint: "Anchor-0" 1150 1540 basechar 0
LayerCount: 2
Fore
SplineSet
1681 0 m 1,0,-1
 920 0 l 1,1,-1
 920 453 l 1,2,-1
 408 453 l 1,3,-1
 188 0 l 1,4,-1
 -2 0 l 1,5,-1
 692 1462 l 1,6,-1
 1681 1462 l 1,7,-1
 1681 1300 l 1,8,-1
 1104 1300 l 1,9,-1
 1104 844 l 1,10,-1
 1642 844 l 1,11,-1
 1642 684 l 1,12,-1
 1104 684 l 1,13,-1
 1104 162 l 1,14,-1
 1681 162 l 1,15,-1
 1681 0 l 1,0,-1
479 616 m 1,16,-1
 920 616 l 1,17,-1
 920 1298 l 1,18,-1
 801 1298 l 1,19,-1
 479 616 l 1,16,-1
EndSplineSet
EndChar

StartChar: Eth
Encoding: 208 208 118
Width: 1495
GlyphClass: 2
Flags: W
AnchorPoint: "Anchor-11" 670 0 basechar 0
AnchorPoint: "Anchor-9" 0 1840 basechar 0
AnchorPoint: "Anchor-8" 1495 1840 basechar 0
AnchorPoint: "Anchor-7" 1495 -380 basechar 0
AnchorPoint: "Anchor-6" 1495 1840 basechar 0
AnchorPoint: "Anchor-2" 680 0 basechar 0
AnchorPoint: "Anchor-1" 1260 1540 basechar 0
AnchorPoint: "Anchor-0" 680 1540 basechar 0
LayerCount: 2
Fore
SplineSet
1370 745 m 0,0,1
 1370 386 1370 386 1173.5 193 c 128,-1,2
 977 0 977 0 604 0 c 2,3,-1
 213 0 l 1,4,-1
 213 643 l 1,5,-1
 61 643 l 1,6,-1
 61 803 l 1,7,-1
 213 803 l 1,8,-1
 213 1462 l 1,9,-1
 649 1462 l 2,10,11
 990 1462 990 1462 1180 1273.5 c 128,-1,12
 1370 1085 1370 1085 1370 745 c 0,0,1
1176 739 m 0,13,14
 1176 1019 1176 1019 1037 1162 c 128,-1,15
 898 1305 898 1305 623 1305 c 2,16,-1
 397 1305 l 1,17,-1
 397 803 l 1,18,-1
 762 803 l 1,19,-1
 762 643 l 1,20,-1
 397 643 l 1,21,-1
 397 158 l 1,22,-1
 582 158 l 2,23,24
 1176 158 1176 158 1176 739 c 0,13,14
EndSplineSet
EndChar

StartChar: Oslash
Encoding: 216 216 125
Width: 1599
GlyphClass: 2
Flags: W
AnchorPoint: "Anchor-11" 920 0 basechar 0
AnchorPoint: "Anchor-9" 0 1840 basechar 0
AnchorPoint: "Anchor-8" 1599 1840 basechar 0
AnchorPoint: "Anchor-7" 1599 -380 basechar 0
AnchorPoint: "Anchor-6" 1599 1840 basechar 0
AnchorPoint: "Anchor-2" 800 0 basechar 0
AnchorPoint: "Anchor-1" 1340 1540 basechar 0
AnchorPoint: "Anchor-0" 800 1540 basechar 0
LayerCount: 2
Fore
SplineSet
1475 733 m 0,0,1
 1475 382 1475 382 1297.5 181 c 128,-1,2
 1120 -20 1120 -20 801 -20 c 0,3,4
 569 -20 569 -20 422 76 c 1,5,-1
 324 -63 l 1,6,-1
 199 18 l 1,7,-1
 305 170 l 1,8,9
 125 368 125 368 125 735 c 0,10,11
 125 1092 125 1092 300.5 1288.5 c 128,-1,12
 476 1485 476 1485 803 1485 c 0,13,14
 1007 1485 1007 1485 1167 1393 c 1,15,-1
 1262 1528 l 1,16,-1
 1386 1444 l 1,17,-1
 1282 1298 l 1,18,19
 1475 1095 1475 1095 1475 733 c 0,0,1
1280 733 m 0,20,21
 1280 997 1280 997 1176 1147 c 1,22,-1
 520 217 l 1,23,24
 634 139 634 139 801 139 c 0,25,26
 1036 139 1036 139 1158 289 c 128,-1,27
 1280 439 1280 439 1280 733 c 0,20,21
319 733 m 0,28,29
 319 474 319 474 416 328 c 1,30,-1
 1069 1251 l 1,31,32
 960 1323 960 1323 803 1323 c 0,33,34
 565 1323 565 1323 442 1172.5 c 128,-1,35
 319 1022 319 1022 319 733 c 0,28,29
EndSplineSet
EndChar

StartChar: Thorn
Encoding: 222 222 131
Width: 1239
GlyphClass: 2
Flags: W
AnchorPoint: "Anchor-11" 383 0 basechar 0
AnchorPoint: "Anchor-9" 0 1840 basechar 0
AnchorPoint: "Anchor-8" 1239 1840 basechar 0
AnchorPoint: "Anchor-7" 1239 -380 basechar 0
AnchorPoint: "Anchor-6" 1239 1540 basechar 0
AnchorPoint: "Anchor-2" 620 0 basechar 0
AnchorPoint: "Anchor-1" 1100 1260 basechar 0
AnchorPoint: "Anchor-0" 620 1540 basechar 0
LayerCount: 2
Fore
SplineSet
1135 782 m 0,0,1
 1135 556 1135 556 984.5 436.5 c 128,-1,2
 834 317 834 317 549 317 c 2,3,-1
 383 317 l 1,4,-1
 383 0 l 1,5,-1
 199 0 l 1,6,-1
 199 1462 l 1,7,-1
 383 1462 l 1,8,-1
 383 1208 l 1,9,-1
 580 1208 l 2,10,11
 861 1208 861 1208 998 1102.5 c 128,-1,12
 1135 997 1135 997 1135 782 c 0,0,1
383 473 m 1,13,-1
 530 473 l 2,14,15
 751 473 751 473 847.5 544 c 128,-1,16
 944 615 944 615 944 772 c 0,17,18
 944 916 944 916 853 983.5 c 128,-1,19
 762 1051 762 1051 565 1051 c 2,20,-1
 383 1051 l 1,21,-1
 383 473 l 1,13,-1
EndSplineSet
EndChar

StartChar: germandbls
Encoding: 223 223 132
Width: 1292
GlyphClass: 2
Flags: W
AnchorPoint: "Anchor-11" 920 0 basechar 0
AnchorPoint: "Anchor-9" 0 1840 basechar 0
AnchorPoint: "Anchor-8" 1292 1840 basechar 0
AnchorPoint: "Anchor-7" 1292 -380 basechar 0
AnchorPoint: "Anchor-6" 1292 1540 basechar 0
AnchorPoint: "Anchor-2" 600 0 basechar 0
AnchorPoint: "Anchor-1" 1050 1460 basechar 0
AnchorPoint: "Anchor-0" 600 1680 basechar 0
LayerCount: 2
Fore
SplineSet
1069 1264 m 0,0,1
 1069 1125 1069 1125 926 1013 c 0,2,3
 847 951 847 951 814.5 914.5 c 128,-1,4
 782 878 782 878 782 844 c 0,5,6
 782 804 782 804 814 771 c 128,-1,7
 846 738 846 738 963 662 c 0,8,9
 1100 570 1100 570 1150 491.5 c 128,-1,10
 1200 413 1200 413 1200 313 c 0,11,12
 1200 152 1200 152 1101.5 66 c 128,-1,13
 1003 -20 1003 -20 819 -20 c 0,14,15
 632 -20 632 -20 522 49 c 1,16,-1
 522 211 l 1,17,18
 586 171 586 171 665.5 148 c 128,-1,19
 745 125 745 125 813 125 c 0,20,21
 1024 125 1024 125 1024 301 c 0,22,23
 1024 372 1024 372 983.5 424 c 128,-1,24
 943 476 943 476 831 547 c 0,25,26
 713 622 713 622 660.5 684.5 c 128,-1,27
 608 747 608 747 608 834 c 0,28,29
 608 897 608 897 642 949.5 c 128,-1,30
 676 1002 676 1002 748 1055 c 0,31,32
 822 1110 822 1110 854.5 1156 c 128,-1,33
 887 1202 887 1202 887 1253 c 0,34,35
 887 1331 887 1331 820.5 1374 c 128,-1,36
 754 1417 754 1417 627 1417 c 0,37,38
 354 1417 354 1417 354 1196 c 2,39,-1
 354 0 l 1,40,-1
 174 0 l 1,41,-1
 174 1196 l 2,42,43
 174 1377 174 1377 288 1472 c 128,-1,44
 402 1567 402 1567 627 1567 c 0,45,46
 837 1567 837 1567 953 1487 c 128,-1,47
 1069 1407 1069 1407 1069 1264 c 0,0,1
EndSplineSet
EndChar

StartChar: ae
Encoding: 230 230 139
Width: 1769
GlyphClass: 2
Flags: W
AnchorPoint: "Anchor-11" 1360 0 basechar 0
AnchorPoint: "Anchor-9" 0 1840 basechar 0
AnchorPoint: "Anchor-8" 1769 1840 basechar 0
AnchorPoint: "Anchor-7" 1769 -380 basechar 0
AnchorPoint: "Anchor-6" 1769 1540 basechar 0
AnchorPoint: "Anchor-4" 1590 900 basechar 0
AnchorPoint: "Anchor-2" 860 0 basechar 0
AnchorPoint: "Anchor-1" 1600 1200 basechar 0
AnchorPoint: "Anchor-0" 860 1200 basechar 0
LayerCount: 2
Fore
SplineSet
94 305 m 0,0,1
 94 639 94 639 594 655 c 2,2,-1
 778 662 l 1,3,-1
 778 731 l 2,4,5
 778 853 778 853 721.5 912 c 128,-1,6
 665 971 665 971 549 971 c 0,7,8
 410 971 410 971 242 887 c 1,9,-1
 186 1022 l 1,10,11
 257 1062 257 1062 358.5 1089 c 128,-1,12
 460 1116 460 1116 563 1116 c 0,13,14
 691 1116 691 1116 773.5 1074.5 c 128,-1,15
 856 1033 856 1033 899 940 c 1,16,17
 953 1025 953 1025 1038 1071.5 c 128,-1,18
 1123 1118 1123 1118 1235 1118 c 0,19,20
 1432 1118 1432 1118 1548.5 983 c 128,-1,21
 1665 848 1665 848 1665 627 c 2,22,-1
 1665 516 l 1,23,-1
 963 516 l 1,24,25
 971 133 971 133 1280 133 c 0,26,27
 1368 133 1368 133 1445 149.5 c 128,-1,28
 1522 166 1522 166 1616 209 c 1,29,-1
 1616 51 l 1,30,31
 1528 12 1528 12 1452 -4 c 128,-1,32
 1376 -20 1376 -20 1274 -20 c 0,33,34
 983 -20 983 -20 858 211 c 1,35,36
 776 87 776 87 677 33.5 c 128,-1,37
 578 -20 578 -20 442 -20 c 0,38,39
 278 -20 278 -20 186 65.5 c 128,-1,40
 94 151 94 151 94 305 c 0,0,1
281 303 m 0,41,42
 281 211 281 211 333 168 c 128,-1,43
 385 125 385 125 471 125 c 0,44,45
 611 125 611 125 692.5 206.5 c 128,-1,46
 774 288 774 288 774 438 c 2,47,-1
 774 537 l 1,48,-1
 621 530 l 2,49,50
 444 523 444 523 362.5 470 c 128,-1,51
 281 417 281 417 281 303 c 0,41,42
1233 971 m 0,52,53
 1114 971 1114 971 1046 890.5 c 128,-1,54
 978 810 978 810 967 657 c 1,55,-1
 1475 657 l 1,56,57
 1475 809 1475 809 1412.5 890 c 128,-1,58
 1350 971 1350 971 1233 971 c 0,52,53
EndSplineSet
EndChar

StartChar: eth
Encoding: 240 240 149
Width: 1239
GlyphClass: 2
Flags: W
AnchorPoint: "Anchor-11" 680 0 basechar 0
AnchorPoint: "Anchor-9" 0 1840 basechar 0
AnchorPoint: "Anchor-8" 1239 1840 basechar 0
AnchorPoint: "Anchor-7" 1239 -380 basechar 0
AnchorPoint: "Anchor-6" 1239 1540 basechar 0
AnchorPoint: "Anchor-2" 650 0 basechar 0
AnchorPoint: "Anchor-1" 1040 1260 basechar 0
AnchorPoint: "Anchor-0" 540 1600 basechar 0
LayerCount: 2
Fore
SplineSet
1128 563 m 0,0,1
 1128 281 1128 281 995 130.5 c 128,-1,2
 862 -20 862 -20 616 -20 c 0,3,4
 391 -20 391 -20 252 115.5 c 128,-1,5
 113 251 113 251 113 477 c 0,6,7
 113 706 113 706 242.5 837.5 c 128,-1,8
 372 969 372 969 594 969 c 0,9,10
 819 969 819 969 913 850 c 1,11,-1
 922 854 l 1,12,13
 863 1068 863 1068 668 1245 c 1,14,-1
 401 1092 l 1,15,-1
 324 1204 l 1,16,-1
 553 1335 l 1,17,18
 467 1393 467 1393 369 1444 c 1,19,-1
 442 1567 l 1,20,21
 598 1494 598 1494 700 1419 c 1,22,-1
 936 1556 l 1,23,-1
 1014 1446 l 1,24,-1
 811 1329 l 1,25,26
 962 1189 962 1189 1045 991.5 c 128,-1,27
 1128 794 1128 794 1128 563 c 0,0,1
946 514 m 0,28,29
 946 657 946 657 858.5 740 c 128,-1,30
 771 823 771 823 621 823 c 0,31,32
 455 823 455 823 375 736.5 c 128,-1,33
 295 650 295 650 295 471 c 0,34,35
 295 306 295 306 379 216.5 c 128,-1,36
 463 127 463 127 621 127 c 0,37,38
 790 127 790 127 868 226 c 128,-1,39
 946 325 946 325 946 514 c 0,28,29
EndSplineSet
EndChar

StartChar: oslash
Encoding: 248 248 156
Width: 1239
GlyphClass: 2
Flags: W
AnchorPoint: "Anchor-11" 680 0 basechar 0
AnchorPoint: "Anchor-9" 0 1840 basechar 0
AnchorPoint: "Anchor-8" 1239 1840 basechar 0
AnchorPoint: "Anchor-7" 1239 -380 basechar 0
AnchorPoint: "Anchor-6" 1239 1540 basechar 0
AnchorPoint: "Anchor-4" 1000 900 basechar 0
AnchorPoint: "Anchor-2" 620 0 basechar 0
AnchorPoint: "Anchor-1" 1050 1200 basechar 0
AnchorPoint: "Anchor-0" 620 1200 basechar 0
LayerCount: 2
Fore
SplineSet
1128 551 m 0,0,1
 1128 282 1128 282 992 131 c 128,-1,2
 856 -20 856 -20 616 -20 c 0,3,4
 465 -20 465 -20 352 47 c 1,5,-1
 270 -68 l 1,6,-1
 152 12 l 1,7,-1
 244 139 l 1,8,9
 113 295 113 295 113 551 c 0,10,11
 113 819 113 819 247 968.5 c 128,-1,12
 381 1118 381 1118 623 1118 c 0,13,14
 774 1118 774 1118 891 1044 c 1,15,-1
 971 1159 l 1,16,-1
 1092 1081 l 1,17,-1
 999 952 l 1,18,19
 1128 797 1128 797 1128 551 c 0,0,1
299 551 m 0,20,21
 299 385 299 385 348 289 c 1,22,-1
 799 915 l 1,23,24
 726 967 726 967 618 967 c 0,25,26
 299 967 299 967 299 551 c 0,20,21
942 551 m 0,27,28
 942 703 942 703 895 803 c 1,29,-1
 444 176 l 1,30,31
 513 129 513 129 621 129 c 0,32,33
 778 129 778 129 860 236.5 c 128,-1,34
 942 344 942 344 942 551 c 0,27,28
EndSplineSet
EndChar

StartChar: thorn
Encoding: 254 254 162
Width: 1260
GlyphClass: 2
Flags: W
AnchorPoint: "Anchor-11" 354 -492 basechar 0
AnchorPoint: "Anchor-9" 0 1840 basechar 0
AnchorPoint: "Anchor-8" 1260 1840 basechar 0
AnchorPoint: "Anchor-7" 1260 -380 basechar 0
AnchorPoint: "Anchor-6" 1260 1540 basechar 0
AnchorPoint: "Anchor-2" 630 -492 basechar 0
AnchorPoint: "Anchor-1" 1100 1200 basechar 0
AnchorPoint: "Anchor-0" 630 1640 basechar 0
LayerCount: 2
Fore
SplineSet
356 950 m 1,0,1
 423 1041 423 1041 506.5 1079.5 c 128,-1,2
 590 1118 590 1118 696 1118 c 0,3,4
 909 1118 909 1118 1028 968.5 c 128,-1,5
 1147 819 1147 819 1147 551 c 0,6,7
 1147 282 1147 282 1028 131 c 128,-1,8
 909 -20 909 -20 696 -20 c 0,9,10
 474 -20 474 -20 354 139 c 1,11,-1
 342 139 l 1,12,13
 354 7 354 7 354 -33 c 2,14,-1
 354 -492 l 1,15,-1
 174 -492 l 1,16,-1
 174 1556 l 1,17,-1
 354 1556 l 1,18,-1
 354 1098 l 2,19,20
 354 1028 354 1028 348 950 c 1,21,-1
 356 950 l 1,0,1
666 967 m 0,22,23
 505 967 505 967 430.5 877.5 c 128,-1,24
 356 788 356 788 354 590 c 2,25,-1
 354 551 l 2,26,27
 354 328 354 328 428 228.5 c 128,-1,28
 502 129 502 129 668 129 c 0,29,30
 961 129 961 129 961 553 c 0,31,32
 961 761 961 761 889.5 864 c 128,-1,33
 818 967 818 967 666 967 c 0,22,23
EndSplineSet
EndChar

StartChar: dcroat
Encoding: 273 273 181
Width: 1264
GlyphClass: 2
Flags: W
AnchorPoint: "Anchor-11" 660 0 basechar 0
AnchorPoint: "Anchor-9" 0 1840 basechar 0
AnchorPoint: "Anchor-8" 1264 1840 basechar 0
AnchorPoint: "Anchor-7" 1264 -380 basechar 0
AnchorPoint: "Anchor-6" 1264 1540 basechar 0
AnchorPoint: "Anchor-2" 640 0 basechar 0
AnchorPoint: "Anchor-1" 1100 1540 basechar 0
AnchorPoint: "Anchor-0" 540 1640 basechar 0
LayerCount: 2
Fore
SplineSet
563 -20 m 0,0,1
 349 -20 349 -20 231 127 c 128,-1,2
 113 274 113 274 113 543 c 0,3,4
 113 814 113 814 230.5 963 c 128,-1,5
 348 1112 348 1112 563 1112 c 0,6,7
 786 1112 786 1112 905 950 c 1,8,-1
 918 950 l 1,9,10
 915 964 915 964 910 1019 c 128,-1,11
 905 1074 905 1074 905 1114 c 2,12,-1
 905 1239 l 1,13,-1
 469 1239 l 1,14,-1
 469 1374 l 1,15,-1
 905 1374 l 1,16,-1
 905 1556 l 1,17,-1
 1085 1556 l 1,18,-1
 1085 1374 l 1,19,-1
 1241 1374 l 1,20,-1
 1241 1239 l 1,21,-1
 1085 1239 l 1,22,-1
 1085 0 l 1,23,-1
 938 0 l 1,24,-1
 911 147 l 1,25,-1
 903 147 l 1,26,27
 788 -20 788 -20 563 -20 c 0,0,1
594 129 m 0,28,29
 757 129 757 129 832 217.5 c 128,-1,30
 907 306 907 306 907 508 c 2,31,-1
 907 543 l 2,32,33
 907 773 907 773 831 868 c 128,-1,34
 755 963 755 963 590 963 c 0,35,36
 450 963 450 963 375.5 856 c 128,-1,37
 301 749 301 749 301 541 c 0,38,39
 301 344 301 344 373 236.5 c 128,-1,40
 445 129 445 129 594 129 c 0,28,29
EndSplineSet
EndChar

StartChar: Hbar
Encoding: 294 294 202
Width: 1518
GlyphClass: 2
Flags: W
AnchorPoint: "Anchor-11" 1317 0 basechar 0
AnchorPoint: "Anchor-9" 0 1840 basechar 0
AnchorPoint: "Anchor-8" 1518 1840 basechar 0
AnchorPoint: "Anchor-7" 1518 -380 basechar 0
AnchorPoint: "Anchor-6" 1518 1540 basechar 0
AnchorPoint: "Anchor-2" 759 0 basechar 0
AnchorPoint: "Anchor-1" 1300 1540 basechar 0
AnchorPoint: "Anchor-0" 759 1540 basechar 0
LayerCount: 2
Fore
SplineSet
199 1219 m 1,0,-1
 199 1462 l 1,1,-1
 383 1462 l 1,2,-1
 383 1219 l 1,3,-1
 1133 1219 l 1,4,-1
 1133 1462 l 1,5,-1
 1317 1462 l 1,6,-1
 1317 1219 l 1,7,-1
 1516 1219 l 1,8,-1
 1516 1071 l 1,9,-1
 1317 1071 l 1,10,-1
 1317 0 l 1,11,-1
 1133 0 l 1,12,-1
 1133 682 l 1,13,-1
 383 682 l 1,14,-1
 383 0 l 1,15,-1
 199 0 l 1,16,-1
 199 1071 l 1,17,-1
 0 1071 l 1,18,-1
 0 1219 l 1,19,-1
 199 1219 l 1,0,-1
1133 844 m 1,20,-1
 1133 1071 l 1,21,-1
 383 1071 l 1,22,-1
 383 844 l 1,23,-1
 1133 844 l 1,20,-1
EndSplineSet
EndChar

StartChar: hbar
Encoding: 295 295 203
Width: 1266
GlyphClass: 2
Flags: W
AnchorPoint: "Anchor-11" 1100 0 basechar 0
AnchorPoint: "Anchor-9" 0 1840 basechar 0
AnchorPoint: "Anchor-8" 1266 1840 basechar 0
AnchorPoint: "Anchor-7" 1266 -380 basechar 0
AnchorPoint: "Anchor-6" 1266 1540 basechar 0
AnchorPoint: "Anchor-2" 620 0 basechar 0
AnchorPoint: "Anchor-1" 940 1540 basechar 0
AnchorPoint: "Anchor-0" 620 1640 basechar 0
LayerCount: 2
Fore
SplineSet
922 0 m 1,0,-1
 922 662 l 2,1,2
 922 795 922 795 862.5 860.5 c 128,-1,3
 803 926 803 926 676 926 c 0,4,5
 507 926 507 926 430.5 833.5 c 128,-1,6
 354 741 354 741 354 528 c 2,7,-1
 354 0 l 1,8,-1
 174 0 l 1,9,-1
 174 1237 l 1,10,-1
 18 1237 l 1,11,-1
 18 1372 l 1,12,-1
 174 1372 l 1,13,-1
 174 1556 l 1,14,-1
 354 1556 l 1,15,-1
 354 1372 l 1,16,-1
 788 1372 l 1,17,-1
 788 1237 l 1,18,-1
 354 1237 l 1,19,-1
 354 1059 l 2,20,21
 354 971 354 971 344 907 c 1,22,-1
 356 907 l 1,23,24
 409 992 409 992 500.5 1034.5 c 128,-1,25
 592 1077 592 1077 700 1077 c 0,26,27
 899 1077 899 1077 999.5 980.5 c 128,-1,28
 1100 884 1100 884 1100 674 c 2,29,-1
 1100 0 l 1,30,-1
 922 0 l 1,0,-1
EndSplineSet
EndChar

StartChar: dotlessi
Encoding: 305 305 213
Width: 528
GlyphClass: 2
Flags: W
AnchorPoint: "Anchor-11" 354 0 basechar 0
AnchorPoint: "Anchor-9" 0 1840 basechar 0
AnchorPoint: "Anchor-8" 528 1840 basechar 0
AnchorPoint: "Anchor-7" 528 -380 basechar 0
AnchorPoint: "Anchor-6" 528 1540 basechar 0
AnchorPoint: "Anchor-4" 315 1098 basechar 0
AnchorPoint: "Anchor-2" 264 0 basechar 0
AnchorPoint: "Anchor-1" 380 1260 basechar 0
AnchorPoint: "Anchor-0" 264 1200 basechar 0
LayerCount: 2
Fore
SplineSet
354 0 m 1,0,-1
 174 0 l 1,1,-1
 174 1098 l 1,2,-1
 354 1098 l 1,3,-1
 354 0 l 1,0,-1
EndSplineSet
EndChar

StartChar: kgreenlandic
Encoding: 312 312 220
Width: 1094
GlyphClass: 2
Flags: W
AnchorPoint: "Anchor-11" 1050 0 basechar 0
AnchorPoint: "Anchor-9" 0 1840 basechar 0
AnchorPoint: "Anchor-8" 1094 1840 basechar 0
AnchorPoint: "Anchor-7" 1094 -380 basechar 0
AnchorPoint: "Anchor-6" 1094 1540 basechar 0
AnchorPoint: "Anchor-2" 560 0 basechar 0
AnchorPoint: "Anchor-1" 960 1260 basechar 0
AnchorPoint: "Anchor-0" 560 1200 basechar 0
LayerCount: 2
Fore
SplineSet
825 1098 m 1,0,-1
 1042 1098 l 1,1,-1
 627 612 l 1,2,-1
 1075 0 l 1,3,-1
 860 0 l 1,4,-1
 500 496 l 1,5,-1
 365 385 l 1,6,-1
 365 0 l 1,7,-1
 174 0 l 1,8,-1
 174 1098 l 1,9,-1
 365 1098 l 1,10,-1
 365 813 l 2,11,12
 365 674 365 674 352 537 c 1,13,-1
 436 639 l 1,14,-1
 825 1098 l 1,0,-1
EndSplineSet
EndChar

StartChar: Lslash
Encoding: 321 321 229
Width: 1073
GlyphClass: 2
Flags: W
AnchorPoint: "Anchor-11" 940 0 basechar 0
AnchorPoint: "Anchor-9" 0 1840 basechar 0
AnchorPoint: "Anchor-8" 1073 1840 basechar 0
AnchorPoint: "Anchor-7" 1073 -380 basechar 0
AnchorPoint: "Anchor-6" 1073 1540 basechar 0
AnchorPoint: "Anchor-2" 580 0 basechar 0
AnchorPoint: "Anchor-1" 900 1540 basechar 0
AnchorPoint: "Anchor-0" 580 1540 basechar 0
LayerCount: 2
Fore
SplineSet
199 0 m 1,0,-1
 199 506 l 1,1,-1
 98 449 l 1,2,-1
 27 571 l 1,3,-1
 199 674 l 1,4,-1
 199 1462 l 1,5,-1
 383 1462 l 1,6,-1
 383 782 l 1,7,-1
 664 948 l 1,8,-1
 737 819 l 1,9,-1
 383 614 l 1,10,-1
 383 164 l 1,11,-1
 1022 164 l 1,12,-1
 1022 0 l 1,13,-1
 199 0 l 1,0,-1
EndSplineSet
EndChar

StartChar: lslash
Encoding: 322 322 230
Width: 528
GlyphClass: 2
Flags: W
AnchorPoint: "Anchor-11" 354 0 basechar 0
AnchorPoint: "Anchor-9" 0 1840 basechar 0
AnchorPoint: "Anchor-8" 528 1840 basechar 0
AnchorPoint: "Anchor-7" 528 -380 basechar 0
AnchorPoint: "Anchor-6" 528 1540 basechar 0
AnchorPoint: "Anchor-2" 264 0 basechar 0
AnchorPoint: "Anchor-1" 380 1540 basechar 0
AnchorPoint: "Anchor-0" 264 1640 basechar 0
LayerCount: 2
Fore
SplineSet
340 870 m 1,0,-1
 471 961 l 1,1,-1
 547 840 l 1,2,-1
 340 700 l 1,3,-1
 340 0 l 1,4,-1
 160 0 l 1,5,-1
 160 584 l 1,6,-1
 55 518 l 1,7,-1
 -18 639 l 1,8,-1
 160 754 l 1,9,-1
 160 1556 l 1,10,-1
 340 1556 l 1,11,-1
 340 870 l 1,0,-1
EndSplineSet
EndChar

StartChar: Eng
Encoding: 330 330 238
Width: 1556
GlyphClass: 2
Flags: W
AnchorPoint: "Anchor-11" 1120 -340 basechar 0
AnchorPoint: "Anchor-9" 0 1840 basechar 0
AnchorPoint: "Anchor-8" 1556 1840 basechar 0
AnchorPoint: "Anchor-7" 1556 -380 basechar 0
AnchorPoint: "Anchor-6" 1556 1540 basechar 0
AnchorPoint: "Anchor-2" 778 -402 basechar 0
AnchorPoint: "Anchor-1" 1360 1540 basechar 0
AnchorPoint: "Anchor-0" 778 1540 basechar 0
LayerCount: 2
Fore
SplineSet
973 -389 m 0,0,1
 875 -389 875 -389 817 -362 c 1,2,-1
 817 -207 l 1,3,4
 888 -227 888 -227 973 -227 c 0,5,6
 1075 -227 1075 -227 1129.5 -168.5 c 128,-1,7
 1184 -110 1184 -110 1186 0 c 1,8,-1
 360 1214 l 1,9,-1
 352 1214 l 1,10,11
 369 959 369 959 369 793 c 2,12,-1
 369 0 l 1,13,-1
 199 0 l 1,14,-1
 199 1462 l 1,15,-1
 412 1462 l 1,16,-1
 1192 291 l 1,17,-1
 1200 291 l 1,18,19
 1186 445 1186 445 1186 700 c 2,20,-1
 1186 1462 l 1,21,-1
 1358 1462 l 1,22,-1
 1358 12 l 2,23,24
 1358 -184 1358 -184 1258.5 -286.5 c 128,-1,25
 1159 -389 1159 -389 973 -389 c 0,0,1
EndSplineSet
EndChar

StartChar: eng
Encoding: 331 331 239
Width: 1266
GlyphClass: 2
Flags: W
AnchorPoint: "Anchor-11" 980 -440 basechar 0
AnchorPoint: "Anchor-9" 0 1840 basechar 0
AnchorPoint: "Anchor-8" 1266 1840 basechar 0
AnchorPoint: "Anchor-7" 1266 -380 basechar 0
AnchorPoint: "Anchor-6" 1266 1540 basechar 0
AnchorPoint: "Anchor-2" 620 -492 basechar 0
AnchorPoint: "Anchor-1" 1100 1260 basechar 0
AnchorPoint: "Anchor-0" 620 1200 basechar 0
LayerCount: 2
Fore
SplineSet
807 -492 m 0,0,1
 721 -492 721 -492 662 -467 c 1,2,-1
 662 -322 l 1,3,4
 722 -342 722 -342 784 -342 c 0,5,6
 922 -342 922 -342 922 -170 c 2,7,-1
 922 705 l 2,8,9
 922 838 922 838 862.5 902.5 c 128,-1,10
 803 967 803 967 678 967 c 0,11,12
 508 967 508 967 431 873.5 c 128,-1,13
 354 780 354 780 354 571 c 2,14,-1
 354 0 l 1,15,-1
 174 0 l 1,16,-1
 174 1098 l 1,17,-1
 319 1098 l 1,18,-1
 348 948 l 1,19,-1
 358 948 l 1,20,21
 410 1030 410 1030 500 1074 c 128,-1,22
 590 1118 590 1118 700 1118 c 0,23,24
 902 1118 902 1118 1002 1022.5 c 128,-1,25
 1102 927 1102 927 1102 717 c 2,26,-1
 1102 -164 l 2,27,28
 1102 -318 1102 -318 1030.5 -405 c 128,-1,29
 959 -492 959 -492 807 -492 c 0,0,1
EndSplineSet
EndChar

StartChar: OE
Encoding: 338 338 246
Width: 1901
GlyphClass: 2
Flags: W
AnchorPoint: "Anchor-11" 1653 0 basechar 0
AnchorPoint: "Anchor-9" 0 1840 basechar 0
AnchorPoint: "Anchor-8" 1901 1840 basechar 0
AnchorPoint: "Anchor-7" 1901 -380 basechar 0
AnchorPoint: "Anchor-6" 1901 1540 basechar 0
AnchorPoint: "Anchor-2" 1100 0 basechar 0
AnchorPoint: "Anchor-1" 1760 1540 basechar 0
AnchorPoint: "Anchor-0" 1100 1540 basechar 0
LayerCount: 2
Fore
SplineSet
1778 0 m 1,0,-1
 999 0 l 1,1,2
 897 -20 897 -20 801 -20 c 0,3,4
 476 -20 476 -20 300.5 177 c 128,-1,5
 125 374 125 374 125 735 c 0,6,7
 125 1094 125 1094 297.5 1289.5 c 128,-1,8
 470 1485 470 1485 791 1485 c 0,9,10
 897 1485 897 1485 987 1462 c 1,11,-1
 1778 1462 l 1,12,-1
 1778 1300 l 1,13,-1
 1190 1300 l 1,14,-1
 1190 844 l 1,15,-1
 1739 844 l 1,16,-1
 1739 684 l 1,17,-1
 1190 684 l 1,18,-1
 1190 162 l 1,19,-1
 1778 162 l 1,20,-1
 1778 0 l 1,0,-1
807 1323 m 0,21,22
 565 1323 565 1323 441 1172 c 128,-1,23
 317 1021 317 1021 317 733 c 0,24,25
 317 444 317 444 441 291.5 c 128,-1,26
 565 139 565 139 805 139 c 0,27,28
 922 139 922 139 1008 174 c 1,29,-1
 1008 1290 l 1,30,31
 923 1323 923 1323 807 1323 c 0,21,22
EndSplineSet
EndChar

StartChar: oe
Encoding: 339 339 247
Width: 1937
GlyphClass: 2
Flags: W
AnchorPoint: "Anchor-11" 1560 0 basechar 0
AnchorPoint: "Anchor-9" 0 1840 basechar 0
AnchorPoint: "Anchor-8" 1937 1840 basechar 0
AnchorPoint: "Anchor-7" 1937 -380 basechar 0
AnchorPoint: "Anchor-6" 1937 1540 basechar 0
AnchorPoint: "Anchor-4" 1760 900 basechar 0
AnchorPoint: "Anchor-2" 960 0 basechar 0
AnchorPoint: "Anchor-1" 1780 1260 basechar 0
AnchorPoint: "Anchor-0" 960 1200 basechar 0
LayerCount: 2
Fore
SplineSet
1432 -20 m 0,0,1
 1142 -20 1142 -20 1014 207 c 1,2,3
 951 94 951 94 846.5 37 c 128,-1,4
 742 -20 742 -20 606 -20 c 0,5,6
 380 -20 380 -20 245.5 134 c 128,-1,7
 111 288 111 288 111 551 c 0,8,9
 111 817 111 817 243 966.5 c 128,-1,10
 375 1116 375 1116 612 1116 c 0,11,12
 742 1116 742 1116 844 1059 c 128,-1,13
 946 1002 946 1002 1008 891 c 1,14,15
 1068 1000 1068 1000 1164 1058 c 128,-1,16
 1260 1116 1260 1116 1386 1116 c 0,17,18
 1591 1116 1591 1116 1711 983.5 c 128,-1,19
 1831 851 1831 851 1831 623 c 2,20,-1
 1831 514 l 1,21,-1
 1102 514 l 1,22,23
 1110 133 1110 133 1434 133 c 0,24,25
 1524 133 1524 133 1601 148.5 c 128,-1,26
 1678 164 1678 164 1782 209 c 1,27,-1
 1782 51 l 1,28,29
 1689 11 1689 11 1612 -4.5 c 128,-1,30
 1535 -20 1535 -20 1432 -20 c 0,0,1
299 551 m 0,31,32
 299 343 299 343 372 236 c 128,-1,33
 445 129 445 129 608 129 c 0,34,35
 768 129 768 129 841.5 233.5 c 128,-1,36
 915 338 915 338 915 543 c 0,37,38
 915 757 915 757 840.5 862 c 128,-1,39
 766 967 766 967 604 967 c 0,40,41
 443 967 443 967 371 861.5 c 128,-1,42
 299 756 299 756 299 551 c 0,31,32
1384 969 m 0,43,44
 1261 969 1261 969 1189.5 889.5 c 128,-1,45
 1118 810 1118 810 1106 657 c 1,46,-1
 1640 657 l 1,47,48
 1640 808 1640 808 1575.5 888.5 c 128,-1,49
 1511 969 1511 969 1384 969 c 0,43,44
EndSplineSet
EndChar

StartChar: Tbar
Encoding: 358 358 266
Width: 1139
GlyphClass: 2
Flags: W
AnchorPoint: "Anchor-11" 660 0 basechar 0
AnchorPoint: "Anchor-9" 0 1840 basechar 0
AnchorPoint: "Anchor-8" 1139 1840 basechar 0
AnchorPoint: "Anchor-7" 1139 -380 basechar 0
AnchorPoint: "Anchor-6" 1139 1540 basechar 0
AnchorPoint: "Anchor-2" 570 0 basechar 0
AnchorPoint: "Anchor-1" 1100 1540 basechar 0
AnchorPoint: "Anchor-0" 570 1540 basechar 0
LayerCount: 2
Fore
SplineSet
475 817 m 1,0,-1
 475 1298 l 1,1,-1
 20 1298 l 1,2,-1
 20 1462 l 1,3,-1
 1116 1462 l 1,4,-1
 1116 1298 l 1,5,-1
 659 1298 l 1,6,-1
 659 817 l 1,7,-1
 963 817 l 1,8,-1
 963 666 l 1,9,-1
 659 666 l 1,10,-1
 659 0 l 1,11,-1
 475 0 l 1,12,-1
 475 666 l 1,13,-1
 170 666 l 1,14,-1
 170 817 l 1,15,-1
 475 817 l 1,0,-1
EndSplineSet
EndChar

StartChar: tbar
Encoding: 359 359 267
Width: 739
GlyphClass: 2
Flags: W
AnchorPoint: "Anchor-11" 520 0 basechar 0
AnchorPoint: "Anchor-9" 0 1840 basechar 0
AnchorPoint: "Anchor-8" 739 1840 basechar 0
AnchorPoint: "Anchor-7" 739 -380 basechar 0
AnchorPoint: "Anchor-6" 739 1540 basechar 0
AnchorPoint: "Anchor-2" 480 0 basechar 0
AnchorPoint: "Anchor-1" 700 1260 basechar 0
AnchorPoint: "Anchor-0" 280 1480 basechar 0
LayerCount: 2
Fore
SplineSet
545 127 m 0,0,1
 630 127 630 127 694 150 c 1,2,-1
 694 12 l 1,3,4
 668 0 668 0 614.5 -10 c 128,-1,5
 561 -20 561 -20 504 -20 c 0,6,7
 188 -20 188 -20 188 330 c 2,8,-1
 188 573 l 1,9,-1
 49 573 l 1,10,-1
 49 709 l 1,11,-1
 188 709 l 1,12,-1
 188 958 l 1,13,-1
 33 958 l 1,14,-1
 33 1044 l 1,15,-1
 190 1116 l 1,16,-1
 262 1350 l 1,17,-1
 369 1350 l 1,18,-1
 369 1098 l 1,19,-1
 686 1098 l 1,20,-1
 686 958 l 1,21,-1
 369 958 l 1,22,-1
 369 709 l 1,23,-1
 668 709 l 1,24,-1
 668 573 l 1,25,-1
 369 573 l 1,26,-1
 369 340 l 2,27,28
 369 234 369 234 411.5 180.5 c 128,-1,29
 454 127 454 127 545 127 c 0,0,1
EndSplineSet
EndChar

StartChar: longs
Encoding: 383 383 291
Width: 668
GlyphClass: 2
Flags: W
AnchorPoint: "Anchor-11" 354 0 basechar 0
AnchorPoint: "Anchor-9" 0 1840 basechar 0
AnchorPoint: "Anchor-8" 668 1840 basechar 0
AnchorPoint: "Anchor-7" 668 -380 basechar 0
AnchorPoint: "Anchor-6" 668 1540 basechar 0
AnchorPoint: "Anchor-2" 440 0 basechar 0
AnchorPoint: "Anchor-1" 660 1540 basechar 0
AnchorPoint: "Anchor-0" 440 1640 basechar 0
LayerCount: 2
Fore
SplineSet
535 1417 m 0,0,1
 441 1417 441 1417 397.5 1358.5 c 128,-1,2
 354 1300 354 1300 354 1182 c 2,3,-1
 354 0 l 1,4,-1
 174 0 l 1,5,-1
 174 1182 l 2,6,7
 174 1567 174 1567 537 1567 c 0,8,9
 637 1567 637 1567 741 1528 c 1,10,-1
 694 1386 l 1,11,12
 604 1417 604 1417 535 1417 c 0,0,1
EndSplineSet
EndChar

StartChar: florin
Encoding: 402 402 292
Width: 1171
GlyphClass: 2
Flags: W
AnchorPoint: "Anchor-11" 520 -440 basechar 0
AnchorPoint: "Anchor-9" 0 1840 basechar 0
AnchorPoint: "Anchor-8" 1171 1840 basechar 0
AnchorPoint: "Anchor-7" 1171 -380 basechar 0
AnchorPoint: "Anchor-6" 1171 1540 basechar 0
AnchorPoint: "Anchor-2" 600 -492 basechar 0
AnchorPoint: "Anchor-1" 920 1540 basechar 0
AnchorPoint: "Anchor-0" 800 1540 basechar 0
LayerCount: 2
Fore
SplineSet
330 -492 m 0,0,1
 257 -492 257 -492 190 -473 c 1,2,-1
 190 -324 l 1,3,4
 260 -342 260 -342 319 -342 c 0,5,6
 411 -342 411 -342 449 -294 c 128,-1,7
 487 -246 487 -246 487 -131 c 2,8,-1
 487 831 l 1,9,-1
 272 831 l 1,10,-1
 272 915 l 1,11,-1
 487 977 l 1,12,-1
 487 1110 l 2,13,14
 487 1303 487 1303 568 1393 c 128,-1,15
 649 1483 649 1483 834 1483 c 0,16,17
 927 1483 927 1483 1044 1440 c 1,18,-1
 999 1300 l 1,19,20
 897 1333 897 1333 840 1333 c 0,21,22
 746 1333 746 1333 707 1283 c 128,-1,23
 668 1233 668 1233 668 1112 c 2,24,-1
 668 971 l 1,25,-1
 944 971 l 1,26,-1
 944 831 l 1,27,-1
 672 831 l 1,28,-1
 672 -131 l 2,29,30
 672 -318 672 -318 590 -405 c 128,-1,31
 508 -492 508 -492 330 -492 c 0,0,1
EndSplineSet
EndChar

StartChar: Aringacute
Encoding: 506 506 293
Width: 1311
GlyphClass: 2
Flags: W
LayerCount: 2
Fore
SplineSet
881 1432 m 0,0,1
 881 1367 881 1367 854 1320 c 128,-1,2
 827 1273 827 1273 782 1247 c 1,3,-1
 1311 0 l 1,4,-1
 1120 0 l 1,5,-1
 952 393 l 1,6,-1
 348 393 l 1,7,-1
 188 0 l 1,8,-1
 0 0 l 1,9,-1
 528 1245 l 1,10,11
 428 1299 428 1299 428 1430 c 0,12,13
 428 1528 428 1528 488 1587.5 c 128,-1,14
 548 1647 548 1647 651 1647 c 256,15,16
 754 1647 754 1647 817.5 1587 c 128,-1,17
 881 1527 881 1527 881 1432 c 0,0,1
899 557 m 1,18,-1
 727 981 l 2,19,20
 700 1042 700 1042 653 1188 c 1,21,22
 622 1081 622 1081 582 977 c 2,23,-1
 412 557 l 1,24,-1
 899 557 l 1,18,-1
555 1716 m 1,25,26
 612 1783 612 1783 659.5 1853 c 128,-1,27
 707 1923 707 1923 729 1962 c 1,28,-1
 946 1962 l 1,29,-1
 946 1946 l 1,30,31
 916 1904 916 1904 827.5 1822 c 128,-1,32
 739 1740 739 1740 676 1698 c 1,33,-1
 555 1698 l 1,34,-1
 555 1716 l 1,25,26
766 1430 m 0,35,36
 766 1485 766 1485 734 1514.5 c 128,-1,37
 702 1544 702 1544 651 1544 c 0,38,39
 602 1544 602 1544 569.5 1514.5 c 128,-1,40
 537 1485 537 1485 537 1430 c 0,41,42
 537 1376 537 1376 566.5 1345.5 c 128,-1,43
 596 1315 596 1315 651 1315 c 0,44,45
 702 1315 702 1315 734 1344.5 c 128,-1,46
 766 1374 766 1374 766 1430 c 0,35,36
EndSplineSet
EndChar

StartChar: aringacute
Encoding: 507 507 294
Width: 1149
GlyphClass: 2
Flags: W
LayerCount: 2
Fore
SplineSet
852 0 m 1,0,-1
 817 156 l 1,1,-1
 809 156 l 1,2,3
 727 53 727 53 645.5 16.5 c 128,-1,4
 564 -20 564 -20 440 -20 c 0,5,6
 278 -20 278 -20 186 65 c 128,-1,7
 94 150 94 150 94 305 c 0,8,9
 94 639 94 639 621 655 c 2,10,-1
 807 662 l 1,11,-1
 807 727 l 2,12,13
 807 852 807 852 753 911.5 c 128,-1,14
 699 971 699 971 580 971 c 0,15,16
 493 971 493 971 415.5 945 c 128,-1,17
 338 919 338 919 270 887 c 1,18,-1
 215 1022 l 1,19,20
 298 1066 298 1066 396 1091 c 128,-1,21
 494 1116 494 1116 590 1116 c 0,22,23
 789 1116 789 1116 886 1028 c 128,-1,24
 983 940 983 940 983 748 c 2,25,-1
 983 0 l 1,26,-1
 852 0 l 1,0,-1
481 125 m 0,27,28
 632 125 632 125 718.5 206.5 c 128,-1,29
 805 288 805 288 805 438 c 2,30,-1
 805 537 l 1,31,-1
 643 530 l 2,32,33
 454 523 454 523 367.5 470 c 128,-1,34
 281 417 281 417 281 303 c 0,35,36
 281 217 281 217 333.5 171 c 128,-1,37
 386 125 386 125 481 125 c 0,27,28
811 1460 m 0,38,39
 811 1359 811 1359 748.5 1300 c 128,-1,40
 686 1241 686 1241 584 1241 c 0,41,42
 481 1241 481 1241 420.5 1300 c 128,-1,43
 360 1359 360 1359 360 1458 c 0,44,45
 360 1555 360 1555 420 1614 c 128,-1,46
 480 1673 480 1673 584 1673 c 0,47,48
 685 1673 685 1673 748 1614 c 128,-1,49
 811 1555 811 1555 811 1460 c 0,38,39
698 1458 m 256,50,51
 698 1512 698 1512 665.5 1542.5 c 128,-1,52
 633 1573 633 1573 584 1573 c 0,53,54
 534 1573 534 1573 501.5 1542.5 c 128,-1,55
 469 1512 469 1512 469 1458 c 256,56,57
 469 1404 469 1404 498.5 1373.5 c 128,-1,58
 528 1343 528 1343 584 1343 c 0,59,60
 635 1343 635 1343 666.5 1373.5 c 128,-1,61
 698 1404 698 1404 698 1458 c 256,50,51
471 1753 m 1,62,-1
 471 1769 l 1,63,64
 517 1811 517 1811 570 1871 c 128,-1,65
 623 1931 623 1931 645 1962 c 1,66,-1
 913 1962 l 1,67,-1
 913 1950 l 1,68,69
 892 1926 892 1926 810 1873.5 c 128,-1,70
 728 1821 728 1821 600 1753 c 1,71,-1
 471 1753 l 1,62,-1
EndSplineSet
EndChar

StartChar: circumflex
Encoding: 710 710 301
Width: 1214
GlyphClass: 4
Flags: W
LayerCount: 2
Fore
SplineSet
260 1264 m 1,0,1
 385 1398 385 1398 436.5 1462 c 128,-1,2
 488 1526 488 1526 512 1569 c 1,3,-1
 696 1569 l 1,4,5
 748 1468 748 1468 952 1264 c 1,6,-1
 952 1241 l 1,7,-1
 825 1241 l 1,8,9
 735 1294 735 1294 602 1425 c 1,10,11
 471 1297 471 1297 383 1241 c 1,12,-1
 260 1241 l 1,13,-1
 260 1264 l 1,0,1
EndSplineSet
EndChar

StartChar: caron
Encoding: 711 711 302
Width: 1214
GlyphClass: 4
Flags: W
LayerCount: 2
Fore
SplineSet
260 1569 m 1,0,-1
 383 1569 l 1,1,2
 497 1495 497 1495 602 1380 c 1,3,4
 728 1506 728 1506 825 1569 c 1,5,-1
 952 1569 l 1,6,-1
 952 1542 l 1,7,8
 747 1337 747 1337 696 1241 c 1,9,-1
 512 1241 l 1,10,11
 452 1343 452 1343 260 1542 c 1,12,-1
 260 1569 l 1,0,-1
EndSplineSet
EndChar

StartChar: uni02C9
Encoding: 713 713 303
Width: 1206
GlyphClass: 4
Flags: W
LayerCount: 2
Fore
SplineSet
299 1386 m 1,0,-1
 907 1386 l 1,1,-1
 907 1241 l 1,2,-1
 299 1241 l 1,3,-1
 299 1386 l 1,0,-1
EndSplineSet
EndChar

StartChar: breve
Encoding: 728 728 304
Width: 1214
GlyphClass: 4
Flags: W
LayerCount: 2
Fore
SplineSet
600 1241 m 0,0,1
 459 1241 459 1241 377.5 1310 c 128,-1,2
 296 1379 296 1379 287 1516 c 1,3,-1
 397 1516 l 1,4,5
 405 1445 405 1445 447 1415.5 c 128,-1,6
 489 1386 489 1386 604 1386 c 0,7,8
 705 1386 705 1386 754 1417.5 c 128,-1,9
 803 1449 803 1449 811 1516 c 1,10,-1
 924 1516 l 1,11,12
 911 1385 911 1385 825 1313 c 128,-1,13
 739 1241 739 1241 600 1241 c 0,0,1
EndSplineSet
EndChar

StartChar: dotaccent
Encoding: 729 729 305
Width: 528
GlyphClass: 4
Flags: W
LayerCount: 2
Fore
SplineSet
160 1395 m 0,0,1
 160 1455 160 1455 190.5 1482 c 128,-1,2
 221 1509 221 1509 266 1509 c 0,3,4
 308 1509 308 1509 339.5 1482 c 128,-1,5
 371 1455 371 1455 371 1395 c 0,6,7
 371 1336 371 1336 339.5 1308 c 128,-1,8
 308 1280 308 1280 266 1280 c 0,9,10
 221 1280 221 1280 190.5 1308 c 128,-1,11
 160 1336 160 1336 160 1395 c 0,0,1
EndSplineSet
EndChar

StartChar: ring
Encoding: 730 730 306
Width: 1182
GlyphClass: 4
Flags: W
LayerCount: 2
Fore
SplineSet
815 1460 m 0,0,1
 815 1359 815 1359 752.5 1300 c 128,-1,2
 690 1241 690 1241 588 1241 c 0,3,4
 485 1241 485 1241 425 1299.5 c 128,-1,5
 365 1358 365 1358 365 1458 c 0,6,7
 365 1556 365 1556 425 1614.5 c 128,-1,8
 485 1673 485 1673 588 1673 c 0,9,10
 689 1673 689 1673 752 1614 c 128,-1,11
 815 1555 815 1555 815 1460 c 0,0,1
702 1458 m 256,12,13
 702 1512 702 1512 669.5 1542.5 c 128,-1,14
 637 1573 637 1573 588 1573 c 0,15,16
 538 1573 538 1573 505.5 1542.5 c 128,-1,17
 473 1512 473 1512 473 1458 c 256,18,19
 473 1404 473 1404 502.5 1373.5 c 128,-1,20
 532 1343 532 1343 588 1343 c 0,21,22
 639 1343 639 1343 670.5 1373.5 c 128,-1,23
 702 1404 702 1404 702 1458 c 256,12,13
EndSplineSet
EndChar

StartChar: ogonek
Encoding: 731 731 307
Width: 406
GlyphClass: 4
Flags: W
LayerCount: 2
Fore
SplineSet
182 -238 m 0,0,1
 182 -284 182 -284 206.5 -307 c 128,-1,2
 231 -330 231 -330 274 -330 c 0,3,4
 318 -330 318 -330 373 -317 c 1,5,-1
 373 -432 l 1,6,7
 304 -451 304 -451 246 -451 c 0,8,9
 35 -451 35 -451 35 -258 c 0,10,11
 35 -119 35 -119 195 0 c 1,12,-1
 322 0 l 1,13,14
 252 -66 252 -66 217 -120.5 c 128,-1,15
 182 -175 182 -175 182 -238 c 0,0,1
EndSplineSet
EndChar

StartChar: tilde
Encoding: 732 732 308
Width: 1214
GlyphClass: 4
Flags: W
LayerCount: 2
Fore
SplineSet
786 1243 m 0,0,1
 743 1243 743 1243 702 1261.5 c 128,-1,2
 661 1280 661 1280 621.5 1301.5 c 128,-1,3
 582 1323 582 1323 545.5 1341.5 c 128,-1,4
 509 1360 509 1360 475 1360 c 0,5,6
 426 1360 426 1360 401 1330.5 c 128,-1,7
 376 1301 376 1301 362 1241 c 1,8,-1
 258 1241 l 1,9,10
 270 1363 270 1363 328 1433 c 128,-1,11
 386 1503 386 1503 483 1503 c 0,12,13
 528 1503 528 1503 570.5 1484.5 c 128,-1,14
 613 1466 613 1466 652 1444.5 c 128,-1,15
 691 1423 691 1423 727 1404.5 c 128,-1,16
 763 1386 763 1386 795 1386 c 0,17,18
 843 1386 843 1386 867.5 1415.5 c 128,-1,19
 892 1445 892 1445 907 1505 c 1,20,-1
 1010 1505 l 1,21,22
 998 1386 998 1386 940 1314.5 c 128,-1,23
 882 1243 882 1243 786 1243 c 0,0,1
EndSplineSet
EndChar

StartChar: hungarumlaut
Encoding: 733 733 309
Width: 1184
GlyphClass: 4
Flags: W
LayerCount: 2
Fore
SplineSet
223 1266 m 1,0,1
 258 1312 258 1312 310 1400.5 c 128,-1,2
 362 1489 362 1489 401 1569 c 1,3,-1
 598 1569 l 1,4,-1
 598 1548 l 1,5,6
 565 1492 565 1492 478.5 1394 c 128,-1,7
 392 1296 392 1296 326 1241 c 1,8,-1
 223 1241 l 1,9,-1
 223 1266 l 1,0,1
584 1266 m 1,10,11
 631 1331 631 1331 684 1422 c 128,-1,12
 737 1513 737 1513 762 1569 c 1,13,-1
 958 1569 l 1,14,-1
 958 1548 l 1,15,16
 925 1492 925 1492 838.5 1394 c 128,-1,17
 752 1296 752 1296 686 1241 c 1,18,-1
 584 1241 l 1,19,-1
 584 1266 l 1,10,11
EndSplineSet
EndChar

StartChar: tonos
Encoding: 900 900 310
Width: 1182
GlyphClass: 4
Flags: W
LayerCount: 2
Fore
SplineSet
504 1270 m 1,0,1
 533 1345 533 1345 559.5 1460.5 c 128,-1,2
 586 1576 586 1576 596 1649 c 1,3,-1
 788 1649 l 1,4,-1
 788 1626 l 1,5,6
 773 1563 773 1563 720.5 1446 c 128,-1,7
 668 1329 668 1329 612 1241 c 1,8,-1
 504 1241 l 1,9,-1
 504 1270 l 1,0,1
EndSplineSet
EndChar

StartChar: dieresistonos
Encoding: 901 901 311
Width: 1182
GlyphClass: 4
Flags: W
LayerCount: 2
Fore
SplineSet
510 1413 m 1,0,1
 566 1556 566 1556 602 1716 c 1,2,-1
 799 1716 l 1,3,-1
 799 1696 l 1,4,5
 770 1637 770 1637 713.5 1550.5 c 128,-1,6
 657 1464 657 1464 596 1389 c 1,7,-1
 510 1389 l 1,8,-1
 510 1413 l 1,0,1
272 1395 m 0,9,10
 272 1495 272 1495 367 1495 c 0,11,12
 405 1495 405 1495 433 1471.5 c 128,-1,13
 461 1448 461 1448 461 1395 c 256,14,15
 461 1342 461 1342 433 1317 c 128,-1,16
 405 1292 405 1292 367 1292 c 0,17,18
 326 1292 326 1292 299 1317 c 128,-1,19
 272 1342 272 1342 272 1395 c 0,9,10
721 1395 m 0,20,21
 721 1495 721 1495 815 1495 c 0,22,23
 852 1495 852 1495 880.5 1471.5 c 128,-1,24
 909 1448 909 1448 909 1395 c 0,25,26
 909 1350 909 1350 884 1321 c 128,-1,27
 859 1292 859 1292 815 1292 c 0,28,29
 773 1292 773 1292 747 1317 c 128,-1,30
 721 1342 721 1342 721 1395 c 0,20,21
EndSplineSet
EndChar

StartChar: Gamma
Encoding: 915 915 323
Width: 1073
GlyphClass: 2
Flags: W
LayerCount: 2
Fore
SplineSet
1024 1462 m 1,0,-1
 1024 1298 l 1,1,-1
 383 1298 l 1,2,-1
 383 0 l 1,3,-1
 199 0 l 1,4,-1
 199 1462 l 1,5,-1
 1024 1462 l 1,0,-1
EndSplineSet
EndChar

StartChar: Theta
Encoding: 920 920 328
Width: 1599
GlyphClass: 2
Flags: W
LayerCount: 2
Fore
SplineSet
489 823 m 1,0,-1
 1108 823 l 1,1,-1
 1108 664 l 1,2,-1
 489 664 l 1,3,-1
 489 823 l 1,0,-1
1475 733 m 0,4,5
 1475 382 1475 382 1296.5 181 c 128,-1,6
 1118 -20 1118 -20 799 -20 c 0,7,8
 474 -20 474 -20 298.5 177 c 128,-1,9
 123 374 123 374 123 735 c 0,10,11
 123 1092 123 1092 298.5 1288.5 c 128,-1,12
 474 1485 474 1485 801 1485 c 0,13,14
 1118 1485 1118 1485 1296.5 1286.5 c 128,-1,15
 1475 1088 1475 1088 1475 733 c 0,4,5
317 733 m 256,16,17
 317 441 317 441 440 290 c 128,-1,18
 563 139 563 139 799 139 c 0,19,20
 1038 139 1038 139 1159 289.5 c 128,-1,21
 1280 440 1280 440 1280 733 c 256,22,23
 1280 1026 1280 1026 1158 1173.5 c 128,-1,24
 1036 1321 1036 1321 801 1321 c 0,25,26
 564 1321 564 1321 440.5 1173 c 128,-1,27
 317 1025 317 1025 317 733 c 256,16,17
EndSplineSet
EndChar

StartChar: Lambda
Encoding: 923 923 331
Width: 1245
GlyphClass: 2
Flags: W
LayerCount: 2
Fore
SplineSet
717 1462 m 1,0,-1
 1243 0 l 1,1,-1
 1049 0 l 1,2,-1
 725 922 l 2,3,4
 652 1129 652 1129 618 1262 c 1,5,6
 598 1163 598 1163 516 924 c 2,7,-1
 195 0 l 1,8,-1
 0 0 l 1,9,-1
 524 1462 l 1,10,-1
 717 1462 l 1,0,-1
EndSplineSet
EndChar

StartChar: Xi
Encoding: 926 926 334
Width: 1137
GlyphClass: 2
Flags: W
LayerCount: 2
Fore
SplineSet
195 844 m 1,0,-1
 940 844 l 1,1,-1
 940 684 l 1,2,-1
 195 684 l 1,3,-1
 195 844 l 1,0,-1
113 1462 m 1,4,-1
 1022 1462 l 1,5,-1
 1022 1300 l 1,6,-1
 113 1300 l 1,7,-1
 113 1462 l 1,4,-1
1063 162 m 1,8,-1
 1063 0 l 1,9,-1
 72 0 l 1,10,-1
 72 162 l 1,11,-1
 1063 162 l 1,8,-1
EndSplineSet
EndChar

StartChar: Pi
Encoding: 928 928 336
Width: 1497
GlyphClass: 2
Flags: W
LayerCount: 2
Fore
SplineSet
1296 0 m 1,0,-1
 1114 0 l 1,1,-1
 1114 1300 l 1,2,-1
 383 1300 l 1,3,-1
 383 0 l 1,4,-1
 199 0 l 1,5,-1
 199 1462 l 1,6,-1
 1296 1462 l 1,7,-1
 1296 0 l 1,0,-1
EndSplineSet
EndChar

StartChar: Sigma
Encoding: 931 931 338
Width: 1167
GlyphClass: 2
Flags: W
LayerCount: 2
Fore
SplineSet
74 0 m 1,0,-1
 74 152 l 1,1,-1
 553 764 l 1,2,-1
 86 1309 l 1,3,-1
 86 1462 l 1,4,-1
 1059 1462 l 1,5,-1
 1059 1298 l 1,6,-1
 393 1298 l 1,7,-1
 297 1300 l 1,8,-1
 758 766 l 1,9,-1
 276 160 l 1,10,-1
 610 162 l 1,11,-1
 1118 162 l 1,12,-1
 1118 0 l 1,13,-1
 74 0 l 1,0,-1
EndSplineSet
EndChar

StartChar: Phi
Encoding: 934 934 341
Width: 1647
GlyphClass: 2
Flags: W
LayerCount: 2
Fore
SplineSet
731 1483 m 1,0,-1
 913 1483 l 1,1,-1
 913 1303 l 1,2,-1
 981 1303 l 2,3,4
 1155 1303 1155 1303 1281.5 1233.5 c 128,-1,5
 1408 1164 1408 1164 1474 1040 c 128,-1,6
 1540 916 1540 916 1540 758 c 0,7,8
 1540 593 1540 593 1466 464 c 128,-1,9
 1392 335 1392 335 1261 270 c 128,-1,10
 1130 205 1130 205 952 205 c 2,11,-1
 913 205 l 1,12,-1
 913 -20 l 1,13,-1
 731 -20 l 1,14,-1
 731 205 l 1,15,-1
 688 205 l 2,16,17
 510 205 510 205 380 271.5 c 128,-1,18
 250 338 250 338 177 467 c 128,-1,19
 104 596 104 596 104 758 c 0,20,21
 104 913 104 913 172 1037.5 c 128,-1,22
 240 1162 240 1162 367 1232.5 c 128,-1,23
 494 1303 494 1303 666 1303 c 2,24,-1
 731 1303 l 1,25,-1
 731 1483 l 1,0,-1
913 356 m 1,26,-1
 938 356 l 2,27,28
 1135 356 1135 356 1244.5 463.5 c 128,-1,29
 1354 571 1354 571 1354 760 c 0,30,31
 1354 940 1354 940 1252.5 1043.5 c 128,-1,32
 1151 1147 1151 1147 969 1147 c 2,33,-1
 913 1147 l 1,34,-1
 913 356 l 1,26,-1
731 1147 m 1,35,-1
 676 1147 l 2,36,37
 495 1147 495 1147 393 1042.5 c 128,-1,38
 291 938 291 938 291 760 c 0,39,40
 291 571 291 571 400 463.5 c 128,-1,41
 509 356 509 356 709 356 c 2,42,-1
 731 356 l 1,43,-1
 731 1147 l 1,35,-1
EndSplineSet
EndChar

StartChar: Psi
Encoding: 936 936 343
Width: 1647
GlyphClass: 2
Flags: W
LayerCount: 2
Fore
SplineSet
911 0 m 1,0,-1
 731 0 l 1,1,-1
 731 444 l 1,2,-1
 686 444 l 2,3,4
 500 444 500 444 371.5 509.5 c 128,-1,5
 243 575 243 575 176 695 c 128,-1,6
 109 815 109 815 109 979 c 2,7,-1
 109 1462 l 1,8,-1
 293 1462 l 1,9,-1
 293 983 l 2,10,11
 293 602 293 602 705 602 c 2,12,-1
 731 602 l 1,13,-1
 731 1462 l 1,14,-1
 911 1462 l 1,15,-1
 911 602 l 1,16,-1
 940 602 l 2,17,18
 1350 602 1350 602 1350 979 c 2,19,-1
 1350 1462 l 1,20,-1
 1538 1462 l 1,21,-1
 1538 981 l 2,22,23
 1538 815 1538 815 1467 691.5 c 128,-1,24
 1396 568 1396 568 1266.5 506 c 128,-1,25
 1137 444 1137 444 958 444 c 2,26,-1
 911 444 l 1,27,-1
 911 0 l 1,0,-1
EndSplineSet
EndChar

StartChar: uni03A9
Encoding: 937 937 344
Width: 1602
GlyphClass: 2
Flags: W
LayerCount: 2
Fore
SplineSet
801 1323 m 0,0,1
 567 1323 567 1323 446.5 1195.5 c 128,-1,2
 326 1068 326 1068 326 821 c 0,3,4
 326 597 326 597 408.5 436 c 128,-1,5
 491 275 491 275 668 147 c 1,6,-1
 668 0 l 1,7,-1
 78 0 l 1,8,-1
 78 162 l 1,9,-1
 442 162 l 1,10,11
 291 278 291 278 211 450 c 128,-1,12
 131 622 131 622 131 827 c 0,13,14
 131 1135 131 1135 309 1310 c 128,-1,15
 487 1485 487 1485 801 1485 c 0,16,17
 1119 1485 1119 1485 1296 1311 c 128,-1,18
 1473 1137 1473 1137 1473 829 c 0,19,20
 1473 623 1473 623 1392.5 450 c 128,-1,21
 1312 277 1312 277 1163 162 c 1,22,-1
 1526 162 l 1,23,-1
 1526 0 l 1,24,-1
 936 0 l 1,25,-1
 936 147 l 1,26,27
 1113 274 1113 274 1196.5 437.5 c 128,-1,28
 1280 601 1280 601 1280 821 c 0,29,30
 1280 1067 1280 1067 1158.5 1195 c 128,-1,31
 1037 1323 1037 1323 801 1323 c 0,0,1
EndSplineSet
EndChar

StartChar: alpha
Encoding: 945 945 352
Width: 1260
GlyphClass: 2
Flags: W
LayerCount: 2
Fore
SplineSet
594 129 m 0,0,1
 759 129 759 129 832 224 c 128,-1,2
 905 319 905 319 905 535 c 2,3,-1
 905 547 l 2,4,5
 905 772 905 772 830.5 869.5 c 128,-1,6
 756 967 756 967 592 967 c 0,7,8
 299 967 299 967 299 543 c 0,9,10
 299 337 299 337 369.5 233 c 128,-1,11
 440 129 440 129 594 129 c 0,0,1
563 -20 m 0,12,13
 351 -20 351 -20 232 129 c 128,-1,14
 113 278 113 278 113 545 c 0,15,16
 113 819 113 819 235 968.5 c 128,-1,17
 357 1118 357 1118 580 1118 c 0,18,19
 701 1118 701 1118 781 1076 c 128,-1,20
 861 1034 861 1034 915 950 c 1,21,-1
 928 950 l 1,22,23
 952 1042 952 1042 993 1098 c 1,24,-1
 1135 1098 l 1,25,26
 1111 1029 1111 1029 1097 899.5 c 128,-1,27
 1083 770 1083 770 1083 668 c 2,28,-1
 1083 242 l 2,29,30
 1083 179 1083 179 1107.5 153 c 128,-1,31
 1132 127 1132 127 1167 127 c 0,32,33
 1199 127 1199 127 1229 137 c 1,34,-1
 1229 6 l 1,35,36
 1213 -3 1213 -3 1180.5 -11.5 c 128,-1,37
 1148 -20 1148 -20 1114 -20 c 0,38,39
 1027 -20 1027 -20 982 23 c 128,-1,40
 937 66 937 66 920 147 c 1,41,-1
 905 147 l 1,42,43
 845 60 845 60 762.5 20 c 128,-1,44
 680 -20 680 -20 563 -20 c 0,12,13
EndSplineSet
EndChar

StartChar: beta
Encoding: 946 946 353
Width: 1292
GlyphClass: 2
Flags: W
LayerCount: 2
Fore
SplineSet
664 1567 m 0,0,1
 885 1567 885 1567 1010 1463 c 128,-1,2
 1135 1359 1135 1359 1135 1176 c 0,3,4
 1135 882 1135 882 823 831 c 1,5,-1
 823 823 l 1,6,7
 1010 802 1010 802 1105 702.5 c 128,-1,8
 1200 603 1200 603 1200 416 c 0,9,10
 1200 208 1200 208 1069.5 94 c 128,-1,11
 939 -20 939 -20 700 -20 c 0,12,13
 589 -20 589 -20 508.5 -3.5 c 128,-1,14
 428 13 428 13 354 49 c 1,15,-1
 354 -492 l 1,16,-1
 174 -492 l 1,17,-1
 174 1096 l 2,18,19
 174 1320 174 1320 301 1443.5 c 128,-1,20
 428 1567 428 1567 664 1567 c 0,0,1
659 1417 m 0,21,22
 354 1417 354 1417 354 1087 c 2,23,-1
 354 211 l 1,24,25
 425 174 425 174 502.5 150.5 c 128,-1,26
 580 127 580 127 684 127 c 0,27,28
 1020 127 1020 127 1020 428 c 0,29,30
 1020 580 1020 580 928 659.5 c 128,-1,31
 836 739 836 739 664 739 c 2,32,-1
 555 739 l 1,33,-1
 555 891 l 1,34,-1
 643 891 l 2,35,36
 792 891 792 891 871 962 c 128,-1,37
 950 1033 950 1033 950 1167 c 0,38,39
 950 1288 950 1288 874 1352.5 c 128,-1,40
 798 1417 798 1417 659 1417 c 0,21,22
EndSplineSet
EndChar

StartChar: gamma
Encoding: 947 947 354
Width: 1061
GlyphClass: 2
Flags: W
LayerCount: 2
Fore
SplineSet
545 -492 m 1,0,-1
 350 -492 l 1,1,2
 350 -401 350 -401 380 -256 c 128,-1,3
 410 -111 410 -111 455 12 c 1,4,-1
 10 1098 l 1,5,-1
 197 1098 l 1,6,-1
 428 522 l 2,7,8
 465 429 465 429 497.5 329.5 c 128,-1,9
 530 230 530 230 539 182 c 1,10,-1
 547 182 l 1,11,12
 553 222 553 222 585.5 329.5 c 128,-1,13
 618 437 618 437 647 514 c 2,14,-1
 864 1098 l 1,15,-1
 1051 1098 l 1,16,-1
 645 27 l 2,17,18
 600 -90 600 -90 572.5 -238 c 128,-1,19
 545 -386 545 -386 545 -492 c 1,0,-1
EndSplineSet
EndChar

StartChar: delta
Encoding: 948 948 355
Width: 1237
GlyphClass: 2
Flags: W
LayerCount: 2
Fore
SplineSet
539 934 m 1,0,1
 400 1013 400 1013 342.5 1092.5 c 128,-1,2
 285 1172 285 1172 285 1270 c 0,3,4
 285 1402 285 1402 384.5 1479 c 128,-1,5
 484 1556 484 1556 653 1556 c 0,6,7
 757 1556 757 1556 852 1533 c 128,-1,8
 947 1510 947 1510 1075 1446 c 1,9,-1
 997 1305 l 1,10,11
 896 1361 896 1361 814 1385 c 128,-1,12
 732 1409 732 1409 645 1409 c 0,13,14
 563 1409 563 1409 515 1371 c 128,-1,15
 467 1333 467 1333 467 1268 c 0,16,17
 467 1199 467 1199 521.5 1145.5 c 128,-1,18
 576 1092 576 1092 741 1001 c 0,19,20
 954 884 954 884 1040 762 c 128,-1,21
 1126 640 1126 640 1126 483 c 0,22,23
 1126 247 1126 247 991 113.5 c 128,-1,24
 856 -20 856 -20 614 -20 c 0,25,26
 385 -20 385 -20 248 104 c 128,-1,27
 111 228 111 228 111 438 c 0,28,29
 111 617 111 617 223 745.5 c 128,-1,30
 335 874 335 874 539 934 c 1,0,1
940 481 m 0,31,32
 940 605 940 605 880.5 694 c 128,-1,33
 821 783 821 783 682 856 c 1,34,35
 493 811 493 811 396 704 c 128,-1,36
 299 597 299 597 299 436 c 0,37,38
 299 298 299 298 384 213.5 c 128,-1,39
 469 129 469 129 614 129 c 0,40,41
 772 129 772 129 856 219.5 c 128,-1,42
 940 310 940 310 940 481 c 0,31,32
EndSplineSet
EndChar

StartChar: epsilon
Encoding: 949 949 356
Width: 989
GlyphClass: 2
Flags: W
LayerCount: 2
Fore
SplineSet
727 645 m 1,0,-1
 727 498 l 1,1,-1
 578 498 l 2,2,3
 268 498 268 498 268 309 c 0,4,5
 268 220 268 220 342 173.5 c 128,-1,6
 416 127 416 127 559 127 c 0,7,8
 644 127 644 127 729.5 146.5 c 128,-1,9
 815 166 815 166 915 213 c 1,10,-1
 915 55 l 1,11,12
 776 -20 776 -20 549 -20 c 0,13,14
 329 -20 329 -20 208.5 65.5 c 128,-1,15
 88 151 88 151 88 299 c 0,16,17
 88 398 88 398 144.5 463.5 c 128,-1,18
 201 529 201 529 332 567 c 1,19,-1
 332 578 l 1,20,21
 233 606 233 606 180 670 c 128,-1,22
 127 734 127 734 127 827 c 0,23,24
 127 962 127 962 242.5 1040 c 128,-1,25
 358 1118 358 1118 549 1118 c 0,26,27
 660 1118 660 1118 746.5 1099.5 c 128,-1,28
 833 1081 833 1081 920 1040 c 1,29,-1
 852 897 l 1,30,31
 753 941 753 941 687 955 c 128,-1,32
 621 969 621 969 547 969 c 0,33,34
 299 969 299 969 299 813 c 0,35,36
 299 645 299 645 612 645 c 2,37,-1
 727 645 l 1,0,-1
EndSplineSet
EndChar

StartChar: zeta
Encoding: 950 950 357
Width: 991
GlyphClass: 2
Flags: W
LayerCount: 2
Fore
SplineSet
936 -82 m 0,0,1
 936 -227 936 -227 807 -399 c 1,2,-1
 629 -399 l 1,3,4
 756 -230 756 -230 756 -129 c 0,5,6
 756 -89 756 -89 731.5 -66.5 c 128,-1,7
 707 -44 707 -44 652 -25 c 128,-1,8
 597 -6 597 -6 508 10 c 0,9,10
 306 45 306 45 209.5 153 c 128,-1,11
 113 261 113 261 113 459 c 0,12,13
 113 562 113 562 136 653 c 128,-1,14
 159 744 159 744 201 827 c 128,-1,15
 243 910 243 910 303.5 989.5 c 128,-1,16
 364 1069 364 1069 442.5 1151 c 128,-1,17
 521 1233 521 1233 723 1415 c 1,18,19
 716 1414 716 1414 687.5 1413 c 128,-1,20
 659 1412 659 1412 617 1410.5 c 128,-1,21
 575 1409 575 1409 420 1407 c 2,22,-1
 174 1407 l 1,23,-1
 174 1556 l 1,24,-1
 936 1556 l 1,25,-1
 936 1421 l 1,26,27
 721 1241 721 1241 577.5 1079.5 c 128,-1,28
 434 918 434 918 366.5 776 c 128,-1,29
 299 634 299 634 299 471 c 0,30,31
 299 375 299 375 328.5 316 c 128,-1,32
 358 257 358 257 419.5 221.5 c 128,-1,33
 481 186 481 186 647 152 c 0,34,35
 799 121 799 121 867.5 64.5 c 128,-1,36
 936 8 936 8 936 -82 c 0,0,1
EndSplineSet
EndChar

StartChar: eta
Encoding: 951 951 358
Width: 1266
GlyphClass: 2
Flags: W
LayerCount: 2
Fore
SplineSet
922 -492 m 1,0,-1
 922 702 l 2,1,2
 922 834 922 834 863 900.5 c 128,-1,3
 804 967 804 967 676 967 c 0,4,5
 507 967 507 967 430.5 871.5 c 128,-1,6
 354 776 354 776 354 569 c 2,7,-1
 354 0 l 1,8,-1
 174 0 l 1,9,-1
 174 1098 l 1,10,-1
 319 1098 l 1,11,-1
 346 948 l 1,12,-1
 356 948 l 1,13,14
 407 1029 407 1029 499 1073.5 c 128,-1,15
 591 1118 591 1118 702 1118 c 0,16,17
 904 1118 904 1118 1002 1020 c 128,-1,18
 1100 922 1100 922 1100 715 c 2,19,-1
 1100 -492 l 1,20,-1
 922 -492 l 1,0,-1
EndSplineSet
EndChar

StartChar: theta
Encoding: 952 952 359
Width: 1219
GlyphClass: 2
Flags: W
LayerCount: 2
Fore
SplineSet
1106 772 m 0,0,1
 1106 370 1106 370 981.5 175 c 128,-1,2
 857 -20 857 -20 606 -20 c 0,3,4
 362 -20 362 -20 237.5 181.5 c 128,-1,5
 113 383 113 383 113 772 c 0,6,7
 113 1178 113 1178 236 1372.5 c 128,-1,8
 359 1567 359 1567 606 1567 c 256,9,10
 853 1567 853 1567 979.5 1365 c 128,-1,11
 1106 1163 1106 1163 1106 772 c 0,0,1
606 127 m 0,12,13
 766 127 766 127 841.5 275 c 128,-1,14
 917 423 917 423 924 719 c 1,15,-1
 295 719 l 1,16,17
 299 414 299 414 374.5 270.5 c 128,-1,18
 450 127 450 127 606 127 c 0,12,13
606 1419 m 0,19,20
 456 1419 456 1419 380.5 1285.5 c 128,-1,21
 305 1152 305 1152 295 868 c 1,22,-1
 922 868 l 1,23,24
 909 1156 909 1156 832 1287.5 c 128,-1,25
 755 1419 755 1419 606 1419 c 0,19,20
EndSplineSet
EndChar

StartChar: iota
Encoding: 953 953 360
Width: 709
GlyphClass: 2
Flags: W
LayerCount: 2
Fore
SplineSet
346 1098 m 1,0,-1
 346 324 l 2,1,2
 346 225 346 225 383 176 c 128,-1,3
 420 127 420 127 504 127 c 0,4,5
 548 127 548 127 597 134.5 c 128,-1,6
 646 142 646 142 672 150 c 1,7,-1
 672 12 l 1,8,9
 645 0 645 0 589 -10 c 128,-1,10
 533 -20 533 -20 479 -20 c 0,11,12
 315 -20 315 -20 241.5 65 c 128,-1,13
 168 150 168 150 168 322 c 2,14,-1
 168 1098 l 1,15,-1
 346 1098 l 1,0,-1
EndSplineSet
EndChar

StartChar: lambda
Encoding: 955 955 362
Width: 1110
GlyphClass: 2
Flags: W
LayerCount: 2
Fore
SplineSet
-12 0 m 1,0,-1
 461 1077 l 1,1,-1
 406 1231 l 2,2,3
 372 1320 372 1320 347.5 1353 c 128,-1,4
 323 1386 323 1386 289.5 1402.5 c 128,-1,5
 256 1419 256 1419 207 1419 c 0,6,7
 145 1419 145 1419 92 1407 c 1,8,-1
 92 1552 l 1,9,10
 160 1569 160 1569 227 1569 c 0,11,12
 321 1569 321 1569 383 1539 c 128,-1,13
 445 1509 445 1509 490.5 1444.5 c 128,-1,14
 536 1380 536 1380 592 1225 c 2,15,-1
 946 238 l 2,16,17
 966 181 966 181 989.5 154 c 128,-1,18
 1013 127 1013 127 1049 127 c 0,19,20
 1073 127 1073 127 1110 137 c 1,21,-1
 1110 4 l 1,22,23
 1060 -20 1060 -20 993 -20 c 0,24,25
 919 -20 919 -20 874 17 c 128,-1,26
 829 54 829 54 797 145 c 2,27,-1
 647 565 l 2,28,29
 562 808 562 808 545 891 c 1,30,-1
 537 891 l 1,31,32
 504 765 504 765 424 575 c 2,33,-1
 174 0 l 1,34,-1
 -12 0 l 1,0,-1
EndSplineSet
EndChar

StartChar: nu
Encoding: 957 957 364
Width: 1120
GlyphClass: 2
Flags: W
LayerCount: 2
Fore
SplineSet
0 1098 m 1,0,-1
 186 1098 l 1,1,-1
 406 506 l 2,2,3
 419 469 419 469 436.5 420.5 c 128,-1,4
 454 372 454 372 471 322.5 c 128,-1,5
 488 273 488 273 502 227.5 c 128,-1,6
 516 182 516 182 524 152 c 1,7,-1
 532 152 l 1,8,9
 704 328 704 328 781 546.5 c 128,-1,10
 858 765 858 765 858 1098 c 1,11,-1
 1036 1098 l 1,12,13
 1036 734 1036 734 932.5 480 c 128,-1,14
 829 226 829 226 604 0 c 1,15,-1
 410 0 l 1,16,-1
 0 1098 l 1,0,-1
EndSplineSet
EndChar

StartChar: xi
Encoding: 958 958 365
Width: 977
GlyphClass: 2
Flags: W
LayerCount: 2
Fore
SplineSet
111 422 m 0,0,1
 111 559 111 559 188.5 663 c 128,-1,2
 266 767 266 767 397 809 c 1,3,-1
 397 821 l 1,4,5
 180 883 180 883 180 1100 c 0,6,7
 180 1215 180 1215 250 1293.5 c 128,-1,8
 320 1372 320 1372 483 1419 c 1,9,10
 339 1407 339 1407 236 1407 c 2,11,-1
 174 1407 l 1,12,-1
 174 1556 l 1,13,-1
 883 1556 l 1,14,-1
 883 1417 l 1,15,-1
 829 1417 l 2,16,17
 699 1417 699 1417 589 1378 c 128,-1,18
 479 1339 479 1339 416.5 1268 c 128,-1,19
 354 1197 354 1197 354 1104 c 0,20,21
 354 992 354 992 435 939.5 c 128,-1,22
 516 887 516 887 688 887 c 2,23,-1
 858 887 l 1,24,-1
 858 750 l 1,25,-1
 682 750 l 2,26,27
 508 750 508 750 403.5 665 c 128,-1,28
 299 580 299 580 299 436 c 0,29,30
 299 358 299 358 324 309.5 c 128,-1,31
 349 261 349 261 395 231.5 c 128,-1,32
 441 202 441 202 507 184.5 c 128,-1,33
 573 167 573 167 655 150 c 0,34,35
 804 117 804 117 870 62 c 128,-1,36
 936 7 936 7 936 -82 c 0,37,38
 936 -220 936 -220 813 -399 c 1,39,-1
 643 -399 l 1,40,41
 698 -325 698 -325 731 -251 c 128,-1,42
 764 -177 764 -177 764 -127 c 0,43,44
 764 -73 764 -73 704.5 -43.5 c 128,-1,45
 645 -14 645 -14 514 10 c 0,46,47
 314 44 314 44 212.5 144.5 c 128,-1,48
 111 245 111 245 111 422 c 0,0,1
EndSplineSet
EndChar

StartChar: pi
Encoding: 960 960 367
Width: 1350
GlyphClass: 2
Flags: W
LayerCount: 2
Fore
SplineSet
1163 127 m 0,0,1
 1216 127 1216 127 1253 147 c 1,2,-1
 1253 6 l 1,3,4
 1204 -20 1204 -20 1118 -20 c 0,5,6
 891 -20 891 -20 891 242 c 2,7,-1
 891 948 l 1,8,-1
 426 948 l 1,9,-1
 426 0 l 1,10,-1
 248 0 l 1,11,-1
 248 948 l 1,12,-1
 25 948 l 1,13,-1
 25 1026 l 1,14,-1
 172 1098 l 1,15,-1
 1284 1098 l 1,16,-1
 1284 948 l 1,17,-1
 1069 948 l 1,18,-1
 1069 254 l 2,19,20
 1069 127 1069 127 1163 127 c 0,0,1
EndSplineSet
EndChar

StartChar: rho
Encoding: 961 961 368
Width: 1239
GlyphClass: 2
Flags: W
LayerCount: 2
Fore
SplineSet
1126 549 m 0,0,1
 1126 277 1126 277 999 128.5 c 128,-1,2
 872 -20 872 -20 641 -20 c 0,3,4
 465 -20 465 -20 344 72 c 1,5,-1
 334 72 l 1,6,7
 344 4 344 4 344 -201 c 2,8,-1
 344 -492 l 1,9,-1
 162 -492 l 1,10,-1
 162 563 l 2,11,12
 162 830 162 830 288.5 974 c 128,-1,13
 415 1118 415 1118 651 1118 c 0,14,15
 870 1118 870 1118 998 966 c 128,-1,16
 1126 814 1126 814 1126 549 c 0,0,1
643 967 m 0,17,18
 490 967 490 967 417 866 c 128,-1,19
 344 765 344 765 344 561 c 2,20,-1
 344 229 l 1,21,22
 460 129 460 129 639 129 c 0,23,24
 800 129 800 129 871 235 c 128,-1,25
 942 341 942 341 942 549 c 0,26,27
 942 759 942 759 871.5 863 c 128,-1,28
 801 967 801 967 643 967 c 0,17,18
EndSplineSet
EndChar

StartChar: sigma1
Encoding: 962 962 369
Width: 991
GlyphClass: 2
Flags: W
LayerCount: 2
Fore
SplineSet
299 520 m 0,0,1
 299 392 299 392 327.5 328 c 128,-1,2
 356 264 356 264 425 225 c 128,-1,3
 494 186 494 186 653 152 c 0,4,5
 798 121 798 121 867 65.5 c 128,-1,6
 936 10 936 10 936 -82 c 0,7,8
 936 -226 936 -226 813 -399 c 1,9,-1
 643 -399 l 1,10,11
 695 -330 695 -330 730.5 -254.5 c 128,-1,12
 766 -179 766 -179 766 -127 c 0,13,14
 766 -89 766 -89 742.5 -66.5 c 128,-1,15
 719 -44 719 -44 662.5 -24 c 128,-1,16
 606 -4 606 -4 516 12 c 0,17,18
 308 52 308 52 210.5 178 c 128,-1,19
 113 304 113 304 113 518 c 0,20,21
 113 805 113 805 249.5 961.5 c 128,-1,22
 386 1118 386 1118 641 1118 c 0,23,24
 723 1118 723 1118 802 1101 c 128,-1,25
 881 1084 881 1084 938 1059 c 1,26,-1
 881 909 l 1,27,28
 741 961 741 961 633 961 c 0,29,30
 463 961 463 961 381 854.5 c 128,-1,31
 299 748 299 748 299 520 c 0,0,1
EndSplineSet
EndChar

StartChar: sigma
Encoding: 963 963 370
Width: 1264
GlyphClass: 2
Flags: W
LayerCount: 2
Fore
SplineSet
1126 504 m 0,0,1
 1126 348 1126 348 1064.5 228.5 c 128,-1,2
 1003 109 1003 109 887.5 44.5 c 128,-1,3
 772 -20 772 -20 616 -20 c 0,4,5
 379 -20 379 -20 246 124.5 c 128,-1,6
 113 269 113 269 113 524 c 0,7,8
 113 1098 113 1098 709 1098 c 2,9,-1
 1214 1098 l 1,10,-1
 1214 948 l 1,11,-1
 948 948 l 1,12,13
 1126 781 1126 781 1126 504 c 0,0,1
299 524 m 0,14,15
 299 331 299 331 381.5 230 c 128,-1,16
 464 129 464 129 621 129 c 0,17,18
 776 129 776 129 859 225 c 128,-1,19
 942 321 942 321 942 500 c 0,20,21
 942 761 942 761 772 948 c 1,22,-1
 709 948 l 2,23,24
 491 948 491 948 395 846.5 c 128,-1,25
 299 745 299 745 299 524 c 0,14,15
EndSplineSet
EndChar

StartChar: tau
Encoding: 964 964 371
Width: 981
GlyphClass: 2
Flags: W
LayerCount: 2
Fore
SplineSet
926 1098 m 1,0,-1
 926 946 l 1,1,-1
 498 946 l 1,2,-1
 498 336 l 2,3,4
 498 123 498 123 694 123 c 0,5,6
 798 123 798 123 868 145 c 1,7,-1
 868 10 l 1,8,9
 829 -5 829 -5 772.5 -14 c 128,-1,10
 716 -23 716 -23 668 -23 c 0,11,12
 485 -23 485 -23 400 62.5 c 128,-1,13
 315 148 315 148 315 317 c 2,14,-1
 315 946 l 1,15,-1
 20 946 l 1,16,-1
 20 1026 l 1,17,-1
 170 1098 l 1,18,-1
 926 1098 l 1,0,-1
EndSplineSet
EndChar

StartChar: upsilon
Encoding: 965 965 372
Width: 1255
GlyphClass: 2
Flags: W
LayerCount: 2
Fore
SplineSet
629 -20 m 0,0,1
 395 -20 395 -20 278.5 105.5 c 128,-1,2
 162 231 162 231 162 498 c 2,3,-1
 162 1098 l 1,4,-1
 342 1098 l 1,5,-1
 342 504 l 2,6,7
 342 127 342 127 643 127 c 0,8,9
 806 127 806 127 884.5 244 c 128,-1,10
 963 361 963 361 963 606 c 0,11,12
 963 734 963 734 949.5 838.5 c 128,-1,13
 936 943 936 943 899 1098 c 1,14,-1
 1079 1098 l 1,15,16
 1118 949 1118 949 1131.5 835.5 c 128,-1,17
 1145 722 1145 722 1145 598 c 0,18,19
 1145 280 1145 280 1014.5 130 c 128,-1,20
 884 -20 884 -20 629 -20 c 0,0,1
EndSplineSet
EndChar

StartChar: phi
Encoding: 966 966 373
Width: 1485
GlyphClass: 2
Flags: W
LayerCount: 2
Fore
SplineSet
643 -492 m 1,0,-1
 643 -18 l 1,1,2
 382 -4 382 -4 247.5 140.5 c 128,-1,3
 113 285 113 285 113 555 c 0,4,5
 113 853 113 853 322 1108 c 1,6,-1
 461 1012 l 1,7,8
 372 895 372 895 332.5 783.5 c 128,-1,9
 293 672 293 672 293 549 c 0,10,11
 293 164 293 164 643 129 c 1,12,-1
 643 739 l 2,13,14
 643 921 643 921 728 1019.5 c 128,-1,15
 813 1118 813 1118 967 1118 c 0,16,17
 1152 1118 1152 1118 1262 971 c 128,-1,18
 1372 824 1372 824 1372 575 c 0,19,20
 1372 398 1372 398 1304 268 c 128,-1,21
 1236 138 1236 138 1111 64.5 c 128,-1,22
 986 -9 986 -9 819 -18 c 1,23,-1
 819 -492 l 1,24,-1
 643 -492 l 1,0,-1
1190 573 m 0,25,26
 1190 757 1190 757 1130 863 c 128,-1,27
 1070 969 1070 969 969 969 c 0,28,29
 898 969 898 969 858.5 912 c 128,-1,30
 819 855 819 855 819 741 c 2,31,-1
 819 129 l 1,32,33
 994 145 994 145 1092 261 c 128,-1,34
 1190 377 1190 377 1190 573 c 0,25,26
EndSplineSet
EndChar

StartChar: chi
Encoding: 967 967 374
Width: 1128
GlyphClass: 2
Flags: W
LayerCount: 2
Fore
SplineSet
184 1104 m 0,0,1
 242 1104 242 1104 282 1081.5 c 128,-1,2
 322 1059 322 1059 353.5 1014.5 c 128,-1,3
 385 970 385 970 430 854 c 2,4,-1
 569 502 l 1,5,-1
 883 1098 l 1,6,-1
 1075 1098 l 1,7,-1
 645 328 l 1,8,-1
 836 -156 l 2,9,10
 877 -263 877 -263 917.5 -303.5 c 128,-1,11
 958 -344 958 -344 1024 -344 c 0,12,13
 1068 -344 1068 -344 1116 -336 c 1,14,-1
 1116 -475 l 1,15,16
 1051 -492 1051 -492 989 -492 c 0,17,18
 874 -492 874 -492 803 -433 c 128,-1,19
 732 -374 732 -374 672 -213 c 2,20,-1
 526 168 l 1,21,-1
 170 -492 l 1,22,-1
 -23 -492 l 1,23,-1
 444 348 l 1,24,-1
 276 784 l 2,25,26
 246 866 246 866 211.5 912 c 128,-1,27
 177 958 177 958 125 958 c 0,28,29
 85 958 85 958 57 946 c 1,30,-1
 57 1087 l 1,31,32
 110 1104 110 1104 184 1104 c 0,0,1
EndSplineSet
EndChar

StartChar: psi
Encoding: 968 968 375
Width: 1559
GlyphClass: 2
Flags: W
LayerCount: 2
Fore
SplineSet
872 1554 m 1,0,-1
 872 133 l 1,1,2
 1063 151 1063 151 1160 262 c 128,-1,3
 1257 373 1257 373 1257 573 c 0,4,5
 1257 704 1257 704 1242.5 818.5 c 128,-1,6
 1228 933 1228 933 1192 1098 c 1,7,-1
 1370 1098 l 1,8,9
 1434 822 1434 822 1434 580 c 0,10,11
 1434 303 1434 303 1291 151 c 128,-1,12
 1148 -1 1148 -1 872 -18 c 1,13,-1
 872 -492 l 1,14,-1
 696 -492 l 1,15,-1
 696 -18 l 1,16,17
 430 -9 430 -9 296 135 c 128,-1,18
 162 279 162 279 162 553 c 2,19,-1
 162 1098 l 1,20,-1
 340 1098 l 1,21,-1
 340 547 l 2,22,23
 340 156 340 156 696 131 c 1,24,-1
 696 1554 l 1,25,-1
 872 1554 l 1,0,-1
EndSplineSet
EndChar

StartChar: omega
Encoding: 969 969 376
Width: 1602
GlyphClass: 2
Flags: W
LayerCount: 2
Fore
SplineSet
506 -20 m 0,0,1
 323 -20 323 -20 219 128 c 128,-1,2
 115 276 115 276 115 532 c 0,3,4
 115 693 115 693 144.5 825.5 c 128,-1,5
 174 958 174 958 236 1098 c 1,6,-1
 420 1098 l 1,7,8
 354 949 354 949 324.5 819 c 128,-1,9
 295 689 295 689 295 530 c 0,10,11
 295 341 295 341 353.5 235 c 128,-1,12
 412 129 412 129 518 129 c 0,13,14
 613 129 613 129 664 200 c 128,-1,15
 715 271 715 271 715 395 c 2,16,-1
 715 705 l 1,17,-1
 887 705 l 1,18,-1
 887 395 l 2,19,20
 887 267 887 267 937.5 198 c 128,-1,21
 988 129 988 129 1081 129 c 0,22,23
 1185 129 1185 129 1246 230 c 128,-1,24
 1307 331 1307 331 1307 530 c 0,25,26
 1307 687 1307 687 1277.5 819 c 128,-1,27
 1248 951 1248 951 1182 1098 c 1,28,-1
 1366 1098 l 1,29,30
 1432 944 1432 944 1459.5 815 c 128,-1,31
 1487 686 1487 686 1487 532 c 0,32,33
 1487 275 1487 275 1383 127.5 c 128,-1,34
 1279 -20 1279 -20 1096 -20 c 0,35,36
 874 -20 874 -20 805 164 c 1,37,-1
 795 164 l 1,38,39
 730 -20 730 -20 506 -20 c 0,0,1
EndSplineSet
EndChar

StartChar: uni0402
Encoding: 1026 1026 383
Width: 1518
GlyphClass: 2
Flags: W
LayerCount: 2
Fore
SplineSet
991 -20 m 0,0,1
 888 -20 888 -20 836 4 c 1,2,-1
 836 164 l 1,3,4
 895 143 895 143 983 143 c 0,5,6
 1082 143 1082 143 1132 202 c 128,-1,7
 1182 261 1182 261 1182 371 c 2,8,-1
 1182 502 l 2,9,10
 1182 626 1182 626 1118.5 680.5 c 128,-1,11
 1055 735 1055 735 920 735 c 2,12,-1
 543 735 l 1,13,-1
 543 0 l 1,14,-1
 360 0 l 1,15,-1
 360 1300 l 1,16,-1
 20 1300 l 1,17,-1
 20 1462 l 1,18,-1
 987 1462 l 1,19,-1
 987 1300 l 1,20,-1
 543 1300 l 1,21,-1
 543 897 l 1,22,-1
 934 897 l 2,23,24
 1142 897 1142 897 1253 800.5 c 128,-1,25
 1364 704 1364 704 1364 526 c 2,26,-1
 1364 383 l 2,27,28
 1364 193 1364 193 1265.5 86.5 c 128,-1,29
 1167 -20 1167 -20 991 -20 c 0,0,1
EndSplineSet
EndChar

StartChar: uni0404
Encoding: 1028 1028 385
Width: 1317
GlyphClass: 2
Flags: W
LayerCount: 2
Fore
SplineSet
834 1321 m 0,0,1
 614 1321 614 1321 482 1198.5 c 128,-1,2
 350 1076 350 1076 324 842 c 1,3,-1
 1036 842 l 1,4,-1
 1036 682 l 1,5,-1
 319 682 l 1,6,7
 331 415 331 415 461.5 278 c 128,-1,8
 592 141 592 141 834 141 c 0,9,10
 998 141 998 141 1200 199 c 1,11,-1
 1200 39 l 1,12,13
 1042 -20 1042 -20 809 -20 c 0,14,15
 476 -20 476 -20 300.5 174 c 128,-1,16
 125 368 125 368 125 733 c 0,17,18
 125 1082 125 1082 313 1283.5 c 128,-1,19
 501 1485 501 1485 838 1485 c 0,20,21
 1073 1485 1073 1485 1257 1395 c 1,22,-1
 1182 1237 l 1,23,24
 1007 1321 1007 1321 834 1321 c 0,0,1
EndSplineSet
EndChar

StartChar: uni0409
Encoding: 1033 1033 390
Width: 1917
GlyphClass: 2
Flags: W
LayerCount: 2
Fore
SplineSet
1839 428 m 0,0,1
 1839 221 1839 221 1701 110.5 c 128,-1,2
 1563 0 1563 0 1300 0 c 2,3,-1
 965 0 l 1,4,-1
 965 1300 l 1,5,-1
 608 1300 l 1,6,7
 552 875 552 875 509.5 611 c 128,-1,8
 467 347 467 347 425.5 220.5 c 128,-1,9
 384 94 384 94 314 35.5 c 128,-1,10
 244 -23 244 -23 135 -23 c 0,11,12
 66 -23 66 -23 2 2 c 1,13,-1
 2 156 l 1,14,15
 54 131 54 131 115 131 c 0,16,17
 173 131 173 131 213.5 185 c 128,-1,18
 254 239 254 239 282 360 c 128,-1,19
 310 481 310 481 345.5 707.5 c 128,-1,20
 381 934 381 934 453 1462 c 1,21,-1
 1149 1462 l 1,22,-1
 1149 844 l 1,23,-1
 1270 844 l 2,24,25
 1550 844 1550 844 1694.5 740.5 c 128,-1,26
 1839 637 1839 637 1839 428 c 0,0,1
1149 158 m 1,27,-1
 1278 158 l 2,28,29
 1468 158 1468 158 1558.5 224.5 c 128,-1,30
 1649 291 1649 291 1649 428 c 0,31,32
 1649 562 1649 562 1556 623 c 128,-1,33
 1463 684 1463 684 1247 684 c 2,34,-1
 1149 684 l 1,35,-1
 1149 158 l 1,27,-1
EndSplineSet
EndChar

StartChar: uni040A
Encoding: 1034 1034 391
Width: 1962
GlyphClass: 2
Flags: W
LayerCount: 2
Fore
SplineSet
1884 428 m 256,0,1
 1884 219 1884 219 1745.5 109.5 c 128,-1,2
 1607 0 1607 0 1348 0 c 2,3,-1
 1010 0 l 1,4,-1
 1010 682 l 1,5,-1
 383 682 l 1,6,-1
 383 0 l 1,7,-1
 199 0 l 1,8,-1
 199 1462 l 1,9,-1
 383 1462 l 1,10,-1
 383 844 l 1,11,-1
 1010 844 l 1,12,-1
 1010 1462 l 1,13,-1
 1196 1462 l 1,14,-1
 1196 844 l 1,15,-1
 1315 844 l 2,16,17
 1595 844 1595 844 1739.5 740.5 c 128,-1,18
 1884 637 1884 637 1884 428 c 256,0,1
1196 158 m 1,19,-1
 1325 158 l 2,20,21
 1515 158 1515 158 1604.5 224.5 c 128,-1,22
 1694 291 1694 291 1694 428 c 0,23,24
 1694 562 1694 562 1601 623 c 128,-1,25
 1508 684 1508 684 1294 684 c 2,26,-1
 1196 684 l 1,27,-1
 1196 158 l 1,19,-1
EndSplineSet
EndChar

StartChar: uni040B
Encoding: 1035 1035 392
Width: 1518
GlyphClass: 2
Flags: W
LayerCount: 2
Fore
SplineSet
543 895 m 1,0,-1
 940 895 l 2,1,2
 1145 895 1145 895 1254.5 801 c 128,-1,3
 1364 707 1364 707 1364 524 c 2,4,-1
 1364 0 l 1,5,-1
 1180 0 l 1,6,-1
 1180 502 l 2,7,8
 1180 625 1180 625 1120.5 679 c 128,-1,9
 1061 733 1061 733 928 733 c 2,10,-1
 543 733 l 1,11,-1
 543 0 l 1,12,-1
 358 0 l 1,13,-1
 358 1298 l 1,14,-1
 20 1298 l 1,15,-1
 20 1462 l 1,16,-1
 1044 1462 l 1,17,-1
 1044 1298 l 1,18,-1
 543 1298 l 1,19,-1
 543 895 l 1,0,-1
EndSplineSet
EndChar

StartChar: uni040F
Encoding: 1039 1039 395
Width: 1497
GlyphClass: 2
Flags: W
LayerCount: 2
Fore
SplineSet
1296 0 m 1,0,-1
 836 0 l 1,1,-1
 836 -385 l 1,2,-1
 647 -385 l 1,3,-1
 647 0 l 1,4,-1
 199 0 l 1,5,-1
 199 1462 l 1,6,-1
 383 1462 l 1,7,-1
 383 164 l 1,8,-1
 1114 164 l 1,9,-1
 1114 1462 l 1,10,-1
 1296 1462 l 1,11,-1
 1296 0 l 1,0,-1
EndSplineSet
EndChar

StartChar: uni0411
Encoding: 1041 1041 397
Width: 1260
GlyphClass: 2
Flags: W
LayerCount: 2
Fore
SplineSet
1155 428 m 0,0,1
 1155 212 1155 212 1025 106 c 128,-1,2
 895 0 895 0 627 0 c 2,3,-1
 199 0 l 1,4,-1
 199 1462 l 1,5,-1
 1067 1462 l 1,6,-1
 1067 1300 l 1,7,-1
 383 1300 l 1,8,-1
 383 844 l 1,9,-1
 600 844 l 2,10,11
 880 844 880 844 1017.5 745 c 128,-1,12
 1155 646 1155 646 1155 428 c 0,0,1
383 158 m 1,13,-1
 608 158 l 2,14,15
 796 158 796 158 880.5 221.5 c 128,-1,16
 965 285 965 285 965 428 c 0,17,18
 965 568 965 568 877 626 c 128,-1,19
 789 684 789 684 578 684 c 2,20,-1
 383 684 l 1,21,-1
 383 158 l 1,13,-1
EndSplineSet
EndChar

StartChar: uni0414
Encoding: 1044 1044 400
Width: 1415
GlyphClass: 2
Flags: W
LayerCount: 2
Fore
SplineSet
1370 -385 m 1,0,-1
 1194 -385 l 1,1,-1
 1194 0 l 1,2,-1
 188 0 l 1,3,-1
 188 -385 l 1,4,-1
 12 -385 l 1,5,-1
 12 164 l 1,6,-1
 125 164 l 1,7,8
 273 416 273 416 381 775 c 128,-1,9
 489 1134 489 1134 508 1462 c 1,10,-1
 1184 1462 l 1,11,-1
 1184 164 l 1,12,-1
 1370 164 l 1,13,-1
 1370 -385 l 1,0,-1
1001 164 m 1,14,-1
 1001 1296 l 1,15,-1
 670 1296 l 1,16,17
 651 1047 651 1047 548.5 715 c 128,-1,18
 446 383 446 383 319 164 c 1,19,-1
 1001 164 l 1,14,-1
EndSplineSet
EndChar

StartChar: uni0416
Encoding: 1046 1046 402
Width: 1749
GlyphClass: 2
Flags: W
LayerCount: 2
Fore
SplineSet
590 752 m 1,0,-1
 23 1462 l 1,1,-1
 227 1462 l 1,2,-1
 786 754 l 1,3,-1
 786 1462 l 1,4,-1
 963 1462 l 1,5,-1
 963 754 l 1,6,-1
 1522 1462 l 1,7,-1
 1726 1462 l 1,8,-1
 1159 754 l 1,9,-1
 1745 0 l 1,10,-1
 1534 0 l 1,11,-1
 963 741 l 1,12,-1
 963 0 l 1,13,-1
 786 0 l 1,14,-1
 786 741 l 1,15,-1
 213 0 l 1,16,-1
 2 0 l 1,17,-1
 590 752 l 1,0,-1
EndSplineSet
EndChar

StartChar: uni0417
Encoding: 1047 1047 403
Width: 1204
GlyphClass: 2
Flags: W
LayerCount: 2
Fore
SplineSet
1063 1120 m 0,0,1
 1063 978 1063 978 972 887.5 c 128,-1,2
 881 797 881 797 717 772 c 1,3,-1
 717 764 l 1,4,5
 903 739 903 739 998.5 649 c 128,-1,6
 1094 559 1094 559 1094 414 c 0,7,8
 1094 209 1094 209 939 94.5 c 128,-1,9
 784 -20 784 -20 504 -20 c 0,10,11
 241 -20 241 -20 78 59 c 1,12,-1
 78 227 l 1,13,14
 177 180 177 180 290.5 155.5 c 128,-1,15
 404 131 404 131 502 131 c 0,16,17
 700 131 700 131 800.5 204 c 128,-1,18
 901 277 901 277 901 414 c 0,19,20
 901 545 901 545 788 612.5 c 128,-1,21
 675 680 675 680 451 680 c 2,22,-1
 242 680 l 1,23,-1
 242 834 l 1,24,-1
 440 834 l 2,25,26
 657 834 657 834 764.5 906.5 c 128,-1,27
 872 979 872 979 872 1102 c 0,28,29
 872 1208 872 1208 792.5 1269.5 c 128,-1,30
 713 1331 713 1331 578 1331 c 0,31,32
 464 1331 464 1331 372.5 1304 c 128,-1,33
 281 1277 281 1277 172 1206 c 1,34,-1
 84 1331 l 1,35,36
 295 1483 295 1483 580 1483 c 0,37,38
 805 1483 805 1483 934 1385 c 128,-1,39
 1063 1287 1063 1287 1063 1120 c 0,0,1
EndSplineSet
EndChar

StartChar: uni0418
Encoding: 1048 1048 404
Width: 1573
GlyphClass: 2
Flags: W
AnchorPoint: "Anchor-3" 778 1540 basechar 0
LayerCount: 2
Fore
SplineSet
201 1462 m 1,0,-1
 373 1462 l 1,1,-1
 373 659 l 2,2,3
 373 574 373 574 368 434 c 128,-1,4
 363 294 363 294 358 252 c 1,5,-1
 367 252 l 1,6,-1
 1171 1462 l 1,7,-1
 1376 1462 l 1,8,-1
 1376 0 l 1,9,-1
 1204 0 l 1,10,-1
 1204 795 l 2,11,12
 1204 899 1204 899 1211 1037.5 c 128,-1,13
 1218 1176 1218 1176 1221 1217 c 1,14,-1
 1212 1217 l 1,15,-1
 406 0 l 1,16,-1
 201 0 l 1,17,-1
 201 1462 l 1,0,-1
EndSplineSet
EndChar

StartChar: uni041A
Encoding: 1050 1050 406
Width: 1266
GlyphClass: 2
Flags: W
LayerCount: 2
Fore
SplineSet
1266 0 m 1,0,-1
 1044 0 l 1,1,-1
 383 741 l 1,2,-1
 383 0 l 1,3,-1
 199 0 l 1,4,-1
 199 1462 l 1,5,-1
 383 1462 l 1,6,-1
 383 754 l 1,7,-1
 1028 1462 l 1,8,-1
 1237 1462 l 1,9,-1
 602 752 l 1,10,-1
 1266 0 l 1,0,-1
EndSplineSet
EndChar

StartChar: uni041B
Encoding: 1051 1051 407
Width: 1450
GlyphClass: 2
Flags: W
LayerCount: 2
Fore
SplineSet
1251 0 m 1,0,-1
 1067 0 l 1,1,-1
 1067 1300 l 1,2,-1
 604 1300 l 1,3,-1
 573 1062 l 2,4,5
 510 570 510 570 463 357 c 128,-1,6
 416 144 416 144 340.5 60.5 c 128,-1,7
 265 -23 265 -23 135 -23 c 0,8,9
 61 -23 61 -23 2 2 c 1,10,-1
 2 156 l 1,11,12
 54 131 54 131 115 131 c 0,13,14
 194 131 194 131 240.5 230.5 c 128,-1,15
 287 330 287 330 341.5 681 c 128,-1,16
 396 1032 396 1032 451 1462 c 1,17,-1
 1251 1462 l 1,18,-1
 1251 0 l 1,0,-1
EndSplineSet
EndChar

StartChar: uni0423
Encoding: 1059 1059 415
Width: 1278
GlyphClass: 2
Flags: W
AnchorPoint: "Anchor-3" 660 1540 basechar 0
LayerCount: 2
Fore
SplineSet
293 -20 m 0,0,1
 180 -20 180 -20 94 10 c 1,2,-1
 94 184 l 1,3,4
 185 143 185 143 287 143 c 0,5,6
 394 143 394 143 459.5 193 c 128,-1,7
 525 243 525 243 586 375 c 1,8,-1
 23 1462 l 1,9,-1
 225 1462 l 1,10,-1
 643 649 l 2,11,12
 668 602 668 602 686 545 c 1,13,-1
 694 545 l 1,14,-1
 702 569 l 1,15,-1
 733 651 l 1,16,-1
 1083 1462 l 1,17,-1
 1278 1462 l 1,18,-1
 811 416 l 2,19,20
 728 230 728 230 660 145 c 128,-1,21
 592 60 592 60 504.5 20 c 128,-1,22
 417 -20 417 -20 293 -20 c 0,0,1
EndSplineSet
EndChar

StartChar: uni0426
Encoding: 1062 1062 418
Width: 1518
GlyphClass: 2
Flags: W
LayerCount: 2
Fore
SplineSet
1296 162 m 1,0,-1
 1475 162 l 1,1,-1
 1475 -385 l 1,2,-1
 1298 -385 l 1,3,-1
 1298 0 l 1,4,-1
 199 0 l 1,5,-1
 199 1462 l 1,6,-1
 383 1462 l 1,7,-1
 383 164 l 1,8,-1
 1114 164 l 1,9,-1
 1114 1462 l 1,10,-1
 1296 1462 l 1,11,-1
 1296 162 l 1,0,-1
EndSplineSet
EndChar

StartChar: uni0427
Encoding: 1063 1063 419
Width: 1430
GlyphClass: 2
Flags: W
LayerCount: 2
Fore
SplineSet
1231 0 m 1,0,-1
 1047 0 l 1,1,-1
 1047 600 l 1,2,3
 898 547 898 547 798 527.5 c 128,-1,4
 698 508 698 508 594 508 c 0,5,6
 386 508 386 508 275 604.5 c 128,-1,7
 164 701 164 701 164 879 c 2,8,-1
 164 1462 l 1,9,-1
 348 1462 l 1,10,-1
 348 905 l 2,11,12
 348 787 348 787 410 728.5 c 128,-1,13
 472 670 472 670 612 670 c 0,14,15
 707 670 707 670 795.5 685 c 128,-1,16
 884 700 884 700 1047 754 c 1,17,-1
 1047 1462 l 1,18,-1
 1231 1462 l 1,19,-1
 1231 0 l 1,0,-1
EndSplineSet
EndChar

StartChar: uni0428
Encoding: 1064 1064 420
Width: 2124
GlyphClass: 2
Flags: W
LayerCount: 2
Fore
SplineSet
1923 0 m 1,0,-1
 199 0 l 1,1,-1
 199 1462 l 1,2,-1
 383 1462 l 1,3,-1
 383 164 l 1,4,-1
 967 164 l 1,5,-1
 967 1462 l 1,6,-1
 1151 1462 l 1,7,-1
 1151 164 l 1,8,-1
 1737 164 l 1,9,-1
 1737 1462 l 1,10,-1
 1923 1462 l 1,11,-1
 1923 0 l 1,0,-1
EndSplineSet
EndChar

StartChar: uni0429
Encoding: 1065 1065 421
Width: 2132
GlyphClass: 2
Flags: W
LayerCount: 2
Fore
SplineSet
199 0 m 1,0,-1
 199 1462 l 1,1,-1
 383 1462 l 1,2,-1
 383 164 l 1,3,-1
 952 164 l 1,4,-1
 952 1462 l 1,5,-1
 1139 1462 l 1,6,-1
 1139 164 l 1,7,-1
 1710 164 l 1,8,-1
 1710 1462 l 1,9,-1
 1894 1462 l 1,10,-1
 1894 162 l 1,11,-1
 2071 162 l 1,12,-1
 2071 -385 l 1,13,-1
 1894 -385 l 1,14,-1
 1894 0 l 1,15,-1
 199 0 l 1,0,-1
EndSplineSet
EndChar

StartChar: uni042A
Encoding: 1066 1066 422
Width: 1417
GlyphClass: 2
Flags: W
LayerCount: 2
Fore
SplineSet
1313 428 m 0,0,1
 1313 220 1313 220 1180.5 110 c 128,-1,2
 1048 0 1048 0 795 0 c 2,3,-1
 356 0 l 1,4,-1
 356 1300 l 1,5,-1
 16 1300 l 1,6,-1
 16 1462 l 1,7,-1
 539 1462 l 1,8,-1
 539 844 l 1,9,-1
 770 844 l 2,10,11
 1036 844 1036 844 1174.5 739.5 c 128,-1,12
 1313 635 1313 635 1313 428 c 0,0,1
539 158 m 1,13,-1
 776 158 l 2,14,15
 954 158 954 158 1038 224.5 c 128,-1,16
 1122 291 1122 291 1122 428 c 0,17,18
 1122 562 1122 562 1034.5 623 c 128,-1,19
 947 684 947 684 748 684 c 2,20,-1
 539 684 l 1,21,-1
 539 158 l 1,13,-1
EndSplineSet
EndChar

StartChar: uni042B
Encoding: 1067 1067 423
Width: 1757
GlyphClass: 2
Flags: W
AnchorPoint: "Anchor-3" 860 1540 basechar 0
LayerCount: 2
Fore
SplineSet
1149 428 m 0,0,1
 1149 221 1149 221 1017.5 110.5 c 128,-1,2
 886 0 886 0 631 0 c 2,3,-1
 199 0 l 1,4,-1
 199 1462 l 1,5,-1
 383 1462 l 1,6,-1
 383 844 l 1,7,-1
 608 844 l 2,8,9
 873 844 873 844 1011 739 c 128,-1,10
 1149 634 1149 634 1149 428 c 0,0,1
383 156 m 1,11,-1
 614 156 l 2,12,13
 792 156 792 156 875 223.5 c 128,-1,14
 958 291 958 291 958 428 c 0,15,16
 958 562 958 562 872 622 c 128,-1,17
 786 682 786 682 588 682 c 2,18,-1
 383 682 l 1,19,-1
 383 156 l 1,11,-1
1559 0 m 1,20,-1
 1374 0 l 1,21,-1
 1374 1462 l 1,22,-1
 1559 1462 l 1,23,-1
 1559 0 l 1,20,-1
EndSplineSet
EndChar

StartChar: uni042C
Encoding: 1068 1068 424
Width: 1315
GlyphClass: 2
Flags: W
LayerCount: 2
Fore
SplineSet
1210 428 m 0,0,1
 1210 222 1210 222 1072 111 c 128,-1,2
 934 0 934 0 680 0 c 2,3,-1
 199 0 l 1,4,-1
 199 1462 l 1,5,-1
 383 1462 l 1,6,-1
 383 844 l 1,7,-1
 657 844 l 2,8,9
 926 844 926 844 1068 737.5 c 128,-1,10
 1210 631 1210 631 1210 428 c 0,0,1
383 158 m 1,11,-1
 662 158 l 2,12,13
 1020 158 1020 158 1020 428 c 0,14,15
 1020 561 1020 561 928.5 622.5 c 128,-1,16
 837 684 837 684 635 684 c 2,17,-1
 383 684 l 1,18,-1
 383 158 l 1,11,-1
EndSplineSet
EndChar

StartChar: uni042D
Encoding: 1069 1069 425
Width: 1296
GlyphClass: 2
Flags: W
AnchorPoint: "Anchor-3" 520 1540 basechar 0
LayerCount: 2
Fore
SplineSet
475 1321 m 0,0,1
 308 1321 308 1321 137 1243 c 1,2,-1
 61 1397 l 1,3,4
 235 1483 235 1483 477 1483 c 0,5,6
 694 1483 694 1483 850.5 1395 c 128,-1,7
 1007 1307 1007 1307 1088 1144 c 128,-1,8
 1169 981 1169 981 1169 756 c 0,9,10
 1169 382 1169 382 986.5 181 c 128,-1,11
 804 -20 804 -20 463 -20 c 0,12,13
 350 -20 350 -20 262.5 -8 c 128,-1,14
 175 4 175 4 74 39 c 1,15,-1
 74 199 l 1,16,17
 160 176 160 176 247.5 158.5 c 128,-1,18
 335 141 335 141 434 141 c 0,19,20
 698 141 698 141 832.5 281 c 128,-1,21
 967 421 967 421 975 684 c 1,22,-1
 264 684 l 1,23,-1
 264 846 l 1,24,-1
 973 846 l 1,25,26
 953 1068 953 1068 821.5 1194.5 c 128,-1,27
 690 1321 690 1321 475 1321 c 0,0,1
EndSplineSet
EndChar

StartChar: uni042E
Encoding: 1070 1070 426
Width: 2154
GlyphClass: 2
Flags: W
AnchorPoint: "Anchor-3" 940 1540 basechar 0
LayerCount: 2
Fore
SplineSet
2028 733 m 256,0,1
 2028 379 2028 379 1858 179.5 c 128,-1,2
 1688 -20 1688 -20 1382 -20 c 0,3,4
 1082 -20 1082 -20 911.5 163 c 128,-1,5
 741 346 741 346 729 682 c 1,6,-1
 383 682 l 1,7,-1
 383 0 l 1,8,-1
 199 0 l 1,9,-1
 199 1462 l 1,10,-1
 383 1462 l 1,11,-1
 383 844 l 1,12,-1
 733 844 l 1,13,14
 756 1153 756 1153 924 1319 c 128,-1,15
 1092 1485 1092 1485 1378 1485 c 0,16,17
 1684 1485 1684 1485 1856 1286 c 128,-1,18
 2028 1087 2028 1087 2028 733 c 256,0,1
922 733 m 0,19,20
 922 443 922 443 1036.5 291 c 128,-1,21
 1151 139 1151 139 1376 139 c 0,22,23
 1602 139 1602 139 1718.5 289 c 128,-1,24
 1835 439 1835 439 1835 733 c 0,25,26
 1835 1026 1835 1026 1720.5 1174.5 c 128,-1,27
 1606 1323 1606 1323 1380 1323 c 0,28,29
 1153 1323 1153 1323 1037.5 1172.5 c 128,-1,30
 922 1022 922 1022 922 733 c 0,19,20
EndSplineSet
EndChar

StartChar: uni042F
Encoding: 1071 1071 427
Width: 1309
GlyphClass: 2
Flags: W
AnchorPoint: "Anchor-3" 710 1540 basechar 0
LayerCount: 2
Fore
SplineSet
639 606 m 1,0,-1
 260 0 l 1,1,-1
 45 0 l 1,2,-1
 455 639 l 1,3,4
 300 689 300 689 227 792 c 128,-1,5
 154 895 154 895 154 1053 c 0,6,7
 154 1251 154 1251 290.5 1356.5 c 128,-1,8
 427 1462 427 1462 700 1462 c 2,9,-1
 1110 1462 l 1,10,-1
 1110 0 l 1,11,-1
 926 0 l 1,12,-1
 926 606 l 1,13,-1
 639 606 l 1,0,-1
926 1305 m 1,14,-1
 705 1305 l 2,15,16
 522 1305 522 1305 433 1241 c 128,-1,17
 344 1177 344 1177 344 1044 c 0,18,19
 344 762 344 762 713 762 c 2,20,-1
 926 762 l 1,21,-1
 926 1305 l 1,14,-1
EndSplineSet
EndChar

StartChar: uni0431
Encoding: 1073 1073 429
Width: 1227
GlyphClass: 2
Flags: W
LayerCount: 2
Fore
SplineSet
117 659 m 0,0,1
 117 1026 117 1026 227.5 1224.5 c 128,-1,2
 338 1423 338 1423 575 1475 c 0,3,4
 798 1520 798 1520 1073 1567 c 1,5,-1
 1104 1409 l 1,6,-1
 985 1390 l 2,7,8
 753 1352 753 1352 612 1323 c 0,9,10
 468 1291 468 1291 395.5 1176.5 c 128,-1,11
 323 1062 323 1062 313 844 c 1,12,-1
 326 844 l 1,13,14
 384 925 384 925 480.5 973.5 c 128,-1,15
 577 1022 577 1022 686 1022 c 0,16,17
 888 1022 888 1022 1002 892 c 128,-1,18
 1116 762 1116 762 1116 528 c 0,19,20
 1116 267 1116 267 983 123.5 c 128,-1,21
 850 -20 850 -20 614 -20 c 0,22,23
 380 -20 380 -20 248.5 159 c 128,-1,24
 117 338 117 338 117 659 c 0,0,1
629 129 m 0,25,26
 926 129 926 129 926 510 c 0,27,28
 926 872 926 872 657 872 c 0,29,30
 584 872 584 872 515.5 842 c 128,-1,31
 447 812 447 812 391.5 763 c 128,-1,32
 336 714 336 714 301 655 c 1,33,34
 301 129 301 129 629 129 c 0,25,26
EndSplineSet
EndChar

StartChar: uni0432
Encoding: 1074 1074 430
Width: 1180
GlyphClass: 2
Flags: W
LayerCount: 2
Fore
SplineSet
1077 821 m 0,0,1
 1077 715 1077 715 1017 659.5 c 128,-1,2
 957 604 957 604 846 584 c 1,3,-1
 846 575 l 1,4,5
 985 556 985 556 1048.5 492.5 c 128,-1,6
 1112 429 1112 429 1112 322 c 0,7,8
 1112 166 1112 166 997.5 83 c 128,-1,9
 883 0 883 0 668 0 c 2,10,-1
 174 0 l 1,11,-1
 174 1098 l 1,12,-1
 666 1098 l 2,13,14
 1077 1098 1077 1098 1077 821 c 0,0,1
932 332 m 0,15,16
 932 424 932 424 860 461 c 128,-1,17
 788 498 788 498 649 498 c 2,18,-1
 354 498 l 1,19,-1
 354 145 l 1,20,-1
 653 145 l 2,21,22
 932 145 932 145 932 332 c 0,15,16
901 805 m 0,23,24
 901 882 901 882 841.5 915 c 128,-1,25
 782 948 782 948 662 948 c 2,26,-1
 354 948 l 1,27,-1
 354 647 l 1,28,-1
 629 647 l 2,29,30
 776 647 776 647 838.5 683.5 c 128,-1,31
 901 720 901 720 901 805 c 0,23,24
EndSplineSet
EndChar

StartChar: uni0433
Encoding: 1075 1075 431
Width: 887
GlyphClass: 2
Flags: W
LayerCount: 2
Fore
SplineSet
844 946 m 1,0,-1
 354 946 l 1,1,-1
 354 0 l 1,2,-1
 174 0 l 1,3,-1
 174 1098 l 1,4,-1
 844 1098 l 1,5,-1
 844 946 l 1,0,-1
EndSplineSet
EndChar

StartChar: uni0434
Encoding: 1076 1076 432
Width: 1190
GlyphClass: 2
Flags: W
LayerCount: 2
Fore
SplineSet
1149 -381 m 1,0,-1
 975 -381 l 1,1,-1
 975 0 l 1,2,-1
 211 0 l 1,3,-1
 211 -381 l 1,4,-1
 39 -381 l 1,5,-1
 39 152 l 1,6,-1
 127 152 l 1,7,8
 260 337 260 337 334 580.5 c 128,-1,9
 408 824 408 824 412 1098 c 1,10,-1
 989 1098 l 1,11,-1
 989 152 l 1,12,-1
 1149 152 l 1,13,-1
 1149 -381 l 1,0,-1
815 152 m 1,14,-1
 815 956 l 1,15,-1
 571 956 l 1,16,17
 556 735 556 735 485.5 512.5 c 128,-1,18
 415 290 415 290 313 152 c 1,19,-1
 815 152 l 1,14,-1
EndSplineSet
EndChar

StartChar: uni0436
Encoding: 1078 1078 434
Width: 1536
GlyphClass: 2
Flags: W
LayerCount: 2
Fore
SplineSet
682 1098 m 1,0,-1
 850 1098 l 1,1,-1
 850 565 l 1,2,-1
 1296 1098 l 1,3,-1
 1491 1098 l 1,4,-1
 1038 565 l 1,5,-1
 1530 0 l 1,6,-1
 1325 0 l 1,7,-1
 850 557 l 1,8,-1
 850 0 l 1,9,-1
 682 0 l 1,10,-1
 682 557 l 1,11,-1
 207 0 l 1,12,-1
 2 0 l 1,13,-1
 494 565 l 1,14,15
 184 933 184 933 41 1098 c 1,16,-1
 238 1098 l 1,17,-1
 682 565 l 1,18,-1
 682 1098 l 1,0,-1
EndSplineSet
EndChar

StartChar: uni0437
Encoding: 1079 1079 435
Width: 1004
GlyphClass: 2
Flags: W
LayerCount: 2
Fore
SplineSet
391 645 m 2,0,1
 702 645 702 645 702 813 c 0,2,3
 702 969 702 969 453 969 c 0,4,5
 374 969 374 969 306 954 c 128,-1,6
 238 939 238 939 143 899 c 1,7,-1
 80 1042 l 1,8,9
 251 1118 251 1118 463 1118 c 0,10,11
 656 1118 656 1118 765 1041 c 128,-1,12
 874 964 874 964 874 829 c 0,13,14
 874 642 874 642 668 586 c 1,15,-1
 668 578 l 1,16,17
 793 542 793 542 852 474 c 128,-1,18
 911 406 911 406 911 303 c 0,19,20
 911 152 911 152 786 66 c 128,-1,21
 661 -20 661 -20 442 -20 c 0,22,23
 200 -20 200 -20 68 51 c 1,24,-1
 68 213 l 1,25,26
 251 127 251 127 440 127 c 0,27,28
 581 127 581 127 657 174 c 128,-1,29
 733 221 733 221 733 313 c 0,30,31
 733 407 733 407 656 452.5 c 128,-1,32
 579 498 579 498 420 498 c 2,33,-1
 272 498 l 1,34,-1
 272 645 l 1,35,-1
 391 645 l 2,0,1
EndSplineSet
EndChar

StartChar: uni0438
Encoding: 1080 1080 436
Width: 1317
GlyphClass: 2
Flags: W
AnchorPoint: "Anchor-3" 660 1200 basechar 0
LayerCount: 2
Fore
SplineSet
344 1098 m 1,0,-1
 344 428 l 1,1,-1
 336 234 l 1,2,-1
 332 178 l 1,3,-1
 920 1098 l 1,4,-1
 1141 1098 l 1,5,-1
 1141 0 l 1,6,-1
 973 0 l 1,7,-1
 973 647 l 1,8,-1
 976 786 l 1,9,-1
 981 918 l 1,10,-1
 397 0 l 1,11,-1
 174 0 l 1,12,-1
 174 1098 l 1,13,-1
 344 1098 l 1,0,-1
EndSplineSet
EndChar

StartChar: uni043A
Encoding: 1082 1082 438
Width: 1083
GlyphClass: 2
Flags: W
LayerCount: 2
Fore
SplineSet
823 1098 m 1,0,-1
 1020 1098 l 1,1,-1
 551 569 l 1,2,-1
 1059 0 l 1,3,-1
 850 0 l 1,4,-1
 354 557 l 1,5,-1
 354 0 l 1,6,-1
 174 0 l 1,7,-1
 174 1098 l 1,8,-1
 354 1098 l 1,9,-1
 354 565 l 1,10,-1
 823 1098 l 1,0,-1
EndSplineSet
EndChar

StartChar: uni043B
Encoding: 1083 1083 439
Width: 1184
GlyphClass: 2
Flags: W
LayerCount: 2
Fore
SplineSet
1010 0 m 1,0,-1
 827 0 l 1,1,-1
 827 948 l 1,2,-1
 504 948 l 1,3,4
 476 588 476 588 428.5 382.5 c 128,-1,5
 381 177 381 177 304.5 81.5 c 128,-1,6
 228 -14 228 -14 109 -14 c 0,7,8
 44 -14 44 -14 14 0 c 1,9,-1
 14 135 l 1,10,11
 35 127 35 127 70 127 c 0,12,13
 180 127 180 127 245.5 359 c 128,-1,14
 311 591 311 591 348 1098 c 1,15,-1
 1010 1098 l 1,16,-1
 1010 0 l 1,0,-1
EndSplineSet
EndChar

StartChar: uni043C
Encoding: 1084 1084 440
Width: 1528
GlyphClass: 2
Flags: W
LayerCount: 2
Fore
SplineSet
758 172 m 1,0,1
 788 281 788 281 834 397 c 2,2,-1
 1120 1098 l 1,3,-1
 1352 1098 l 1,4,-1
 1352 0 l 1,5,-1
 1190 0 l 1,6,-1
 1190 905 l 1,7,8
 1155 796 1155 796 1108 676 c 2,9,-1
 834 0 l 1,10,-1
 688 0 l 1,11,-1
 414 680 l 2,12,13
 394 728 394 728 374.5 785 c 128,-1,14
 355 842 355 842 336 905 c 1,15,-1
 336 0 l 1,16,-1
 174 0 l 1,17,-1
 174 1098 l 1,18,-1
 399 1098 l 1,19,-1
 676 424 l 2,20,21
 713 330 713 330 758 172 c 1,0,1
EndSplineSet
EndChar

StartChar: uni043D
Encoding: 1085 1085 441
Width: 1305
GlyphClass: 2
Flags: W
LayerCount: 2
Fore
SplineSet
354 1098 m 1,0,-1
 354 641 l 1,1,-1
 950 641 l 1,2,-1
 950 1098 l 1,3,-1
 1130 1098 l 1,4,-1
 1130 0 l 1,5,-1
 950 0 l 1,6,-1
 950 489 l 1,7,-1
 354 489 l 1,8,-1
 354 0 l 1,9,-1
 174 0 l 1,10,-1
 174 1098 l 1,11,-1
 354 1098 l 1,0,-1
EndSplineSet
EndChar

StartChar: uni043F
Encoding: 1087 1087 443
Width: 1278
GlyphClass: 2
Flags: W
LayerCount: 2
Fore
SplineSet
354 0 m 1,0,-1
 174 0 l 1,1,-1
 174 1098 l 1,2,-1
 1102 1098 l 1,3,-1
 1102 0 l 1,4,-1
 922 0 l 1,5,-1
 922 944 l 1,6,-1
 354 944 l 1,7,-1
 354 0 l 1,0,-1
EndSplineSet
EndChar

StartChar: uni0442
Encoding: 1090 1090 446
Width: 975
GlyphClass: 2
Flags: W
LayerCount: 2
Fore
SplineSet
932 946 m 1,0,-1
 573 946 l 1,1,-1
 573 0 l 1,2,-1
 395 0 l 1,3,-1
 395 946 l 1,4,-1
 41 946 l 1,5,-1
 41 1098 l 1,6,-1
 932 1098 l 1,7,-1
 932 946 l 1,0,-1
EndSplineSet
EndChar

StartChar: uni0444
Encoding: 1092 1092 448
Width: 1485
GlyphClass: 2
Flags: W
LayerCount: 2
Fore
SplineSet
1372 549 m 0,0,1
 1372 304 1372 304 1228.5 154 c 128,-1,2
 1085 4 1085 4 829 -16 c 1,3,-1
 829 -492 l 1,4,-1
 653 -492 l 1,5,-1
 653 -16 l 1,6,7
 401 5 401 5 256 155 c 128,-1,8
 111 305 111 305 111 549 c 0,9,10
 111 799 111 799 255 946.5 c 128,-1,11
 399 1094 399 1094 659 1114 c 1,12,-1
 659 1556 l 1,13,-1
 829 1556 l 1,14,-1
 829 1114 l 1,15,16
 1082 1089 1082 1089 1227 939 c 128,-1,17
 1372 789 1372 789 1372 549 c 0,0,1
299 549 m 0,18,19
 299 168 299 168 659 131 c 1,20,-1
 659 965 l 1,21,22
 471 946 471 946 385 840.5 c 128,-1,23
 299 735 299 735 299 549 c 0,18,19
1186 549 m 0,24,25
 1186 924 1186 924 829 963 c 1,26,-1
 829 131 l 1,27,28
 1186 170 1186 170 1186 549 c 0,24,25
EndSplineSet
EndChar

StartChar: uni0446
Encoding: 1094 1094 450
Width: 1294
GlyphClass: 2
Flags: W
LayerCount: 2
Fore
SplineSet
1257 -381 m 1,0,-1
 1081 -381 l 1,1,-1
 1081 0 l 1,2,-1
 174 0 l 1,3,-1
 174 1098 l 1,4,-1
 354 1098 l 1,5,-1
 354 152 l 1,6,-1
 922 152 l 1,7,-1
 922 1098 l 1,8,-1
 1102 1098 l 1,9,-1
 1102 150 l 1,10,-1
 1257 150 l 1,11,-1
 1257 -381 l 1,0,-1
EndSplineSet
EndChar

StartChar: uni0447
Encoding: 1095 1095 451
Width: 1255
GlyphClass: 2
Flags: W
LayerCount: 2
Fore
SplineSet
332 1098 m 1,0,-1
 332 698 l 2,1,2
 332 510 332 510 543 510 c 0,3,4
 635 510 635 510 717.5 537.5 c 128,-1,5
 800 565 800 565 901 627 c 1,6,-1
 901 1098 l 1,7,-1
 1081 1098 l 1,8,-1
 1081 0 l 1,9,-1
 901 0 l 1,10,-1
 901 489 l 1,11,12
 791 418 791 418 702.5 390 c 128,-1,13
 614 362 614 362 506 362 c 0,14,15
 342 362 342 362 247 448 c 128,-1,16
 152 534 152 534 152 686 c 2,17,-1
 152 1098 l 1,18,-1
 332 1098 l 1,0,-1
EndSplineSet
EndChar

StartChar: uni0448
Encoding: 1096 1096 452
Width: 1839
GlyphClass: 2
Flags: W
LayerCount: 2
Fore
SplineSet
1008 152 m 1,0,-1
 1483 152 l 1,1,-1
 1483 1098 l 1,2,-1
 1663 1098 l 1,3,-1
 1663 0 l 1,4,-1
 174 0 l 1,5,-1
 174 1098 l 1,6,-1
 354 1098 l 1,7,-1
 354 152 l 1,8,-1
 827 152 l 1,9,-1
 827 1098 l 1,10,-1
 1008 1098 l 1,11,-1
 1008 152 l 1,0,-1
EndSplineSet
EndChar

StartChar: uni0449
Encoding: 1097 1097 453
Width: 1855
GlyphClass: 2
Flags: W
LayerCount: 2
Fore
SplineSet
1008 152 m 1,0,-1
 1483 152 l 1,1,-1
 1483 1098 l 1,2,-1
 1661 1098 l 1,3,-1
 1661 150 l 1,4,-1
 1821 150 l 1,5,-1
 1821 -379 l 1,6,-1
 1640 -379 l 1,7,-1
 1640 0 l 1,8,-1
 174 0 l 1,9,-1
 174 1098 l 1,10,-1
 354 1098 l 1,11,-1
 354 152 l 1,12,-1
 827 152 l 1,13,-1
 827 1098 l 1,14,-1
 1008 1098 l 1,15,-1
 1008 152 l 1,0,-1
EndSplineSet
EndChar

StartChar: uni044A
Encoding: 1098 1098 454
Width: 1425
GlyphClass: 2
Flags: W
LayerCount: 2
Fore
SplineSet
567 647 m 1,0,-1
 870 647 l 2,1,2
 1315 647 1315 647 1315 336 c 0,3,4
 1315 0 1315 0 868 0 c 2,5,-1
 387 0 l 1,6,-1
 387 946 l 1,7,-1
 37 946 l 1,8,-1
 37 1098 l 1,9,-1
 567 1098 l 1,10,-1
 567 647 l 1,0,-1
1137 326 m 0,11,12
 1137 416 1137 416 1076.5 456 c 128,-1,13
 1016 496 1016 496 864 496 c 2,14,-1
 567 496 l 1,15,-1
 567 145 l 1,16,-1
 870 145 l 2,17,18
 1137 145 1137 145 1137 326 c 0,11,12
EndSplineSet
EndChar

StartChar: uni044B
Encoding: 1099 1099 455
Width: 1593
GlyphClass: 2
Flags: W
AnchorPoint: "Anchor-3" 780 1200 basechar 0
LayerCount: 2
Fore
SplineSet
354 647 m 1,0,-1
 639 647 l 2,1,2
 853 647 853 647 955 569 c 128,-1,3
 1057 491 1057 491 1057 336 c 0,4,5
 1057 169 1057 169 949 84.5 c 128,-1,6
 841 0 841 0 631 0 c 2,7,-1
 174 0 l 1,8,-1
 174 1098 l 1,9,-1
 354 1098 l 1,10,-1
 354 647 l 1,0,-1
879 326 m 0,11,12
 879 415 879 415 819.5 456.5 c 128,-1,13
 760 498 760 498 616 498 c 2,14,-1
 354 498 l 1,15,-1
 354 145 l 1,16,-1
 614 145 l 2,17,18
 879 145 879 145 879 326 c 0,11,12
1419 0 m 1,19,-1
 1239 0 l 1,20,-1
 1239 1098 l 1,21,-1
 1419 1098 l 1,22,-1
 1419 0 l 1,19,-1
EndSplineSet
EndChar

StartChar: uni044C
Encoding: 1100 1100 456
Width: 1217
GlyphClass: 2
Flags: W
LayerCount: 2
Fore
SplineSet
354 647 m 1,0,-1
 680 647 l 2,1,2
 1108 647 1108 647 1108 336 c 0,3,4
 1108 172 1108 172 997 86 c 128,-1,5
 886 0 886 0 672 0 c 2,6,-1
 174 0 l 1,7,-1
 174 1098 l 1,8,-1
 354 1098 l 1,9,-1
 354 647 l 1,0,-1
928 326 m 0,10,11
 928 414 928 414 866 456 c 128,-1,12
 804 498 804 498 659 498 c 2,13,-1
 354 498 l 1,14,-1
 354 145 l 1,15,-1
 664 145 l 2,16,17
 791 145 791 145 859.5 191 c 128,-1,18
 928 237 928 237 928 326 c 0,10,11
EndSplineSet
EndChar

StartChar: uni044D
Encoding: 1101 1101 457
Width: 1012
GlyphClass: 2
Flags: W
AnchorPoint: "Anchor-3" 420 1200 basechar 0
LayerCount: 2
Fore
SplineSet
350 -20 m 0,0,1
 181 -20 181 -20 59 39 c 1,2,-1
 59 195 l 1,3,4
 213 133 213 133 354 133 c 0,5,6
 690 133 690 133 713 492 c 1,7,-1
 172 492 l 1,8,-1
 172 639 l 1,9,-1
 711 639 l 1,10,11
 697 807 697 807 616 885 c 128,-1,12
 535 963 535 963 379 963 c 0,13,14
 274 963 274 963 123 909 c 1,15,-1
 72 1055 l 1,16,17
 136 1084 136 1084 218.5 1101 c 128,-1,18
 301 1118 301 1118 377 1118 c 0,19,20
 634 1118 634 1118 766.5 972.5 c 128,-1,21
 899 827 899 827 899 549 c 0,22,23
 899 278 899 278 755.5 129 c 128,-1,24
 612 -20 612 -20 350 -20 c 0,0,1
EndSplineSet
EndChar

StartChar: uni044E
Encoding: 1102 1102 458
Width: 1712
GlyphClass: 2
Flags: W
AnchorPoint: "Anchor-3" 755 1200 basechar 0
LayerCount: 2
Fore
SplineSet
1599 551 m 0,0,1
 1599 281 1599 281 1469.5 130.5 c 128,-1,2
 1340 -20 1340 -20 1114 -20 c 0,3,4
 900 -20 900 -20 773.5 113.5 c 128,-1,5
 647 247 647 247 633 489 c 1,6,-1
 354 489 l 1,7,-1
 354 0 l 1,8,-1
 174 0 l 1,9,-1
 174 1098 l 1,10,-1
 354 1098 l 1,11,-1
 354 641 l 1,12,-1
 635 641 l 1,13,14
 657 870 657 870 783 994 c 128,-1,15
 909 1118 909 1118 1118 1118 c 0,16,17
 1340 1118 1340 1118 1469.5 965 c 128,-1,18
 1599 812 1599 812 1599 551 c 0,0,1
817 551 m 0,19,20
 817 343 817 343 888 236 c 128,-1,21
 959 129 959 129 1116 129 c 256,22,23
 1273 129 1273 129 1343 236 c 128,-1,24
 1413 343 1413 343 1413 551 c 0,25,26
 1413 756 1413 756 1342 861.5 c 128,-1,27
 1271 967 1271 967 1116 967 c 0,28,29
 959 967 959 967 888 861.5 c 128,-1,30
 817 756 817 756 817 551 c 0,19,20
EndSplineSet
EndChar

StartChar: uni044F
Encoding: 1103 1103 459
Width: 1145
GlyphClass: 2
Flags: W
AnchorPoint: "Anchor-3" 600 1200 basechar 0
LayerCount: 2
Fore
SplineSet
242 0 m 1,0,-1
 33 0 l 1,1,-1
 346 461 l 1,2,3
 220 493 220 493 155 574 c 128,-1,4
 90 655 90 655 90 774 c 0,5,6
 90 926 90 926 193 1012 c 128,-1,7
 296 1098 296 1098 479 1098 c 2,8,-1
 971 1098 l 1,9,-1
 971 0 l 1,10,-1
 791 0 l 1,11,-1
 791 436 l 1,12,-1
 524 436 l 1,13,-1
 242 0 l 1,0,-1
264 772 m 0,14,15
 264 586 264 586 532 586 c 2,16,-1
 791 586 l 1,17,-1
 791 948 l 1,18,-1
 498 948 l 2,19,20
 383 948 383 948 323.5 903 c 128,-1,21
 264 858 264 858 264 772 c 0,14,15
EndSplineSet
EndChar

StartChar: uni0452
Encoding: 1106 1106 461
Width: 1266
GlyphClass: 2
Flags: W
LayerCount: 2
Fore
SplineSet
817 -492 m 0,0,1
 737 -492 737 -492 680 -467 c 1,2,-1
 680 -319 l 1,3,4
 735 -340 735 -340 793 -340 c 0,5,6
 922 -340 922 -340 922 -170 c 2,7,-1
 922 664 l 2,8,9
 922 797 922 797 862.5 861.5 c 128,-1,10
 803 926 803 926 678 926 c 0,11,12
 509 926 509 926 432.5 832.5 c 128,-1,13
 356 739 356 739 356 528 c 2,14,-1
 356 0 l 1,15,-1
 174 0 l 1,16,-1
 174 1239 l 1,17,-1
 18 1239 l 1,18,-1
 18 1372 l 1,19,-1
 174 1372 l 1,20,-1
 174 1556 l 1,21,-1
 354 1556 l 1,22,-1
 354 1372 l 1,23,-1
 748 1372 l 1,24,-1
 748 1239 l 1,25,-1
 354 1239 l 1,26,-1
 354 1059 l 2,27,28
 354 998 354 998 346 907 c 1,29,-1
 356 907 l 1,30,31
 405 985 405 985 495 1031 c 128,-1,32
 585 1077 585 1077 700 1077 c 0,33,34
 900 1077 900 1077 1001 981.5 c 128,-1,35
 1102 886 1102 886 1102 676 c 2,36,-1
 1102 -162 l 2,37,38
 1102 -322 1102 -322 1030 -407 c 128,-1,39
 958 -492 958 -492 817 -492 c 0,0,1
EndSplineSet
EndChar

StartChar: uni0454
Encoding: 1108 1108 463
Width: 1014
GlyphClass: 2
Flags: W
LayerCount: 2
Fore
SplineSet
635 -20 m 0,0,1
 385 -20 385 -20 249 124.5 c 128,-1,2
 113 269 113 269 113 543 c 0,3,4
 113 822 113 822 250.5 970 c 128,-1,5
 388 1118 388 1118 641 1118 c 0,6,7
 725 1118 725 1118 805 1101.5 c 128,-1,8
 885 1085 885 1085 944 1059 c 1,9,-1
 891 911 l 1,10,11
 754 963 754 963 637 963 c 0,12,13
 479 963 479 963 397.5 883 c 128,-1,14
 316 803 316 803 299 639 c 1,15,-1
 838 639 l 1,16,-1
 838 492 l 1,17,-1
 297 492 l 1,18,19
 306 308 306 308 388 220.5 c 128,-1,20
 470 133 470 133 631 133 c 0,21,22
 724 133 724 133 795 151.5 c 128,-1,23
 866 170 866 170 928 195 c 1,24,-1
 928 39 l 1,25,26
 808 -20 808 -20 635 -20 c 0,0,1
EndSplineSet
EndChar

StartChar: uni0459
Encoding: 1113 1113 468
Width: 1724
GlyphClass: 2
Flags: W
LayerCount: 2
Fore
SplineSet
940 647 m 1,0,-1
 1194 647 l 2,1,2
 1616 647 1616 647 1616 336 c 0,3,4
 1616 0 1616 0 1174 0 c 2,5,-1
 758 0 l 1,6,-1
 758 946 l 1,7,-1
 502 946 l 1,8,9
 475 589 475 589 427 382.5 c 128,-1,10
 379 176 379 176 304 81 c 128,-1,11
 229 -14 229 -14 111 -14 c 0,12,13
 44 -14 44 -14 14 0 c 1,14,-1
 14 133 l 1,15,16
 43 125 43 125 68 125 c 0,17,18
 175 125 175 125 243 353.5 c 128,-1,19
 311 582 311 582 348 1098 c 1,20,-1
 940 1098 l 1,21,-1
 940 647 l 1,0,-1
1436 326 m 256,22,23
 1436 415 1436 415 1373.5 455.5 c 128,-1,24
 1311 496 1311 496 1161 496 c 2,25,-1
 940 496 l 1,26,-1
 940 145 l 1,27,-1
 1167 145 l 2,28,29
 1299 145 1299 145 1367.5 191 c 128,-1,30
 1436 237 1436 237 1436 326 c 256,22,23
EndSplineSet
EndChar

StartChar: uni045A
Encoding: 1114 1114 469
Width: 1815
GlyphClass: 2
Flags: W
LayerCount: 2
Fore
SplineSet
1032 1098 m 1,0,-1
 1032 645 l 1,1,-1
 1278 645 l 2,2,3
 1498 645 1498 645 1601 567.5 c 128,-1,4
 1704 490 1704 490 1704 336 c 0,5,6
 1704 0 1704 0 1266 0 c 2,7,-1
 846 0 l 1,8,-1
 846 489 l 1,9,-1
 358 489 l 1,10,-1
 358 0 l 1,11,-1
 174 0 l 1,12,-1
 174 1098 l 1,13,-1
 358 1098 l 1,14,-1
 358 641 l 1,15,-1
 850 641 l 1,16,-1
 850 1098 l 1,17,-1
 1032 1098 l 1,0,-1
1028 496 m 1,18,-1
 1028 145 l 1,19,-1
 1257 145 l 2,20,21
 1526 145 1526 145 1526 326 c 0,22,23
 1526 416 1526 416 1463.5 456 c 128,-1,24
 1401 496 1401 496 1253 496 c 2,25,-1
 1028 496 l 1,18,-1
EndSplineSet
EndChar

StartChar: uni045B
Encoding: 1115 1115 470
Width: 1266
GlyphClass: 2
Flags: W
LayerCount: 2
Fore
SplineSet
922 0 m 1,0,-1
 922 662 l 2,1,2
 922 795 922 795 862.5 860.5 c 128,-1,3
 803 926 803 926 676 926 c 0,4,5
 507 926 507 926 430.5 833.5 c 128,-1,6
 354 741 354 741 354 528 c 2,7,-1
 354 0 l 1,8,-1
 174 0 l 1,9,-1
 174 1237 l 1,10,-1
 18 1237 l 1,11,-1
 18 1372 l 1,12,-1
 174 1372 l 1,13,-1
 174 1556 l 1,14,-1
 354 1556 l 1,15,-1
 354 1372 l 1,16,-1
 788 1372 l 1,17,-1
 788 1237 l 1,18,-1
 354 1237 l 1,19,-1
 354 1059 l 2,20,21
 354 971 354 971 344 907 c 1,22,-1
 356 907 l 1,23,24
 409 992 409 992 500.5 1034.5 c 128,-1,25
 592 1077 592 1077 700 1077 c 0,26,27
 899 1077 899 1077 999.5 980.5 c 128,-1,28
 1100 884 1100 884 1100 674 c 2,29,-1
 1100 0 l 1,30,-1
 922 0 l 1,0,-1
EndSplineSet
EndChar

StartChar: uni045F
Encoding: 1119 1119 473
Width: 1282
GlyphClass: 2
Flags: W
LayerCount: 2
Fore
SplineSet
557 0 m 1,0,-1
 174 0 l 1,1,-1
 174 1098 l 1,2,-1
 354 1098 l 1,3,-1
 354 152 l 1,4,-1
 926 152 l 1,5,-1
 926 1098 l 1,6,-1
 1106 1098 l 1,7,-1
 1106 0 l 1,8,-1
 733 0 l 1,9,-1
 733 -379 l 1,10,-1
 557 -379 l 1,11,-1
 557 0 l 1,0,-1
EndSplineSet
EndChar

StartChar: uni0490
Encoding: 1168 1168 474
Width: 1090
GlyphClass: 2
Flags: W
LayerCount: 2
Fore
SplineSet
870 1462 m 1,0,-1
 870 1763 l 1,1,-1
 1042 1763 l 1,2,-1
 1042 1298 l 1,3,-1
 383 1298 l 1,4,-1
 383 0 l 1,5,-1
 199 0 l 1,6,-1
 199 1462 l 1,7,-1
 870 1462 l 1,0,-1
EndSplineSet
EndChar

StartChar: uni0491
Encoding: 1169 1169 475
Width: 893
GlyphClass: 2
Flags: W
LayerCount: 2
Fore
SplineSet
848 958 m 1,0,-1
 354 958 l 1,1,-1
 354 0 l 1,2,-1
 174 0 l 1,3,-1
 174 1098 l 1,4,-1
 672 1098 l 1,5,-1
 672 1417 l 1,6,-1
 848 1417 l 1,7,-1
 848 958 l 1,0,-1
EndSplineSet
EndChar

StartChar: uni2015
Encoding: 8213 8213 484
Width: 2048
GlyphClass: 2
Flags: W
LayerCount: 2
Fore
SplineSet
82 469 m 1,0,-1
 82 629 l 1,1,-1
 1966 629 l 1,2,-1
 1966 469 l 1,3,-1
 82 469 l 1,0,-1
EndSplineSet
EndChar

StartChar: underscoredbl
Encoding: 8215 8215 485
Width: 842
GlyphClass: 2
Flags: W
LayerCount: 2
Fore
SplineSet
846 -455 m 1,0,-1
 -4 -455 l 1,1,-1
 -4 -324 l 1,2,-1
 846 -324 l 1,3,-1
 846 -455 l 1,0,-1
846 -184 m 1,4,-1
 -4 -184 l 1,5,-1
 -4 -53 l 1,6,-1
 846 -53 l 1,7,-1
 846 -184 l 1,4,-1
EndSplineSet
EndChar

StartChar: glyph486
Encoding: 65552 -1 486
Width: 358
Flags: W
LayerCount: 2
Fore
SplineSet
37 961 m 1,0,-1
 25 983 l 1,1,2
 47 1073 47 1073 96 1207 c 128,-1,3
 145 1341 145 1341 201 1462 c 1,4,-1
 334 1462 l 1,5,6
 268 1208 268 1208 231 961 c 1,7,-1
 37 961 l 1,0,-1
EndSplineSet
EndChar

StartChar: glyph487
Encoding: 65553 -1 487
Width: 358
Flags: W
LayerCount: 2
Fore
SplineSet
319 1462 m 1,0,-1
 334 1440 l 1,1,2
 282 1241 282 1241 158 961 c 1,3,-1
 25 961 l 1,4,5
 95 1246 95 1246 127 1462 c 1,6,-1
 319 1462 l 1,0,-1
EndSplineSet
EndChar

StartChar: quotesinglbase
Encoding: 8218 8218 488
Width: 512
GlyphClass: 2
Flags: W
LayerCount: 2
Fore
SplineSet
358 238 m 1,0,-1
 373 215 l 1,1,2
 325 29 325 29 197 -264 c 1,3,-1
 63 -264 l 1,4,5
 130 -5 130 -5 166 238 c 1,6,-1
 358 238 l 1,0,-1
EndSplineSet
EndChar

StartChar: quotereversed
Encoding: 8219 8219 489
Width: 358
GlyphClass: 2
Flags: W
LayerCount: 2
Fore
SplineSet
233 1462 m 1,0,1
 270 1211 270 1211 336 961 c 1,2,-1
 203 961 l 1,3,4
 158 1055 158 1055 103.5 1197 c 128,-1,5
 49 1339 49 1339 25 1440 c 1,6,-1
 39 1462 l 1,7,-1
 233 1462 l 1,0,1
EndSplineSet
EndChar

StartChar: glyph490
Encoding: 65554 -1 490
Width: 735
Flags: W
LayerCount: 2
Fore
SplineSet
317 1462 m 1,0,-1
 332 1440 l 1,1,2
 283 1246 283 1246 156 961 c 1,3,-1
 25 961 l 1,4,5
 90 1225 90 1225 125 1462 c 1,6,-1
 317 1462 l 1,0,-1
696 1462 m 1,7,-1
 711 1440 l 1,8,9
 662 1246 662 1246 535 961 c 1,10,-1
 399 961 l 1,11,12
 425 1061 425 1061 458 1215 c 128,-1,13
 491 1369 491 1369 504 1462 c 1,14,-1
 696 1462 l 1,7,-1
EndSplineSet
EndChar

StartChar: quotedblbase
Encoding: 8222 8222 491
Width: 852
GlyphClass: 2
Flags: W
LayerCount: 2
Fore
SplineSet
322 238 m 1,0,-1
 336 215 l 1,1,2
 288 29 288 29 160 -264 c 1,3,-1
 27 -264 l 1,4,5
 92 -14 92 -14 129 238 c 1,6,-1
 322 238 l 1,0,-1
700 238 m 1,7,-1
 715 215 l 1,8,9
 667 29 667 29 539 -264 c 1,10,-1
 403 -264 l 1,11,12
 430 -160 430 -160 461 -13 c 128,-1,13
 492 134 492 134 508 238 c 1,14,-1
 700 238 l 1,7,-1
EndSplineSet
EndChar

StartChar: dagger
Encoding: 8224 8224 492
Width: 1049
GlyphClass: 2
Flags: W
LayerCount: 2
Fore
SplineSet
918 991 m 1,0,-1
 567 1022 l 1,1,-1
 618 0 l 1,2,-1
 414 0 l 1,3,-1
 463 1022 l 1,4,-1
 133 991 l 1,5,-1
 133 1169 l 1,6,-1
 463 1139 l 1,7,-1
 414 1556 l 1,8,-1
 618 1556 l 1,9,-1
 567 1139 l 1,10,-1
 918 1169 l 1,11,-1
 918 991 l 1,0,-1
EndSplineSet
EndChar

StartChar: daggerdbl
Encoding: 8225 8225 493
Width: 1049
GlyphClass: 2
Flags: W
LayerCount: 2
Fore
SplineSet
575 494 m 1,0,-1
 926 524 l 1,1,-1
 926 350 l 1,2,-1
 575 379 l 1,3,-1
 625 0 l 1,4,-1
 418 0 l 1,5,-1
 467 379 l 1,6,-1
 123 350 l 1,7,-1
 123 524 l 1,8,-1
 467 494 l 1,9,-1
 424 786 l 1,10,-1
 467 1063 l 1,11,-1
 123 1032 l 1,12,-1
 123 1206 l 1,13,-1
 467 1176 l 1,14,-1
 418 1556 l 1,15,-1
 625 1556 l 1,16,-1
 575 1176 l 1,17,-1
 926 1206 l 1,18,-1
 926 1032 l 1,19,-1
 575 1063 l 1,20,-1
 618 786 l 1,21,-1
 575 494 l 1,0,-1
EndSplineSet
EndChar

StartChar: bullet
Encoding: 8226 8226 494
Width: 770
GlyphClass: 2
Flags: W
LayerCount: 2
Fore
SplineSet
158 748 m 0,0,1
 158 870 158 870 216 935.5 c 128,-1,2
 274 1001 274 1001 385 1001 c 0,3,4
 495 1001 495 1001 553.5 935.5 c 128,-1,5
 612 870 612 870 612 748 c 256,6,7
 612 626 612 626 552.5 560 c 128,-1,8
 493 494 493 494 385 494 c 0,9,10
 275 494 275 494 216.5 560.5 c 128,-1,11
 158 627 158 627 158 748 c 0,0,1
EndSplineSet
EndChar

StartChar: perthousand
Encoding: 8240 8240 495
Width: 2410
GlyphClass: 2
Flags: W
LayerCount: 2
Fore
SplineSet
250 1026 m 256,0,1
 250 861 250 861 285.5 777.5 c 128,-1,2
 321 694 321 694 399 694 c 0,3,4
 557 694 557 694 557 1026 c 0,5,6
 557 1356 557 1356 399 1356 c 0,7,8
 321 1356 321 1356 285.5 1273.5 c 128,-1,9
 250 1191 250 1191 250 1026 c 256,0,1
707 1026 m 0,10,11
 707 798 707 798 628.5 681.5 c 128,-1,12
 550 565 550 565 399 565 c 0,13,14
 257 565 257 565 178.5 684.5 c 128,-1,15
 100 804 100 804 100 1026 c 0,16,17
 100 1255 100 1255 176.5 1369 c 128,-1,18
 253 1483 253 1483 399 1483 c 0,19,20
 546 1483 546 1483 626.5 1364.5 c 128,-1,21
 707 1246 707 1246 707 1026 c 0,10,11
1145 440 m 0,22,23
 1145 273 1145 273 1180.5 191 c 128,-1,24
 1216 109 1216 109 1294 109 c 0,25,26
 1375 109 1375 109 1413.5 190.5 c 128,-1,27
 1452 272 1452 272 1452 440 c 0,28,29
 1452 768 1452 768 1294 768 c 0,30,31
 1216 768 1216 768 1180.5 686.5 c 128,-1,32
 1145 605 1145 605 1145 440 c 0,22,23
1602 440 m 0,33,34
 1602 213 1602 213 1523 96.5 c 128,-1,35
 1444 -20 1444 -20 1294 -20 c 0,36,37
 1152 -20 1152 -20 1073.5 99.5 c 128,-1,38
 995 219 995 219 995 440 c 0,39,40
 995 669 995 669 1071 783 c 128,-1,41
 1147 897 1147 897 1294 897 c 256,42,43
 1441 897 1441 897 1521.5 778.5 c 128,-1,44
 1602 660 1602 660 1602 440 c 0,33,34
1335 1462 m 1,45,-1
 524 0 l 1,46,-1
 367 0 l 1,47,-1
 1178 1462 l 1,48,-1
 1335 1462 l 1,45,-1
1853 440 m 0,49,50
 1853 273 1853 273 1888.5 191 c 128,-1,51
 1924 109 1924 109 2003 109 c 0,52,53
 2161 109 2161 109 2161 440 c 0,54,55
 2161 768 2161 768 2003 768 c 0,56,57
 1924 768 1924 768 1888.5 686.5 c 128,-1,58
 1853 605 1853 605 1853 440 c 0,49,50
2310 440 m 0,59,60
 2310 214 2310 214 2232.5 97 c 128,-1,61
 2155 -20 2155 -20 2003 -20 c 0,62,63
 1859 -20 1859 -20 1781.5 100 c 128,-1,64
 1704 220 1704 220 1704 440 c 0,65,66
 1704 669 1704 669 1780 783 c 128,-1,67
 1856 897 1856 897 2003 897 c 0,68,69
 2149 897 2149 897 2229.5 778.5 c 128,-1,70
 2310 660 2310 660 2310 440 c 0,59,60
EndSplineSet
EndChar

StartChar: guilsinglleft
Encoding: 8249 8249 498
Width: 635
GlyphClass: 2
Flags: W
LayerCount: 2
Fore
SplineSet
82 553 m 1,0,-1
 426 965 l 1,1,-1
 555 891 l 1,2,-1
 268 541 l 1,3,-1
 555 190 l 1,4,-1
 426 115 l 1,5,-1
 82 526 l 1,6,-1
 82 553 l 1,0,-1
EndSplineSet
EndChar

StartChar: guilsinglright
Encoding: 8250 8250 499
Width: 635
GlyphClass: 2
Flags: W
LayerCount: 2
Fore
SplineSet
553 526 m 1,0,-1
 207 115 l 1,1,-1
 80 190 l 1,2,-1
 367 541 l 1,3,-1
 80 891 l 1,4,-1
 207 965 l 1,5,-1
 553 553 l 1,6,-1
 553 526 l 1,0,-1
EndSplineSet
EndChar

StartChar: fraction
Encoding: 8260 8260 501
Width: 266
GlyphClass: 2
Flags: W
LayerCount: 2
Fore
SplineSet
655 1462 m 1,0,-1
 -238 0 l 1,1,-1
 -391 0 l 1,2,-1
 502 1462 l 1,3,-1
 655 1462 l 1,0,-1
EndSplineSet
EndChar

StartChar: uni207F
Encoding: 8319 8319 502
Width: 813
GlyphClass: 2
Flags: W
LayerCount: 2
Fore
SplineSet
588 797 m 1,0,-1
 588 1214 l 2,1,2
 588 1299 588 1299 550 1333.5 c 128,-1,3
 512 1368 512 1368 434 1368 c 0,4,5
 323 1368 323 1368 278 1317.5 c 128,-1,6
 233 1267 233 1267 233 1143 c 2,7,-1
 233 797 l 1,8,-1
 109 797 l 1,9,-1
 109 1466 l 1,10,-1
 211 1466 l 1,11,-1
 225 1378 l 1,12,-1
 238 1378 l 1,13,14
 311 1479 311 1479 455 1479 c 0,15,16
 713 1479 713 1479 713 1229 c 2,17,-1
 713 797 l 1,18,-1
 588 797 l 1,0,-1
EndSplineSet
EndChar

StartChar: franc
Encoding: 8355 8355 503
Width: 1171
GlyphClass: 2
Flags: W
LayerCount: 2
Fore
SplineSet
444 399 m 1,0,-1
 754 399 l 1,1,-1
 754 266 l 1,2,-1
 444 266 l 1,3,-1
 444 0 l 1,4,-1
 266 0 l 1,5,-1
 266 266 l 1,6,-1
 92 266 l 1,7,-1
 92 399 l 1,8,-1
 266 399 l 1,9,-1
 266 1462 l 1,10,-1
 1059 1462 l 1,11,-1
 1059 1300 l 1,12,-1
 444 1300 l 1,13,-1
 444 786 l 1,14,-1
 1020 786 l 1,15,-1
 1020 625 l 1,16,-1
 444 625 l 1,17,-1
 444 399 l 1,0,-1
EndSplineSet
EndChar

StartChar: lira
Encoding: 8356 8356 504
Width: 1171
GlyphClass: 2
Flags: W
LayerCount: 2
Fore
SplineSet
688 1481 m 0,0,1
 886 1481 886 1481 1051 1401 c 1,2,-1
 987 1260 l 1,3,4
 837 1329 837 1329 690 1329 c 0,5,6
 453 1329 453 1329 453 1075 c 2,7,-1
 453 895 l 1,8,-1
 866 895 l 1,9,-1
 866 762 l 1,10,-1
 453 762 l 1,11,-1
 453 602 l 1,12,-1
 866 602 l 1,13,-1
 866 467 l 1,14,-1
 451 467 l 1,15,16
 451 354 451 354 419.5 281.5 c 128,-1,17
 388 209 388 209 311 164 c 1,18,-1
 1098 164 l 1,19,-1
 1098 0 l 1,20,-1
 68 0 l 1,21,-1
 68 152 l 1,22,23
 272 195 272 195 272 467 c 1,24,-1
 74 467 l 1,25,-1
 74 602 l 1,26,-1
 272 602 l 1,27,-1
 272 762 l 1,28,-1
 74 762 l 1,29,-1
 74 895 l 1,30,-1
 272 895 l 1,31,-1
 272 1030 l 2,32,33
 272 1481 272 1481 688 1481 c 0,0,1
EndSplineSet
EndChar

StartChar: peseta
Encoding: 8359 8359 505
Width: 1589
GlyphClass: 2
Flags: W
LayerCount: 2
Fore
SplineSet
1382 125 m 0,0,1
 1419 125 1419 125 1459.5 132 c 128,-1,2
 1500 139 1500 139 1518 145 c 1,3,-1
 1518 12 l 1,4,5
 1451 -20 1451 -20 1339 -20 c 0,6,7
 1221 -20 1221 -20 1158.5 51.5 c 128,-1,8
 1096 123 1096 123 1096 260 c 2,9,-1
 1096 709 l 1,10,-1
 938 709 l 1,11,-1
 938 791 l 1,12,-1
 1098 864 l 1,13,-1
 1161 1059 l 1,14,-1
 1266 1059 l 1,15,-1
 1266 846 l 1,16,-1
 1491 846 l 1,17,-1
 1491 709 l 1,18,-1
 1266 709 l 1,19,-1
 1266 283 l 2,20,21
 1266 207 1266 207 1292.5 166 c 128,-1,22
 1319 125 1319 125 1382 125 c 0,0,1
944 1032 m 0,23,24
 944 804 944 804 804.5 686.5 c 128,-1,25
 665 569 665 569 397 569 c 2,26,-1
 334 569 l 1,27,-1
 334 0 l 1,28,-1
 156 0 l 1,29,-1
 156 1462 l 1,30,-1
 430 1462 l 2,31,32
 944 1462 944 1462 944 1032 c 0,23,24
334 727 m 1,33,-1
 387 727 l 2,34,35
 581 727 581 727 671.5 797.5 c 128,-1,36
 762 868 762 868 762 1024 c 0,37,38
 762 1166 762 1166 678.5 1235.5 c 128,-1,39
 595 1305 595 1305 418 1305 c 2,40,-1
 334 1305 l 1,41,-1
 334 727 l 1,33,-1
EndSplineSet
EndChar

StartChar: Euro
Encoding: 8364 8364 506
Width: 1171
GlyphClass: 2
Flags: W
LayerCount: 2
Fore
SplineSet
778 1323 m 0,0,1
 466 1323 466 1323 391 932 c 1,2,-1
 891 932 l 1,3,-1
 891 799 l 1,4,-1
 377 799 l 1,5,-1
 375 743 l 1,6,-1
 375 681 l 1,7,-1
 377 637 l 1,8,-1
 829 637 l 1,9,-1
 829 504 l 1,10,-1
 393 504 l 1,11,12
 428 330 428 330 527.5 234.5 c 128,-1,13
 627 139 627 139 795 139 c 0,14,15
 947 139 947 139 1100 205 c 1,16,-1
 1100 45 l 1,17,18
 954 -20 954 -20 784 -20 c 0,19,20
 548 -20 548 -20 402.5 113.5 c 128,-1,21
 257 247 257 247 211 504 c 1,22,-1
 47 504 l 1,23,-1
 47 637 l 1,24,-1
 195 637 l 1,25,-1
 193 679 l 1,26,-1
 193 721 l 1,27,-1
 195 799 l 1,28,-1
 47 799 l 1,29,-1
 47 932 l 1,30,-1
 209 932 l 1,31,32
 249 1196 249 1196 397 1338.5 c 128,-1,33
 545 1481 545 1481 778 1481 c 0,34,35
 983 1481 983 1481 1145 1386 c 1,36,-1
 1069 1239 l 1,37,38
 907 1323 907 1323 778 1323 c 0,0,1
EndSplineSet
EndChar

StartChar: uni2105
Encoding: 8453 8453 507
Width: 1681
GlyphClass: 2
Flags: W
LayerCount: 2
Fore
SplineSet
1311 1462 m 1,0,-1
 500 0 l 1,1,-1
 342 0 l 1,2,-1
 1153 1462 l 1,3,-1
 1311 1462 l 1,0,-1
1548 334 m 256,4,5
 1548 175 1548 175 1464 82.5 c 128,-1,6
 1380 -10 1380 -10 1229 -10 c 0,7,8
 1087 -10 1087 -10 1002.5 83.5 c 128,-1,9
 918 177 918 177 918 334 c 0,10,11
 918 497 918 497 1002.5 587.5 c 128,-1,12
 1087 678 1087 678 1235 678 c 0,13,14
 1374 678 1374 678 1461 585.5 c 128,-1,15
 1548 493 1548 493 1548 334 c 256,4,5
1059 334 m 0,16,17
 1059 219 1059 219 1103 159.5 c 128,-1,18
 1147 100 1147 100 1233 100 c 0,19,20
 1316 100 1316 100 1360.5 159.5 c 128,-1,21
 1405 219 1405 219 1405 334 c 0,22,23
 1405 567 1405 567 1233 567 c 0,24,25
 1059 567 1059 567 1059 334 c 0,16,17
483 784 m 0,26,27
 318 784 318 784 225.5 873 c 128,-1,28
 133 962 133 962 133 1124 c 0,29,30
 133 1292 133 1292 226 1382.5 c 128,-1,31
 319 1473 319 1473 492 1473 c 0,32,33
 595 1473 595 1473 686 1436 c 1,34,-1
 651 1329 l 1,35,36
 568 1360 568 1360 489 1360 c 0,37,38
 274 1360 274 1360 274 1126 c 0,39,40
 274 895 274 895 485 895 c 0,41,42
 588 895 588 895 676 930 c 1,43,-1
 676 823 l 1,44,45
 645 808 645 808 592.5 796 c 128,-1,46
 540 784 540 784 483 784 c 0,26,27
EndSplineSet
EndChar

StartChar: uni2113
Encoding: 8467 8467 508
Width: 1065
GlyphClass: 2
Flags: W
LayerCount: 2
Fore
SplineSet
637 119 m 0,0,1
 807 119 807 119 825 330 c 1,2,-1
 930 330 l 1,3,4
 922 161 922 161 845 70.5 c 128,-1,5
 768 -20 768 -20 618 -20 c 0,6,7
 465 -20 465 -20 384 71.5 c 128,-1,8
 303 163 303 163 303 336 c 2,9,-1
 303 567 l 1,10,11
 223 537 223 537 111 510 c 1,12,-1
 111 631 l 1,13,14
 189 652 189 652 303 690 c 1,15,-1
 303 1180 l 2,16,17
 303 1324 303 1324 379.5 1403.5 c 128,-1,18
 456 1483 456 1483 598 1483 c 0,19,20
 718 1483 718 1483 788 1402 c 128,-1,21
 858 1321 858 1321 858 1182 c 0,22,23
 858 996 858 996 755 846 c 128,-1,24
 652 696 652 696 471 618 c 1,25,-1
 471 342 l 2,26,27
 471 239 471 239 511 179 c 128,-1,28
 551 119 551 119 637 119 c 0,0,1
721 1176 m 0,29,30
 721 1364 721 1364 598 1364 c 0,31,32
 533 1364 533 1364 502 1321.5 c 128,-1,33
 471 1279 471 1279 471 1176 c 2,34,-1
 471 750 l 1,35,36
 721 881 721 881 721 1176 c 0,29,30
EndSplineSet
EndChar

StartChar: uni2116
Encoding: 8470 8470 509
Width: 2089
GlyphClass: 2
Flags: W
LayerCount: 2
Fore
SplineSet
1223 0 m 1,0,-1
 1022 0 l 1,1,-1
 348 1208 l 1,2,-1
 340 1208 l 1,3,4
 356 920 356 920 356 811 c 2,5,-1
 356 0 l 1,6,-1
 195 0 l 1,7,-1
 195 1462 l 1,8,-1
 401 1462 l 1,9,-1
 1067 258 l 1,10,-1
 1075 258 l 1,11,12
 1061 503 1061 503 1061 643 c 2,13,-1
 1061 1462 l 1,14,-1
 1223 1462 l 1,15,-1
 1223 0 l 1,0,-1
1991 623 m 0,16,17
 1991 459 1991 459 1909.5 366.5 c 128,-1,18
 1828 274 1828 274 1679 274 c 0,19,20
 1539 274 1539 274 1457.5 368 c 128,-1,21
 1376 462 1376 462 1376 623 c 0,22,23
 1376 787 1376 787 1457 878 c 128,-1,24
 1538 969 1538 969 1686 969 c 0,25,26
 1824 969 1824 969 1907.5 876.5 c 128,-1,27
 1991 784 1991 784 1991 623 c 0,16,17
1513 623 m 0,28,29
 1513 510 1513 510 1553 451.5 c 128,-1,30
 1593 393 1593 393 1683 393 c 256,31,32
 1773 393 1773 393 1812 451.5 c 128,-1,33
 1851 510 1851 510 1851 623 c 0,34,35
 1851 737 1851 737 1812 791.5 c 128,-1,36
 1773 846 1773 846 1683 846 c 0,37,38
 1594 846 1594 846 1553.5 791.5 c 128,-1,39
 1513 737 1513 737 1513 623 c 0,28,29
1417 0 m 1,40,-1
 1417 141 l 1,41,-1
 1944 141 l 1,42,-1
 1944 0 l 1,43,-1
 1417 0 l 1,40,-1
EndSplineSet
EndChar

StartChar: trademark
Encoding: 8482 8482 510
Width: 1583
GlyphClass: 2
Flags: W
LayerCount: 2
Fore
SplineSet
371 741 m 1,0,-1
 242 741 l 1,1,-1
 242 1352 l 1,2,-1
 35 1352 l 1,3,-1
 35 1462 l 1,4,-1
 580 1462 l 1,5,-1
 580 1352 l 1,6,-1
 371 1352 l 1,7,-1
 371 741 l 1,0,-1
967 741 m 1,8,-1
 770 1296 l 1,9,-1
 762 1296 l 1,10,-1
 768 1169 l 1,11,-1
 768 741 l 1,12,-1
 645 741 l 1,13,-1
 645 1462 l 1,14,-1
 838 1462 l 1,15,-1
 1030 907 l 1,16,-1
 1229 1462 l 1,17,-1
 1415 1462 l 1,18,-1
 1415 741 l 1,19,-1
 1284 741 l 1,20,-1
 1284 1159 l 1,21,-1
 1290 1296 l 1,22,-1
 1282 1296 l 1,23,-1
 1075 741 l 1,24,-1
 967 741 l 1,8,-1
EndSplineSet
EndChar

StartChar: estimated
Encoding: 8494 8494 512
Width: 1268
GlyphClass: 2
Flags: W
LayerCount: 2
Fore
SplineSet
633 -35 m 0,0,1
 476 -35 476 -35 355.5 38.5 c 128,-1,2
 235 112 235 112 168.5 242.5 c 128,-1,3
 102 373 102 373 102 530 c 0,4,5
 102 701 102 701 171 828.5 c 128,-1,6
 240 956 240 956 362 1026 c 128,-1,7
 484 1096 484 1096 633 1096 c 0,8,9
 785 1096 785 1096 906.5 1025 c 128,-1,10
 1028 954 1028 954 1095.5 824.5 c 128,-1,11
 1163 695 1163 695 1163 530 c 1,12,-1
 336 530 l 1,13,-1
 336 174 l 1,14,15
 385 121 385 121 468 86 c 128,-1,16
 551 51 551 51 633 51 c 0,17,18
 764 51 764 51 855.5 103.5 c 128,-1,19
 947 156 947 156 1028 285 c 1,20,-1
 1100 244 l 1,21,22
 1002 89 1002 89 893.5 27 c 128,-1,23
 785 -35 785 -35 633 -35 c 0,0,1
932 616 m 1,24,-1
 932 893 l 1,25,26
 882 946 882 946 800.5 979 c 128,-1,27
 719 1012 719 1012 631 1012 c 0,28,29
 458 1012 458 1012 336 895 c 1,30,-1
 336 616 l 1,31,-1
 932 616 l 1,24,-1
EndSplineSet
EndChar

StartChar: oneeighth
Encoding: 8539 8539 513
Width: 1618
GlyphClass: 2
Flags: W
LayerCount: 2
Fore
SplineSet
1234 890 m 0,0,1
 1360 890 1360 890 1435.5 831 c 128,-1,2
 1511 772 1511 772 1511 668 c 0,3,4
 1511 538 1511 538 1363 462 c 1,5,6
 1540 388 1540 388 1540 232 c 0,7,8
 1540 119 1540 119 1455.5 49.5 c 128,-1,9
 1371 -20 1371 -20 1234 -20 c 0,10,11
 1085 -20 1085 -20 1005 45.5 c 128,-1,12
 925 111 925 111 925 226 c 0,13,14
 925 295 925 295 962 352.5 c 128,-1,15
 999 410 999 410 1083 455 c 1,16,17
 1012 499 1012 499 982 545.5 c 128,-1,18
 952 592 952 592 952 662 c 0,19,20
 952 765 952 765 1031.5 827.5 c 128,-1,21
 1111 890 1111 890 1234 890 c 0,0,1
1064 226 m 256,22,23
 1064 167 1064 167 1104.5 131 c 128,-1,24
 1145 95 1145 95 1230 95 c 0,25,26
 1317 95 1317 95 1357.5 131 c 128,-1,27
 1398 167 1398 167 1398 226 c 0,28,29
 1398 286 1398 286 1352.5 325 c 128,-1,30
 1307 364 1307 364 1228 390 c 1,31,-1
 1202 400 l 1,32,33
 1134 368 1134 368 1099 326.5 c 128,-1,34
 1064 285 1064 285 1064 226 c 256,22,23
1232 777 m 0,35,36
 1166 777 1166 777 1129.5 747.5 c 128,-1,37
 1093 718 1093 718 1093 664 c 0,38,39
 1093 574 1093 574 1236 517 c 1,40,41
 1296 540 1296 540 1334 574 c 128,-1,42
 1372 608 1372 608 1372 664 c 0,43,44
 1372 718 1372 718 1334.5 747.5 c 128,-1,45
 1297 777 1297 777 1232 777 c 0,35,36
335 1462 m 1,46,-1
 485 1462 l 1,47,-1
 485 586 l 1,48,-1
 339 586 l 1,49,-1
 339 1151 l 2,50,51
 339 1218 339 1218 347 1333 c 1,52,53
 316 1305 316 1305 293 1286 c 128,-1,54
 270 1267 270 1267 140 1174 c 1,55,-1
 69 1274 l 1,56,-1
 335 1462 l 1,46,-1
1267 1462 m 1,57,-1
 374 0 l 1,58,-1
 221 0 l 1,59,-1
 1114 1462 l 1,60,-1
 1267 1462 l 1,57,-1
EndSplineSet
EndChar

